<?xml version="1.0" encoding="UTF-8"?>
<svg id="_レイヤー_2" data-name="レイヤー 2" xmlns="http://www.w3.org/2000/svg" viewBox="0 0 120 120">
  <defs>
    <style>
      .cls-1 {
        fill: #bfd0cf;
      }

      .cls-1, .cls-2, .cls-3, .cls-4, .cls-5, .cls-6, .cls-7, .cls-8, .cls-9, .cls-10, .cls-11, .cls-12, .cls-13, .cls-14, .cls-15, .cls-16, .cls-17, .cls-18, .cls-19 {
        stroke-width: 0px;
      }

      .cls-2 {
        fill: #2d3235;
      }

      .cls-3 {
        fill: #688680;
      }

      .cls-4 {
        fill: #a68e74;
      }

      .cls-5 {
        fill: #9d8580;
      }

      .cls-6 {
        fill: none;
      }

      .cls-7 {
        fill: #806e51;
      }

      .cls-8 {
        fill: #d39580;
      }

      .cls-9 {
        fill: #828a80;
      }

      .cls-10 {
        fill: #804922;
      }

      .cls-11 {
        fill: #ced7d9;
      }

      .cls-12 {
        fill: #809993;
      }

      .cls-13 {
        fill: #a69a80;
      }

      .cls-14 {
        fill: #809480;
      }

      .cls-15 {
        fill: #cba280;
      }

      .cls-16 {
        fill: #2d803a;
      }

      .cls-17 {
        fill: #277380;
      }

      .cls-18 {
        fill: #492212;
      }

      .cls-19 {
        fill: #808b8f;
      }
    </style>
  </defs>
  <g id="_レイヤー_1-2" data-name="レイヤー 1">
    <g>
      <g>
        <path class="cls-8" d="m45.742694,51.4200286l-1.5547905,6.1158457c-.0277831.1641268.0291106.3200947.1391956.4350309s.2733614.1888407.4583438.1888407h1.914502c.1849824,0,.3482588-.0739045.4583438-.1888407s.1669786-.2709041.1391956-.4350309l-1.5547905-6.1158457"/>
        <path class="cls-3" d="m52.9572845,51.4200286l-1.5547905,6.1158457c-.0277831.1641268.0291106.3200947.1391956.4350309s.2733614.1888407.4583438.1888407h1.914502c.1849824,0,.3482588-.0739045.4583438-.1888407s.1669786-.2709041.1391956-.4350309l-1.5547905-6.1158457"/>
        <path class="cls-16" d="m60.171875,51.4200286l-1.5547905,6.1158457c-.0277831.1641268.0291106.3200947.1391956.4350309s.2733614.1888407.4583438.1888407h1.914502c.1849824,0,.3482588-.0739045.4583438-.1888407s.1669786-.2709041.1391956-.4350309l-1.5547905-6.1158457"/>
        <path class="cls-17" d="m67.3864655,51.4200286l-1.5547905,6.1158457c-.0277831.1641268.0291106.3200947.1391956.4350309s.2733614.1888407.4583438.1888407h1.914502c.1849824,0,.3482588-.0739045.4583438-.1888407s.1669786-.2709041.1391956-.4350309l-1.5547905-6.1158457"/>
        <path class="cls-12" d="m74.601056,51.4200286l-1.5547905,6.1158457c-.0277831.1641268.0291106.3200947.1391956.4350309s.2733614.1888407.4583438.1888407h1.914502c.1849824,0,.3482588-.0739045.4583438-.1888407s.1669786-.2709041.1391956-.4350309l-1.5547905-6.1158457"/>
        <path class="cls-14" d="m48.7130793,41.0650214l-1.5547905,6.1158457c-.0277831.1641268.0291106.3200947.1391956.4350309s.2733614.1888407.4583438.1888407h1.914502c.1849824,0,.3482588-.0739045.4583438-.1888407s.1669786-.2709041.1391956-.4350309l-1.5547905-6.1158457"/>
        <path class="cls-4" d="m55.9276698,41.0650214l-1.5547905,6.1158457c-.0277831.1641268.0291106.3200947.1391956.4350309s.2733614.1888407.4583438.1888407h1.914502c.1849824,0,.3482588-.0739045.4583438-.1888407s.1669786-.2709041.1391956-.4350309l-1.5547905-6.1158457"/>
        <path class="cls-15" d="m63.1422603,41.0650214l-1.5547905,6.1158457c-.0277831.1641268.0291106.3200947.1391956.4350309s.2733614.1888407.4583438.1888407h1.914502c.1849824,0,.3482588-.0739045.4583438-.1888407s.1669786-.2709041.1391956-.4350309l-1.5547905-6.1158457"/>
        <path class="cls-18" d="m60.171875,73.2602827l-1.5547905,6.1158457c-.0277831.1641268.0291106.3200947.1391956.4350309s.2733614.1888407.4583438.1888407h1.914502c.1849824,0,.3482588-.0739045.4583438-.1888407s.1669786-.2709041.1391956-.4350309l-1.5547905-6.1158457"/>
        <path class="cls-10" d="m55.9276698,62.9052756l-1.5547905,6.1158457c-.0277831.1641268.0291106.3200947.1391956.4350309s.2733614.1888407.4583438.1888407h1.914502c.1849824,0,.3482588-.0739045.4583438-.1888407s.1669786-.2709041.1391956-.4350309l-1.5547905-6.1158457"/>
        <path class="cls-7" d="m63.1422603,62.9052756l-1.5547905,6.1158457c-.0277831.1641268.0291106.3200947.1391956.4350309s.2733614.1888407.4583438.1888407h1.914502c.1849824,0,.3482588-.0739045.4583438-.1888407s.1669786-.2709041.1391956-.4350309l-1.5547905-6.1158457"/>
        <path class="cls-1" d="m70.3568508,41.0650214l-1.5547905,6.1158457c-.0277831.1641268.0291106.3200947.1391956.4350309s.2733614.1888407.4583438.1888407h1.914502c.1849824,0,.3482588-.0739045.4583438-.1888407s.1669786-.2709041.1391956-.4350309l-1.5547905-6.1158457"/>
        <path class="cls-13" d="m55.9276698,20.3550071l-1.5547905,6.1158457c-.0277831.1641268.0291106.3200947.1391956.4350309s.2733614.1888407.4583438.1888407h1.914502c.1849824,0,.3482588-.0739045.4583438-.1888407s.1669786-.2709041.1391956-.4350309l-1.5547905-6.1158457"/>
        <path class="cls-15" d="m63.1422603,20.3550071l-1.5547905,6.1158457c-.0277831.1641268.0291106.3200947.1391956.4350309s.2733614.1888407.4583438.1888407h1.914502c.1849824,0,.3482588-.0739045.4583438-.1888407s.1669786-.2709041.1391956-.4350309l-1.5547905-6.1158457"/>
        <path class="cls-5" d="m52.9572845,30.7100143l-1.5547905,6.1158457c-.0277831.1641268.0291106.3200947.1391956.4350309s.2733614.1888407.4583438.1888407h1.914502c.1849824,0,.3482588-.0739045.4583438-.1888407s.1669786-.2709041.1391956-.4350309l-1.5547905-6.1158457"/>
        <path class="cls-11" d="m60.171875,30.7100143l-1.5547905,6.1158457c-.0277831.1641268.0291106.3200947.1391956.4350309s.2733614.1888407.4583438.1888407h1.914502c.1849824,0,.3482588-.0739045.4583438-.1888407s.1669786-.2709041.1391956-.4350309l-1.5547905-6.1158457"/>
        <path class="cls-19" d="m60.171875,10l-1.5547905,6.1158457c-.0277831.1641268.0291106.3200947.1391956.4350309s.2733614.1888407.4583438.1888407h1.914502c.1849824,0,.3482588-.0739045.4583438-.1888407s.1669786-.2709041.1391956-.4350309l-1.5547905-6.1158457"/>
        <path class="cls-9" d="m67.3864655,30.7100143l-1.5547905,6.1158457c-.0277831.1641268.0291106.3200947.1391956.4350309s.2733614.1888407.4583438.1888407h1.914502c.1849824,0,.3482588-.0739045.4583438-.1888407s.1669786-.2709041.1391956-.4350309l-1.5547905-6.1158457"/>
      </g>
      <g>
        <path class="cls-2" d="m16.9003906,87.2944336v4.1630859h.8955078c.3051758,0,.5605469-.0112305.765625-.0341797s.3701172-.0888672.4956055-.1982422.2197266-.2792969.2836914-.5092773.109375-.5546875.1367188-.9741211h.4853516v4.1152344h-.4853516c-.0229492-.4238281-.0615234-.7578125-.1162109-1.0014648s-.1435547-.4282227-.2666016-.5537109-.2880859-.2041016-.4956055-.2358398-.4750977-.0478516-.8032227-.0478516h-.8955078v4.1152344h1.4355469v.546875h-4.1357422v-.546875h1.3671875v-8.8388672h-1.3671875v-.546875h7.6152344l.1503906,2.8779297h-.4785156c-.059082-.4921875-.1391602-.8896484-.2392578-1.1928711s-.2426758-.5390625-.4272461-.7075195-.4238281-.2827148-.7177734-.3417969-.6621094-.0888672-1.1040039-.0888672h-2.0986328Z"/>
        <path class="cls-2" d="m23.0253906,93.8227539c0-.4282227.0673828-.8339844.2016602-1.2167969s.331543-.7177734.5913086-1.0048828.5776367-.5136719.9536133-.6801758.8032227-.2495117,1.2817383-.2495117c.4741211,0,.8930664.0810547,1.2578125.2426758s.6699219.3818359.9160156.659668.4316406.6015625.5571289.9707031.1879883.7612305.1879883,1.1757812c0,.4282227-.0673828.8339844-.2016602,1.2167969s-.331543.7177734-.5913086,1.0048828-.5776367.5136719-.9536133.6801758-.8032227.2495117-1.2817383.2495117c-.4741211,0-.8930664-.0810547-1.2578125-.2426758s-.6699219-.3818359-.9160156-.659668-.4316406-.6015625-.5571289-.9707031-.1879883-.7612305-.1879883-1.1757812Zm1.3535156-.0273438c0,.496582.0341797.9091797.1025391,1.2373047s.168457.590332.3007812.7861328.2983398.3339844.4990234.4135742.4350586.1196289.7041016.1196289c.2641602,0,.4990234-.0410156.7041016-.1230469s.3759766-.222168.5126953-.4204102.2402344-.4648438.3110352-.7998047.105957-.7553711.105957-1.2612305c0-.496582-.0341797-.9091797-.1025391-1.2373047s-.168457-.590332-.3007812-.7861328-.2998047-.3339844-.5024414-.4135742-.4365234-.1196289-.7006836-.1196289c-.269043,0-.5048828.0410156-.7075195.1230469s-.3725586.222168-.5092773.4204102-.2402344.4648438-.3110352.7998047-.105957.7553711-.105957,1.2612305Z"/>
        <path class="cls-2" d="m33.2792969,96.6801758h-3.3496094v-.546875h1.0253906v-4.7304688h-1.0253906v-.546875h2.2558594v1.0595703h.0273438c.0820312-.1777344.1835938-.3408203.3041992-.4887695s.2539062-.2768555.3999023-.3862305.3007812-.1938477.4648438-.2529297.3305664-.0888672.4990234-.0888672c.2734375,0,.4990234.0795898.6767578.2392578s.2666016.3803711.2666016.6630859c0,.2504883-.0683594.4453125-.2050781.5844727s-.3144531.2084961-.5332031.2084961c-.2280273,0-.4023438-.065918-.5229492-.1982422s-.1811523-.2983398-.1811523-.4990234c0-.1049805.0205078-.21875.0615234-.3417969-.1777344.0639648-.3427734.1650391-.4956055.3041992s-.2861328.3134766-.3999023.5229492-.2026367.4521484-.2666016.7280273-.0957031.5820312-.0957031.9194336v2.3037109h1.09375v.546875Z"/>
        <path class="cls-2" d="m40.8740234,94.8276367c-.1459961.6606445-.4282227,1.1665039-.8476562,1.5175781s-.9638672.5263672-1.6337891.5263672c-.4604492,0-.8706055-.0810547-1.2304688-.2426758s-.6655273-.3818359-.9160156-.659668-.4418945-.6025391-.5742188-.9741211-.1982422-.7666016-.1982422-1.1860352c0-.4282227.0683594-.8339844.2050781-1.2167969s.331543-.715332.5844727-.9980469.5561523-.5068359.9091797-.6733398.7485352-.2495117,1.1860352-.2495117c.4008789,0,.7612305.0708008,1.0800781.2119141s.590332.3383789.8134766.5913086.3955078.5546875.5161133.9057617.1855469.7358398.1948242,1.1552734h-4.1220703c-.0043945.0776367-.0068359.1289062-.0068359.1538086v.0444336c0,.5375977.0400391.9750977.1196289,1.3125s.1914062.6005859.3349609.7895508.3144531.3178711.5126953.3862305.4179688.1025391.659668.1025391c.2231445,0,.434082-.0297852.6323242-.0888672s.3769531-.1538086.5366211-.2836914.2998047-.2983398.4204102-.5058594.2177734-.4570312.2905273-.7485352c.0913086.0092773.1821289.0249023.2734375.0478516s.1777344.050293.2597656.0820312Zm-1.2919922-1.8251953c-.0136719-.378418-.0537109-.6845703-.1196289-.9194336s-.1538086-.4179688-.2631836-.550293-.2382812-.222168-.3862305-.2700195-.3110352-.0717773-.4887695-.0717773c-.1870117,0-.3613281.0273438-.5229492.0820312s-.3066406.1503906-.434082.2871094-.2333984.3212891-.3178711.5537109-.1425781.5288086-.1743164.8886719h2.7070312Z"/>
        <path class="cls-2" d="m46.0625,92.7905273c-.0229492-.2963867-.0717773-.546875-.1469727-.7519531s-.1767578-.371582-.3041992-.4990234-.28125-.2197266-.4614258-.2768555-.3862305-.0854492-.6186523-.0854492c-.1777344,0-.3417969.0170898-.4921875.0512695s-.2802734.0864258-.3896484.1572266-.1948242.1630859-.2563477.2768555-.0922852.2504883-.0922852.4101562.0283203.2905273.0854492.3930664.1503906.1938477.2802734.2734375.2963867.15625.4990234.2290039.4521484.159668.7485352.2597656c.2368164.0820312.4716797.168457.7041016.2597656s.440918.2050781.6254883.3417969.3339844.3017578.4477539.4956055.1708984.4296875.1708984.7075195c0,.3144531-.0708008.5878906-.2119141.8203125s-.328125.4238281-.5605469.5742188-.496582.262207-.7929688.3349609-.5991211.109375-.9091797.109375c-.1640625,0-.3383789-.0092773-.5229492-.0273438s-.3666992-.043457-.546875-.0751953-.3510742-.0693359-.5126953-.112793-.3041992-.0878906-.4272461-.1333008l-.0478516-1.9824219h.4716797c.0229492.3461914.0717773.6367188.1469727.871582s.1801758.4228516.3144531.5639648.2983398.2416992.4921875.3007812.4204102.0888672.6801758.0888672c.1958008,0,.3769531-.0170898.543457-.0512695s.3110352-.0888672.434082-.1640625.2197266-.1743164.2905273-.2973633.105957-.2709961.105957-.4443359c0-.1503906-.0273438-.2744141-.0820312-.3725586s-.1411133-.1855469-.2597656-.2631836-.2709961-.1503906-.4580078-.21875-.4101562-.1479492-.6699219-.2392578-.5092773-.1855469-.7485352-.2836914-.4501953-.2163086-.6323242-.3554688-.328125-.3066406-.4375-.5024414-.1640625-.4350586-.1640625-.7177734c0-.3100586.0639648-.5776367.1914062-.8032227s.2973633-.4111328.5092773-.5571289.4555664-.2529297.7314453-.3212891.5615234-.1025391.8579102-.1025391c.1503906,0,.3076172.0078125.4716797.0239258s.3271484.0375977.4887695.0649414.3168945.0581055.4648438.0922852.2836914.0673828.4067383.0991211l.0478516,1.8388672h-.4648438Z"/>
        <path class="cls-2" d="m52.0986328,95.3129883c-.1230469.5332031-.3256836.9262695-.6083984,1.1791992s-.6723633.3793945-1.1689453.3793945c-.2597656,0-.4931641-.0317383-.7006836-.0957031s-.3837891-.1650391-.5297852-.3041992-.2573242-.3168945-.3349609-.5332031-.1162109-.4794922-.1162109-.7895508v-3.7460938h-1.0253906v-.546875h1.0253906v-1.3261719l1.2304688-.2050781v1.53125h1.7773438v.546875h-1.7773438v3.8964844c0,.1870117.0170898.3393555.0512695.4580078s.0830078.2119141.1469727.2802734.1391602.1152344.2255859.1401367.1845703.0375977.2939453.0375977c.1459961,0,.2709961-.0214844.3759766-.0649414s.1972656-.109375.2768555-.1982422.1479492-.1992188.2050781-.331543.1103516-.284668.1606445-.4580078c.0864258.0136719.1708984.0317383.2529297.0546875s.1616211.0546875.2392578.0957031Z"/>
        <path class="cls-2" d="m62.3251953,96.6801758c-.1914062.0366211-.3691406.059082-.5332031.0683594s-.2939453.0136719-.3896484.0136719c-.2416992,0-.440918-.0195312-.5981445-.0581055s-.28125-.0947266-.3725586-.1674805-.1572266-.1616211-.1982422-.2666016-.065918-.2211914-.0751953-.3486328h-.0341797c-.1274414.1777344-.2641602.328125-.4101562.4511719s-.2983398.2211914-.4580078.2939453-.3222656.1254883-.4887695.1572266-.3339844.0478516-.5024414.0478516c-.277832,0-.5263672-.0375977-.7451172-.112793s-.4033203-.1811523-.5537109-.3178711-.2641602-.2998047-.3417969-.4887695-.1162109-.3974609-.1162109-.6254883c0-.6333008.3110352-1.1152344.9331055-1.4458008s1.5185547-.5068359,2.6899414-.5297852c.0043945-.2050781.0078125-.3896484.0102539-.5537109s.003418-.3256836.003418-.4853516c0-.4145508-.0854492-.7050781-.2563477-.871582s-.440918-.2495117-.8100586-.2495117c-.2460938,0-.4658203.0273438-.659668.0820312s-.3520508.1274414-.4750977.21875c.109375.1049805.1904297.215332.2426758.331543s.0786133.2314453.0786133.3452148c0,.1914062-.0615234.3510742-.1845703.4785156s-.2915039.1914062-.5058594.1914062c-.0913086,0-.1801758-.0136719-.2666016-.0410156s-.1616211-.0708008-.2255859-.1298828-.1152344-.1333008-.1538086-.222168-.0581055-.1923828-.0581055-.3110352c0-.1870117.0512695-.3681641.1538086-.543457s.2553711-.331543.4580078-.4682617.4555664-.2460938.7587891-.328125.6572266-.1230469,1.0629883-.1230469c.328125,0,.6186523.0317383.871582.0957031s.4672852.1699219.6425781.3178711.3076172.3452148.3964844.5913086.1333008.5512695.1333008.9160156c0,.0913086-.0009766.2402344-.003418.4477539s-.0058594.4365234-.0102539.6870117-.0078125.5048828-.0102539.762207-.003418.484375-.003418.6801758c0,.2006836.0043945.3681641.0136719.5024414s.0317383.2416992.0683594.3212891.0913086.1367188.1640625.1708984.175293.0512695.3076172.0512695c.1137695,0,.2641602-.0136719.4511719-.0410156v.5058594Zm-2.1943359-2.8164062c-.496582.0136719-.8979492.0512695-1.203125.112793s-.5424805.1479492-.7109375.2597656-.2827148.2470703-.3417969.4067383-.0888672.3417969-.0888672.546875c0,.3554688.0742188.6210938.222168.7963867s.3520508.2631836.6118164.2631836c.1411133,0,.2998047-.0297852.4750977-.0888672s.3408203-.15625.4956055-.2905273.2836914-.3110352.3862305-.5297852.1538086-.4897461.1538086-.8134766v-.6630859Z"/>
        <path class="cls-2" d="m65.2646484,96.1333008h.9228516v.546875h-3.1787109v-.546875h1.0253906v-4.7304688h-1.0253906v-.546875h2.2558594v.9912109h.0273438c.1870117-.378418.4375-.6689453.7519531-.871582s.7202148-.3041992,1.2167969-.3041992c.6245117,0,1.0893555.1606445,1.3945312.4819336s.4580078.7802734.4580078,1.3774414v3.6025391h.9912109v.546875h-3.1445312v-.546875h.9228516v-3.7939453c0-.3598633-.0844727-.6254883-.2529297-.7963867s-.4057617-.2563477-.7109375-.2563477c-.2324219,0-.4487305.0488281-.6494141.1469727s-.375.2495117-.5229492.4545898-.265625.4672852-.3520508.7861328-.1298828.6972656-.1298828,1.1347656v2.3242188Z"/>
        <path class="cls-2" d="m76.796875,96.1333008h1.0253906v.546875h-2.2558594v-.8271484h-.0273438c-.1186523.1958008-.2470703.3588867-.3862305.4887695s-.2861328.2348633-.440918.3144531-.3168945.1357422-.4853516.1674805-.3393555.0478516-.5126953.0478516c-.4331055,0-.8178711-.0810547-1.1552734-.2426758s-.6220703-.3803711-.8544922-.65625-.4091797-.5981445-.5297852-.9672852-.1811523-.7631836-.1811523-1.1826172c0-.4375.065918-.8486328.1982422-1.2338867s.3203125-.71875.5639648-1.0014648.5356445-.5058594.875-.6699219.7167969-.2460938,1.1313477-.2460938c.4008789,0,.7519531.0830078,1.0527344.2495117s.5424805.3999023.7246094.7006836h.0273438v-4.3271484h-1.09375v-.546875h2.3242188v9.3857422Zm-4.4501953-2.3515625c0,.5195312.0366211.9443359.109375,1.2749023s.175293.590332.3076172.7792969.2905273.3188477.4750977.3896484.3862305.105957.6049805.105957c.3461914,0,.6298828-.0751953.8510742-.2255859s.3964844-.3486328.5263672-.5947266.2197266-.5253906.2700195-.8374023.0751953-.6298828.0751953-.9536133c0-.4648438-.0419922-.8579102-.1264648-1.1791992s-.2016602-.5800781-.3520508-.7758789-.3291016-.3374023-.5366211-.4238281-.434082-.1298828-.6801758-.1298828c-.21875,0-.4213867.0341797-.6083984.1025391s-.3486328.1972656-.4853516.3862305-.2426758.4501953-.3178711.7827148-.112793.765625-.112793,1.2988281Z"/>
        <path class="cls-2" d="m84.3847656,96.1333008h1.0253906v.546875h-3.28125v-.546875h1.0253906v-8.8388672h-1.0253906v-.546875h2.2558594v9.3857422Z"/>
        <path class="cls-2" d="m92.1162109,96.6801758c-.1914062.0366211-.3691406.059082-.5332031.0683594s-.2939453.0136719-.3896484.0136719c-.2416992,0-.440918-.0195312-.5981445-.0581055s-.28125-.0947266-.3725586-.1674805-.1572266-.1616211-.1982422-.2666016-.065918-.2211914-.0751953-.3486328h-.0341797c-.1274414.1777344-.2641602.328125-.4101562.4511719s-.2983398.2211914-.4580078.2939453-.3222656.1254883-.4887695.1572266-.3339844.0478516-.5024414.0478516c-.277832,0-.5263672-.0375977-.7451172-.112793s-.4033203-.1811523-.5537109-.3178711-.2641602-.2998047-.3417969-.4887695-.1162109-.3974609-.1162109-.6254883c0-.6333008.3110352-1.1152344.9331055-1.4458008s1.5185547-.5068359,2.6899414-.5297852c.0043945-.2050781.0078125-.3896484.0102539-.5537109s.003418-.3256836.003418-.4853516c0-.4145508-.0854492-.7050781-.2563477-.871582s-.440918-.2495117-.8100586-.2495117c-.2460938,0-.4658203.0273438-.659668.0820312s-.3520508.1274414-.4750977.21875c.109375.1049805.1904297.215332.2426758.331543s.0786133.2314453.0786133.3452148c0,.1914062-.0615234.3510742-.1845703.4785156s-.2915039.1914062-.5058594.1914062c-.0913086,0-.1801758-.0136719-.2666016-.0410156s-.1616211-.0708008-.2255859-.1298828-.1152344-.1333008-.1538086-.222168-.0581055-.1923828-.0581055-.3110352c0-.1870117.0512695-.3681641.1538086-.543457s.2553711-.331543.4580078-.4682617.4555664-.2460938.7587891-.328125.6572266-.1230469,1.0629883-.1230469c.328125,0,.6186523.0317383.871582.0957031s.4672852.1699219.6425781.3178711.3076172.3452148.3964844.5913086.1333008.5512695.1333008.9160156c0,.0913086-.0009766.2402344-.003418.4477539s-.0058594.4365234-.0102539.6870117-.0078125.5048828-.0102539.762207-.003418.484375-.003418.6801758c0,.2006836.0043945.3681641.0136719.5024414s.0317383.2416992.0683594.3212891.0913086.1367188.1640625.1708984.175293.0512695.3076172.0512695c.1137695,0,.2641602-.0136719.4511719-.0410156v.5058594Zm-2.1943359-2.8164062c-.496582.0136719-.8979492.0512695-1.203125.112793s-.5424805.1479492-.7109375.2597656-.2827148.2470703-.3417969.4067383-.0888672.3417969-.0888672.546875c0,.3554688.0742188.6210938.222168.7963867s.3520508.2631836.6118164.2631836c.1411133,0,.2998047-.0297852.4750977-.0888672s.3408203-.15625.4956055-.2905273.2836914-.3110352.3862305-.5297852.1538086-.4897461.1538086-.8134766v-.6630859Z"/>
        <path class="cls-2" d="m95.0214844,96.1333008h.9912109v.546875h-3.2470703v-.546875h1.0253906v-8.8388672h-1.0253906v-.546875h2.2558594v9.3857422Zm.3007812-2.625l2.0644531-2.1054688h-1.0048828v-.546875h3.1103516v.546875h-1.3671875l-1.6064453,1.6816406,2.6523438,3.0488281h.8339844v.546875h-3.3154297v-.546875h.9228516l-2.2900391-2.625Z"/>
        <path class="cls-2" d="m106.0546875,94.8276367c-.1459961.6606445-.4282227,1.1665039-.8476562,1.5175781s-.9638672.5263672-1.6337891.5263672c-.4604492,0-.8706055-.0810547-1.2304688-.2426758s-.6655273-.3818359-.9160156-.659668-.4418945-.6025391-.5742188-.9741211-.1982422-.7666016-.1982422-1.1860352c0-.4282227.0683594-.8339844.2050781-1.2167969s.331543-.715332.5844727-.9980469.5561523-.5068359.9091797-.6733398.7485352-.2495117,1.1860352-.2495117c.4008789,0,.7612305.0708008,1.0800781.2119141s.590332.3383789.8134766.5913086.3955078.5546875.5161133.9057617.1855469.7358398.1948242,1.1552734h-4.1220703c-.0043945.0776367-.0068359.1289062-.0068359.1538086v.0444336c0,.5375977.0400391.9750977.1196289,1.3125s.1914062.6005859.3349609.7895508.3144531.3178711.5126953.3862305.4179688.1025391.659668.1025391c.2231445,0,.434082-.0297852.6323242-.0888672s.3769531-.1538086.5366211-.2836914.2998047-.2983398.4204102-.5058594.2177734-.4570312.2905273-.7485352c.0913086.0092773.1821289.0249023.2734375.0478516s.1777344.050293.2597656.0820312Zm-1.2919922-1.8251953c-.0136719-.378418-.0537109-.6845703-.1196289-.9194336s-.1538086-.4179688-.2631836-.550293-.2382812-.222168-.3862305-.2700195-.3110352-.0717773-.4887695-.0717773c-.1870117,0-.3613281.0273438-.5229492.0820312s-.3066406.1503906-.434082.2871094-.2333984.3212891-.3178711.5537109-.1425781.5288086-.1743164.8886719h2.7070312Z"/>
        <path class="cls-2" d="m37.6611328,111.5244141h-.9570312v-9.3857422h-1.0253906v-.546875h2.2558594v4.8740234h.0273438c.2006836-.3237305.4614258-.5629883.7827148-.7177734s.6708984-.2324219,1.0493164-.2324219c.3964844,0,.7597656.0727539,1.090332.21875s.6162109.3520508.8579102.6186523.4296875.5888672.5639648.9672852.2016602.7973633.2016602,1.2578125c0,.487793-.0742188.925293-.222168,1.3125s-.3476562.715332-.5981445.984375-.5424805.4760742-.875.6220703-.6835938.21875-1.0527344.21875-.7099609-.0810547-1.0219727-.2426758-.5708008-.4204102-.7758789-.7758789h-.0410156l-.2597656.8271484Zm3.4931641-2.9257812c0-.5195312-.0366211-.9443359-.109375-1.2749023s-.1767578-.590332-.3110352-.7792969-.2949219-.3178711-.4819336-.3862305-.394043-.1025391-.6220703-.1025391c-.3100586,0-.5717773.059082-.7861328.1777344s-.3886719.2871094-.5229492.5058594-.2324219.4819336-.2939453.7895508-.0922852.652832-.0922852,1.0356445c0,.3920898.0283203.7290039.0854492,1.0117188s.1308594.5205078.222168.7143555.1972656.3486328.3178711.4648438.2436523.2050781.3691406.2666016.2504883.1025391.3759766.1230469.2382812.0307617.3383789.0307617c.21875,0,.4204102-.0341797.6049805-.1025391s.3442383-.1972656.4785156-.3862305.2392578-.4511719.3144531-.7861328.112793-.769043.112793-1.3022461Z"/>
        <path class="cls-2" d="m45.6865234,110.9775391h1.0253906v.546875h-3.28125v-.546875h1.0253906v-8.8388672h-1.0253906v-.546875h2.2558594v9.3857422Z"/>
        <path class="cls-2" d="m47.6347656,108.6669922c0-.4282227.0673828-.8339844.2016602-1.2167969s.331543-.7177734.5913086-1.0048828.5776367-.5136719.9536133-.6801758.8032227-.2495117,1.2817383-.2495117c.4741211,0,.8930664.0810547,1.2578125.2426758s.6699219.3818359.9160156.659668.4316406.6015625.5571289.9707031.1879883.7612305.1879883,1.1757812c0,.4282227-.0673828.8339844-.2016602,1.2167969s-.331543.7177734-.5913086,1.0048828-.5776367.5136719-.9536133.6801758-.8032227.2495117-1.2817383.2495117c-.4741211,0-.8930664-.0810547-1.2578125-.2426758s-.6699219-.3818359-.9160156-.659668-.4316406-.6015625-.5571289-.9707031-.1879883-.7612305-.1879883-1.1757812Zm1.3535156-.0273438c0,.496582.0341797.9091797.1025391,1.2373047s.168457.590332.3007812.7861328.2983398.3339844.4990234.4135742.4350586.1196289.7041016.1196289c.2641602,0,.4990234-.0410156.7041016-.1230469s.3759766-.222168.5126953-.4204102.2402344-.4648438.3110352-.7998047.105957-.7553711.105957-1.2612305c0-.496582-.0341797-.9091797-.1025391-1.2373047s-.168457-.590332-.3007812-.7861328-.2998047-.3339844-.5024414-.4135742-.4365234-.1196289-.7006836-.1196289c-.269043,0-.5048828.0410156-.7075195.1230469s-.3725586.222168-.5092773.4204102-.2402344.4648438-.3110352.7998047-.105957.7553711-.105957,1.2612305Z"/>
        <path class="cls-2" d="m60.1308594,109.6308594c-.1503906.6879883-.4316406,1.2075195-.8442383,1.5585938s-.9467773.5263672-1.6030273.5263672c-.4555664,0-.8647461-.0810547-1.2270508-.2426758s-.6699219-.3818359-.9228516-.659668-.4477539-.6015625-.5844727-.9707031-.2050781-.7612305-.2050781-1.1757812c0-.4331055.0717773-.8408203.215332-1.2236328s.3476562-.7167969.6118164-1.0014648.5820312-.5102539.9536133-.6767578.7851562-.2495117,1.2407227-.2495117c.3237305,0,.6210938.0419922.8920898.1264648s.5048828.1972656.7006836.3383789.3486328.3051758.4580078.4921875.1640625.3828125.1640625.5878906c0,.1459961-.0249023.2675781-.0751953.3657227s-.112793.1767578-.1879883.2358398-.1582031.1025391-.2495117.1298828-.1777344.0410156-.2597656.0410156c-.2231445,0-.3999023-.0708008-.5297852-.2119141s-.1948242-.3100586-.1948242-.5058594c0-.1186523.0297852-.2460938.0888672-.3828125s.1503906-.2641602.2734375-.3828125c-.1547852-.1230469-.3339844-.2060547-.5366211-.2495117s-.3886719-.0649414-.5571289-.0649414c-.2143555,0-.4204102.0283203-.6186523.0854492s-.3735352.1777344-.5263672.3623047-.2744141.4477539-.3657227.7895508-.1367188.7973633-.1367188,1.3671875c0,.5288086.0419922.9570312.1264648,1.2851562s.2006836.5844727.3486328.769043.3222656.3100586.5229492.3759766.4194336.0991211.65625.0991211c.2143555,0,.4169922-.0297852.6083984-.0888672s.3657227-.1538086.5229492-.2836914.2963867-.3007812.4169922-.5126953.2177734-.4726562.2905273-.7827148c.0913086.0092773.1821289.0249023.2734375.0478516s.1777344.050293.2597656.0820312Z"/>
        <path class="cls-2" d="m63.2070312,110.9775391h.9912109v.546875h-3.2470703v-.546875h1.0253906v-8.8388672h-1.0253906v-.546875h2.2558594v9.3857422Zm.3007812-2.625l2.0644531-2.1054688h-1.0048828v-.546875h3.1103516v.546875h-1.3671875l-1.6064453,1.6816406,2.6523438,3.0488281h.8339844v.546875h-3.3154297v-.546875h.9228516l-2.2900391-2.625Z"/>
        <path class="cls-2" d="m75.1630859,103.6630859v7.3144531h1.5039062v.546875h-4.2724609v-.546875h1.5039062v-6.7675781h-1.640625v-.546875h2.9052734Z"/>
        <path class="cls-2" d="m82.3066406,106.28125c.2368164.1230469.4794922.2631836.7280273.4204102s.4726562.3393555.6733398.546875.3647461.4477539.4921875.7211914.1914062.5878906.1914062.9433594c0,.4057617-.0854492.7792969-.2563477,1.1210938s-.4067383.6381836-.7075195.8886719-.6552734.4467773-1.0629883.5878906-.8466797.2119141-1.315918.2119141c-.4194336,0-.8237305-.0581055-1.2133789-.1743164s-.7324219-.2836914-1.0288086-.5024414-.5332031-.487793-.7109375-.8066406-.2666016-.6835938-.2666016-1.09375c0-.5332031.1650391-1.0117188.4956055-1.4355469s.8349609-.8203125,1.5141602-1.1894531v-.0478516c-.2231445-.1186523-.440918-.2553711-.652832-.4101562s-.3999023-.331543-.5639648-.5297852-.2963867-.4213867-.3964844-.6699219-.1503906-.5273438-.1503906-.8374023c0-.3920898.0830078-.7426758.2495117-1.0527344s.3920898-.5732422.6767578-.7895508.6176758-.3828125.9980469-.4990234.7827148-.1743164,1.206543-.1743164c.4467773,0,.8476562.0605469,1.203125.1811523s.6572266.2861328.9057617.4956055.4384766.4536133.5708008.7314453.1982422.5742188.1982422.8886719c0,.4785156-.152832.9194336-.4580078,1.3227539s-.7451172.7758789-1.3193359,1.1176758v.0341797Zm-1.8935547.5332031c-.5014648.2504883-.8793945.5629883-1.1347656.9365234s-.3828125.8041992-.3828125,1.2919922c0,.328125.0571289.6245117.1708984.8886719s.2700195.4887695.4682617.6733398.434082.3271484.7075195.4272461.5717773.1503906.8955078.1503906c.2827148,0,.550293-.0400391.8032227-.1196289s.4750977-.1948242.6665039-.3452148.3427734-.3349609.4545898-.5537109.1674805-.4672852.1674805-.7451172c0-.3144531-.0673828-.5878906-.2016602-.8203125s-.324707-.4453125-.5708008-.6391602-.5424805-.3803711-.8886719-.5605469-.7314453-.375-1.1552734-.5844727Zm1.2919922-.8476562c.4648438-.2504883.8339844-.5527344,1.1074219-.9057617s.4101562-.7597656.4101562-1.2202148c0-.269043-.0488281-.5136719-.1469727-.7348633s-.2358398-.4101562-.4135742-.5673828-.3920898-.2792969-.6425781-.3657227-.5307617-.1298828-.8408203-.1298828c-.2504883,0-.4956055.0307617-.7348633.0922852s-.4511719.1572266-.6357422.2871094-.3339844.2939453-.4477539.4921875-.1708984.4365234-.1708984.7143555c0,.2597656.050293.487793.1503906.6835938s.2539062.3803711.4614258.5537109.4682617.3461914.7827148.5195312.6879883.3666992,1.1210938.5810547Z"/>
      </g>
      <rect class="cls-6" width="120" height="120"/>
    </g>
  </g>
</svg>