<?xml version="1.0" encoding="UTF-8"?>
<svg id="_レイヤー_2" data-name="レイヤー 2" xmlns="http://www.w3.org/2000/svg" xmlns:xlink="http://www.w3.org/1999/xlink" viewBox="0 0 671.4961629 96.0760726">
  <defs>
    <style>
      .cls-1 {
        fill: #286f7c;
      }

      .cls-1, .cls-2, .cls-3, .cls-4, .cls-5, .cls-6 {
        stroke-width: 0px;
      }

      .cls-2 {
        fill: #231815;
      }

      .cls-3 {
        fill: url(#_ゴールド);
      }

      .cls-4 {
        fill: #7d4822;
      }

      .cls-5 {
        fill: url(#_ゴールド-2);
      }

      .cls-6 {
        fill: #c49d80;
      }

      .cls-7 {
        fill: none;
        stroke: #231815;
        stroke-miterlimit: 10;
        stroke-width: .801624px;
      }
    </style>
    <linearGradient id="_ゴールド" data-name="ゴールド" x1="282.6657425" y1="13.763259" x2="559.5501301" y2="13.763259" gradientUnits="userSpaceOnUse">
      <stop offset=".005618" stop-color="#fbcf00"/>
      <stop offset=".252809" stop-color="#fffcd1"/>
      <stop offset=".2956658" stop-color="#faf3bf"/>
      <stop offset=".3808509" stop-color="#eedd92"/>
      <stop offset=".4990769" stop-color="#dbba4b"/>
      <stop offset=".595506" stop-color="#cb9b0c"/>
      <stop offset=".7957031" stop-color="#e7cd67"/>
      <stop offset=".870786" stop-color="#f3e18b"/>
      <stop offset="1" stop-color="#fffcd1"/>
    </linearGradient>
    <linearGradient id="_ゴールド-2" data-name="ゴールド" x1="-59.9087158" y1="-118.3142965" x2="91.9189025" y2="33.5133219" xlink:href="#_ゴールド"/>
  </defs>
  <g id="planning">
    <g>
      <polyline class="cls-7" points="0 40.316513 325.0293059 40.316513 333.5847562 93.5501414 342.1402065 40.316513 671.4961629 40.316513"/>
      <g>
        <rect class="cls-3" x="282.6657425" y="9.7152417" width="276.8843876" height="8.0960347"/>
        <g>
          <path class="cls-1" d="m130.3066752,16.5662905h-5.9013672l-.1621094-.3564453c.3017578-.8320312.6855469-1.5888672,1.1503906-2.2705078.4648438-.6806641,1.0869141-1.4912109,1.8652344-2.4316406.7880859-.9179688,1.3613281-1.6777344,1.7177734-2.2773438.3574219-.6005859.5351562-1.2138672.5351562-1.8408203,0-.5839844-.1621094-1.0966797-.4863281-1.5400391s-.8320312-.6650391-1.5234375-.6650391c-.5087891,0-.9404297.1269531-1.2978516.3808594-.3564453.2548828-.5351562.5654297-.5351562.9326172,0,.140625.0195312.2597656.0576172.3564453.0371094.0976562.0996094.2060547.1865234.3242188.0751953.1191406.1318359.2246094.1699219.3164062s.0566406.203125.0566406.3320312c0,.2597656-.078125.4677734-.2353516.625-.15625.15625-.359375.234375-.6074219.234375-.2167969,0-.4140625-.1054688-.5917969-.3154297-.1787109-.2109375-.2675781-.5-.2675781-.8681641,0-.3994141.1210938-.8212891.3642578-1.2646484.2431641-.4423828.6103516-.8183594,1.1025391-1.1259766.4921875-.3085938,1.0947266-.4628906,1.8076172-.4628906.7783203,0,1.4052734.1542969,1.8808594.4628906.4755859.3076172.8134766.6914062,1.0136719,1.1503906.2001953.4599609.2998047.9384766.2998047,1.4355469,0,.453125-.0761719.8505859-.2265625,1.1914062-.1523438.3408203-.3574219.6542969-.6162109.9404297-.2597656.2861328-.6484375.6669922-1.1679688,1.1425781-.1191406.1191406-.2695312.2597656-.4541016.421875-.1835938.1621094-.3945312.3623047-.6318359.5996094-1.0810547,1.0917969-1.8916016,2.2216797-2.4316406,3.3886719h1.9287109c.7890625,0,1.3789062-.0458984,1.7675781-.1376953s.6835938-.2568359.8837891-.4941406c.1992188-.2382812.3974609-.6220703.5917969-1.1513672.0214844-.0654297.0585938-.0976562.1132812-.0976562.0107422,0,.0595703.0107422.1455078.0322266.0654297.0224609.1142578.0439453.1464844.0654297s.0488281.0537109.0488281.0966797l-.0166016.0810547-.6806641,2.7890625Z"/>
          <path class="cls-2" d="m133.061558,18.2528139c-.0214844-.0332031-.0322266-.0595703-.0322266-.0810547,0-.0224609.0107422-.0439453.0322266-.0654297.1953125-.1728516.34375-.3457031.4462891-.5185547s.1542969-.3242188.1542969-.4541016c0-.1728516-.0703125-.296875-.2109375-.3730469-.1845703-.0859375-.3271484-.1894531-.4296875-.3076172-.1025391-.1191406-.1542969-.2753906-.1542969-.4707031,0-.2587891.0869141-.4755859.2597656-.6484375s.3837891-.2587891.6318359-.2587891c.2490234,0,.4599609.0888672.6328125.2675781.1728516.1777344.2587891.4023438.2587891.6728516,0,.4970703-.1484375.9453125-.4453125,1.3457031-.2978516.3994141-.6357422.7070312-1.0136719.9238281l-.0488281.015625c-.0322266,0-.0595703-.015625-.0810547-.0478516Z"/>
          <path class="cls-1" d="m155.8408549,13.9071108h-1.8320312v1.6054688c0,.2373047.1025391.3945312.3085938.4697266.2050781.0761719.4755859.1142578.8105469.1142578h.2109375c.0966797,0,.1455078.0751953.1455078.2265625,0,.1621094-.0488281.2431641-.1455078.2431641h-3.8916016c-.0869141,0-.1298828-.0810547-.1298828-.2431641,0-.1513672.0429688-.2265625.1298828-.2265625h.2109375c.3349609,0,.6054688-.0380859.8105469-.1142578.2050781-.0751953.3076172-.2324219.3076172-.4697266v-1.6054688h-4.3613281v-.6806641l4.9453125-8.5771484.6484375.1464844v8.4306641h1.8320312v.6806641Zm-3.0644531-6.90625l-3.5830078,6.2255859h3.5830078v-6.2255859Z"/>
          <path class="cls-2" d="m157.4297221,18.2528139c-.0214844-.0332031-.0322266-.0595703-.0322266-.0810547,0-.0224609.0107422-.0439453.0322266-.0654297.1953125-.1728516.34375-.3457031.4462891-.5185547s.1542969-.3242188.1542969-.4541016c0-.1728516-.0703125-.296875-.2109375-.3730469-.1845703-.0859375-.3271484-.1894531-.4296875-.3076172-.1025391-.1191406-.1542969-.2753906-.1542969-.4707031,0-.2587891.0869141-.4755859.2597656-.6484375s.3837891-.2587891.6318359-.2587891c.2490234,0,.4599609.0888672.6328125.2675781.1728516.1777344.2587891.4023438.2587891.6728516,0,.4970703-.1484375.9453125-.4453125,1.3457031-.2978516.3994141-.6357422.7070312-1.0136719.9238281l-.0488281.015625c-.0322266,0-.0595703-.015625-.0810547-.0478516Z"/>
          <path class="cls-4" d="m178.2637065,5.2821108c.5615234.4111328,1,.9863281,1.3134766,1.7265625s.4697266,1.5917969.4697266,2.5537109c0,1.5458984-.2158203,2.8671875-.6484375,3.9638672-.4326172,1.0976562-.9755859,1.9189453-1.6289062,2.4648438-.6542969.5458984-1.2949219.8183594-1.921875.8183594-.4970703,0-.9267578-.0732422-1.2890625-.21875-.3623047-.1464844-.6347656-.3378906-.8183594-.5751953-.1835938-.2382812-.2753906-.4873047-.2753906-.7460938,0-.2275391.078125-.4189453.234375-.5761719.1572266-.15625.34375-.234375.5595703-.234375.2275391,0,.4267578.0996094.6005859.2998047.171875.2001953.2695312.4619141.2910156.7861328.0214844.2490234.0869141.4326172.1953125.5517578.1074219.1181641.2861328.1777344.5341797.1777344.5625,0,1.0380859-.2939453,1.4267578-.8837891.3896484-.5888672.6865234-1.3125.8925781-2.171875.2050781-.859375.3398438-1.7216797.4052734-2.5859375-.3242188.5292969-.7246094.9296875-1.2001953,1.1992188-.4755859.2705078-.9677734.4052734-1.4755859.4052734-.6269531,0-1.1669922-.1591797-1.6210938-.4785156-.4541016-.3183594-.7998047-.7373047-1.0371094-1.2558594-.2382812-.5185547-.3574219-1.0751953-.3574219-1.6699219,0-.7460938.1435547-1.4375.4296875-2.0751953s.6914062-1.1455078,1.2158203-1.5244141c.5244141-.3779297,1.1269531-.5673828,1.8085938-.5673828.7021484,0,1.3339844.2050781,1.8964844.6162109Zm-.5595703,5.7148438c.4267578-.3183594.7382812-.8134766.9326172-1.4833984-.0107422-1.2001953-.1699219-2.2050781-.4785156-3.015625-.3076172-.8105469-.9052734-1.2158203-1.7910156-1.2158203-.4003906,0-.7539062.1455078-1.0625.4375-.3076172.2919922-.5488281.6923828-.7216797,1.2001953s-.2587891,1.0751953-.2587891,1.7021484c0,1.1455078.21875,1.9082031.65625,2.2861328s.9101562.5673828,1.4189453.5673828c.4423828,0,.8779297-.1591797,1.3046875-.4785156Z"/>
          <path class="cls-2" d="m182.2676127,18.2528139c-.0214844-.0332031-.0322266-.0595703-.0322266-.0810547,0-.0224609.0107422-.0439453.0322266-.0654297.1953125-.1728516.34375-.3457031.4462891-.5185547s.1542969-.3242188.1542969-.4541016c0-.1728516-.0703125-.296875-.2109375-.3730469-.1845703-.0859375-.3271484-.1894531-.4296875-.3076172-.1025391-.1191406-.1542969-.2753906-.1542969-.4707031,0-.2587891.0869141-.4755859.2597656-.6484375s.3837891-.2587891.6318359-.2587891c.2490234,0,.4599609.0888672.6328125.2675781.1728516.1777344.2587891.4023438.2587891.6728516,0,.4970703-.1484375.9453125-.4453125,1.3457031-.2978516.3994141-.6357422.7070312-1.0136719.9238281l-.0488281.015625c-.0322266,0-.0595703-.015625-.0810547-.0478516Z"/>
          <path class="cls-6" d="m198.6103861,16.5662905c-.0751953,0-.1132812-.0751953-.1132812-.2265625,0-.1621094.0380859-.2431641.1132812-.2431641h.2597656c.5292969,0,.9560547-.0810547,1.2802734-.2431641.3242188-.1630859.4863281-.4160156.4863281-.7626953v-7.765625c0-.3242188-.0292969-.5429688-.0888672-.6572266-.0595703-.1132812-.2001953-.1884766-.421875-.2265625-.2207031-.0380859-.6347656-.0566406-1.2402344-.0566406h-.2753906c-.0751953,0-.1132812-.0810547-.1132812-.2431641,0-.1513672.0380859-.2275391.1132812-.2275391.6806641,0,1.2861328-.0996094,1.8164062-.2998047.5292969-.1992188,1.03125-.5214844,1.5078125-.9648438v10.4414062c0,.6708984.5888672,1.0058594,1.7666016,1.0058594h.2431641c.0429688,0,.0732422.0185547.0898438.0566406.015625.0380859.0244141.0996094.0244141.1865234,0,.1513672-.0380859.2265625-.1142578.2265625h-5.3339844Z"/>
          <path class="cls-6" d="m211.905308,16.5662905h-5.9013672l-.1621094-.3564453c.3017578-.8320312.6855469-1.5888672,1.1503906-2.2705078.4648438-.6806641,1.0869141-1.4912109,1.8652344-2.4316406.7880859-.9179688,1.3613281-1.6777344,1.7177734-2.2773438.3574219-.6005859.5351562-1.2138672.5351562-1.8408203,0-.5839844-.1621094-1.0966797-.4863281-1.5400391s-.8320312-.6650391-1.5234375-.6650391c-.5087891,0-.9404297.1269531-1.2978516.3808594-.3564453.2548828-.5351562.5654297-.5351562.9326172,0,.140625.0195312.2597656.0576172.3564453.0371094.0976562.0996094.2060547.1865234.3242188.0751953.1191406.1318359.2246094.1699219.3164062s.0566406.203125.0566406.3320312c0,.2597656-.078125.4677734-.2353516.625-.15625.15625-.359375.234375-.6074219.234375-.2167969,0-.4140625-.1054688-.5917969-.3154297-.1787109-.2109375-.2675781-.5-.2675781-.8681641,0-.3994141.1210938-.8212891.3642578-1.2646484.2431641-.4423828.6103516-.8183594,1.1025391-1.1259766.4921875-.3085938,1.0947266-.4628906,1.8076172-.4628906.7783203,0,1.4052734.1542969,1.8808594.4628906.4755859.3076172.8134766.6914062,1.0136719,1.1503906.2001953.4599609.2998047.9384766.2998047,1.4355469,0,.453125-.0761719.8505859-.2265625,1.1914062-.1523438.3408203-.3574219.6542969-.6162109.9404297-.2597656.2861328-.6484375.6669922-1.1679688,1.1425781-.1191406.1191406-.2695312.2597656-.4541016.421875-.1835938.1621094-.3945312.3623047-.6318359.5996094-1.0810547,1.0917969-1.8916016,2.2216797-2.4316406,3.3886719h1.9287109c.7890625,0,1.3789062-.0458984,1.7675781-.1376953s.6835938-.2568359.8837891-.4941406c.1992188-.2382812.3974609-.6220703.5917969-1.1513672.0214844-.0654297.0585938-.0976562.1132812-.0976562.0107422,0,.0595703.0107422.1455078.0322266.0654297.0224609.1142578.0439453.1464844.0654297s.0488281.0537109.0488281.0966797l-.0166016.0810547-.6806641,2.7890625Z"/>
          <path class="cls-2" d="m229.5605815,11.8973452c.0214844-.0332031.0595703-.0839844.1132812-.1542969.0546875-.0703125.1035156-.1220703.1464844-.1542969s.0859375-.0488281.1298828-.0488281c.0966797,0,.3017578.1513672.6162109.4541016.3125.3027344.4697266.5136719.4697266.6328125-.140625.140625-.3564453.2158203-.6484375.2265625-.1513672,1.0810547-.3759766,2.0292969-.6728516,2.8457031-.2978516.8164062-.6347656,1.359375-1.0136719,1.6289062-.4433594.3349609-1.0478516.5029297-1.8154297.5029297,0-.3671875-.1132812-.6162109-.3408203-.7460938-.1298828-.0859375-.359375-.1699219-.6884766-.2509766-.3300781-.0810547-.6845703-.1484375-1.0625-.203125l.0166016-.2753906c.1943359.0214844.3564453.0322266.4863281.0322266,1.0800781.1083984,1.7939453.1621094,2.1396484.1621094.1728516,0,.3085938-.0097656.4052734-.0322266.0976562-.0214844.1894531-.0644531.2763672-.1298828.2373047-.1835938.4726562-.6132812.7050781-1.2880859.2324219-.6757812.4238281-1.4677734.5751953-2.3759766h-7.2148438c-.2919922.7138672-.4804688,1.1679688-.5673828,1.3623047-.1298828.0537109-.2587891.0810547-.3886719.0810547-.2060547,0-.4326172-.0488281-.6816406-.1464844.2167969-.3994141.4707031-.9746094.7626953-1.7265625.2919922-.7509766.5234375-1.4179688.6972656-2.0019531h-1.1835938c-.6708984.0107422-1.3837891.0869141-2.140625.2265625l-.4208984-.8427734c.59375.0644531,1.3125.1083984,2.15625.1298828h10.1162109l.3242188-.4863281c.0332031-.0429688.0810547-.1113281.1464844-.203125.0644531-.0917969.1210938-.1621094.1699219-.2109375.0488281-.0478516.0947266-.0722656.1376953-.0722656.0654297,0,.2050781.0839844.421875.2509766.2158203.1679688.4189453.3486328.6083984.5429688.1884766.1943359.2832031.3300781.2832031.4052734-.0322266.1728516-.1679688.2597656-.4052734.2597656h-9.1113281c-.0976562.3027344-.2871094.8105469-.5683594,1.5244141l-.1621094.4375h6.9072266l.2753906-.3564453Zm-.3242188-8.3662109c.0322266-.0429688.0898438-.1162109.1708984-.21875s.1533203-.1542969.21875-.1542969c.0644531,0,.1962891.0761719.3964844.2265625.2001953.1523438.3837891.3164062.5517578.4951172.1669922.1777344.2509766.3056641.2509766.3808594-.0537109.0644531-.140625.1269531-.2587891.1865234-.1191406.0595703-.2548828.1054688-.4052734.1376953v1.296875c.0214844,1.0595703.0537109,1.8867188.0966797,2.4804688-.0644531.0976562-.2021484.1923828-.4130859.2841797s-.3974609.1376953-.5595703.1376953c-.1298828,0-.1943359-.1083984-.1943359-.3242188.0107422-.0322266.0185547-.0673828.0244141-.1054688.0048828-.0380859.0126953-.078125.0244141-.1220703v-.2910156h-7.2314453v.6972656c0,.0644531-.0976562.140625-.2919922.2265625-.1943359.0869141-.3886719.1298828-.5839844.1298828-.0644531,0-.1181641-.0322266-.1621094-.0976562-.0429688-.0644531-.0644531-.140625-.0644531-.2265625.0429688-.4003906.0751953-.9130859.0976562-1.5400391v-.9404297c0-1.2109375-.0595703-2.1728516-.1787109-2.8867188l1.2646484.6005859h6.9882812l.2587891-.3730469Zm-.0966797,3.9560547v-3.1132812h-7.2314453v3.1132812h7.2314453Z"/>
          <path class="cls-2" d="m246.3408549,3.9530092c.0332031-.0546875.0839844-.1269531.1542969-.2197266.0703125-.0917969.1269531-.1621094.1699219-.2099609.0429688-.0488281.0869141-.0732422.1298828-.0732422.0654297,0,.2080078.0839844.4296875.2509766.2216797.1679688.4296875.3486328.6240234.5429688.1953125.1953125.2919922.3300781.2919922.4052734-.0322266.1738281-.1679688.2597656-.4052734.2597656h-10.8955078v11.203125h9.7607422l.3730469-.5185547c.0429688-.0537109.1025391-.1298828.1777344-.2275391.0761719-.0966797.1386719-.1699219.1865234-.21875.0488281-.0478516.0947266-.0722656.1376953-.0722656.0654297,0,.2167969.0888672.4541016.2675781.2382812.1777344.4599609.3701172.6650391.5751953s.3076172.3457031.3076172.421875c-.0429688.1728516-.1777344.2587891-.4052734.2587891h-11.6572266v.2919922c.0107422.1083984.0195312.2050781.0244141.2919922.0058594.0859375.0136719.1455078.0244141.1787109-.0322266.1074219-.1347656.2128906-.3076172.3154297s-.3789062.1542969-.6162109.1542969c-.0869141,0-.1650391-.0351562-.2353516-.1054688s-.1054688-.1435547-.1054688-.21875c.0429688-.6376953.0810547-1.2568359.1132812-1.8564453.0332031-.5996094.0546875-1.3867188.0654297-2.359375v-6.1933594c0-1.3613281-.0703125-2.4697266-.2109375-3.3232422l1.4267578.6650391h8.9980469l.3242188-.4863281Zm-8.4794922,11.3808594l-.1777344-.2265625c.8212891-.5839844,1.6259766-1.2949219,2.4150391-2.1318359.7890625-.8378906,1.5244141-1.7646484,2.2050781-2.78125-1.1132812-1.0585938-2.3994141-2.0371094-3.8583984-2.9345703l.1455078-.2587891c1.6435547.7998047,3.0380859,1.6152344,4.1835938,2.4482422l.5839844-1.0058594c.2587891-.4755859.5019531-1.0019531.7294922-1.5800781.2265625-.578125.3828125-1.0888672.4697266-1.5322266,1.0263672.4755859,1.5400391.7832031,1.5400391.9238281,0,.0546875-.0537109.0976562-.1621094.1298828l-.3076172.0810547c-.5947266,1.3076172-1.2753906,2.5078125-2.0429688,3.5996094.9833984.7998047,1.7021484,1.5429688,2.15625,2.2285156.4541016.6865234.6806641,1.2568359.6806641,1.7109375,0,.1943359-.0400391.3457031-.1210938.4541016-.0810547.1074219-.1865234.1621094-.3164062.1621094-.140625,0-.2919922-.0654297-.4541016-.1943359-.2265625-.5087891-.5537109-1.0703125-.9804688-1.6865234-.4277344-.6162109-.9433594-1.2373047-1.5488281-1.8642578-1.4804688,1.9023438-3.1933594,3.3876953-5.1396484,4.4580078Z"/>
          <path class="cls-2" d="m255.2744486,8.7840639c0,.0429688-.0166016.1132812-.0488281.2109375-.3994141,1.1347656-.7460938,2.2050781-1.0371094,3.2099609-.2919922,1.0048828-.4384766,1.7128906-.4384766,2.1240234,0,.1621094.0488281.5136719.1464844,1.0537109.0859375.4326172.1298828.7080078.1298828.8271484,0,.1513672-.0380859.2783203-.1142578.3808594-.0751953.1025391-.1777344.1542969-.3076172.1542969-.2050781,0-.3671875-.0654297-.4863281-.1953125-.1191406-.1289062-.2597656-.3349609-.421875-.6152344-.3994141-.6494141-.5996094-1.5947266-.5996094-2.8378906,0-.6054688.0566406-1.3291016.1699219-2.1728516.1132812-.8427734.2568359-1.6855469.4296875-2.5283203.0429688-.1953125.0703125-.3349609.0810547-.421875.0761719-.3349609.140625-.6621094.1943359-.9814453.0546875-.3183594.0810547-.5917969.0810547-.8183594,0-.2705078-.0185547-.4697266-.0566406-.5996094s-.1269531-.3193359-.2675781-.5673828c-.0322266-.0654297-.0478516-.1142578-.0478516-.1464844,0-.0429688.0126953-.0810547.0400391-.1132812s.0625-.0488281.1054688-.0488281c.0644531,0,.15625.0488281.2753906.1464844.2597656.2480469.4951172.5429688.7050781.8828125.2109375.3408203.3164062.6679688.3164062.9814453,0,.2158203-.0351562.4433594-.1054688.6806641-.0703125.2382812-.1806641.5566406-.3320312.9570312l-.2275391.6162109c-.1943359.5507812-.3398438,1.1162109-.4375,1.6943359-.0966797.578125-.1455078,1.1152344-.1455078,1.6123047,0,.5947266.0703125.8925781.2109375.8925781.0859375,0,.1914062-.1328125.3154297-.3974609s.3056641-.6943359.5439453-1.2890625c.3564453-.8974609.7294922-1.7675781,1.1181641-2.6103516.0429688-.1083984.0976562-.1621094.1621094-.1621094.0322266,0,.0488281.0273438.0488281.0810547Zm8.6904297,7.0693359c0,.1181641-.0380859.2265625-.1142578.3242188-.0751953.0966797-.1728516.1455078-.2910156.1455078-.140625,0-.2871094-.0507812-.4384766-.1542969-.1513672-.1025391-.3027344-.2207031-.453125-.3564453-.1523438-.1347656-.265625-.2353516-.3408203-.2998047-.2167969-.1835938-.4375-.3408203-.6650391-.4707031-.1513672-.0859375-.2919922-.1621094-.4208984-.2265625-.0332031.6162109-.2382812,1.0966797-.6162109,1.4433594-.3789062.3457031-.9570312.5185547-1.7353516.5185547-.6376953,0-1.1943359-.1435547-1.6699219-.4296875s-.7128906-.7001953-.7128906-1.2402344c0-.6269531.3291016-1.0537109.9882812-1.28125.6591797-.2265625,1.2861328-.3398438,1.8808594-.3398438.3242188,0,.6162109.0214844.8759766.0644531,0-.28125-.0058594-.5673828-.0166016-.859375s-.0214844-.5722656-.0322266-.8427734l-.0644531-2.6269531c-.0976562.0224609-.2431641.0439453-.4384766.0654297-.0751953.0107422-.1943359.015625-.3564453.015625-.4755859,0-.8779297-.0888672-1.2080078-.2675781-.3300781-.1777344-.6347656-.4775391-.9160156-.8994141-.0537109-.0751953-.0810547-.1464844-.0810547-.2109375,0-.0751953.0322266-.1132812.0976562-.1132812.0322266,0,.0830078.0244141.1542969.0732422.0693359.0478516.1152344.0830078.1376953.1044922.1513672.1191406.3212891.2216797.5107422.3085938.1884766.0869141.4345703.1298828.7373047.1298828.28125,0,.7294922-.0654297,1.3457031-.1953125-.0107422-.3671875-.0166016-.8798828-.0166016-1.5400391v-.8261719c0-.4648438-.2324219-.8056641-.6972656-1.0214844-.0966797-.0546875-.1455078-.1025391-.1455078-.1464844,0-.0644531.0625-.1240234.1865234-.1777344.1240234-.0546875.3320312-.0810547.6240234-.0810547.3134766,0,.5976562.0947266.8515625.2832031.2539062.1894531.3808594.3808594.3808594.5751953,0,.0224609-.0322266.1298828-.0976562.3251953-.0751953.1513672-.1289062.296875-.1621094.4375-.0429688.2050781-.0644531.3183594-.0644531.3398438.4970703.3789062.9023438.6054688,1.2158203.6816406.0976562.0214844.2294922.0488281.3974609.0810547.1669922.0322266.2832031.0703125.3486328.1132812.0644531.0429688.1074219.1083984.1298828.1943359.0214844.0654297.0322266.1357422.0322266.2109375,0,.2382812-.2109375.4648438-.6328125.6806641-.6806641.3242188-1.2314453.5517578-1.6533203.6816406v.0966797c0,.9726562.0917969,2.1835938.2753906,3.6318359.0214844.1621094.0595703.4970703.1132812,1.0048828.9833984.2919922,1.7509766.7138672,2.3027344,1.2646484.3027344.3027344.4541016.5732422.4541016.8115234Zm-4.1835938-.1298828c.2919922-.2050781.4541016-.6376953.4863281-1.296875-.5292969-.1630859-1.0322266-.2441406-1.5078125-.2441406-.4316406,0-.8291016.0625-1.1914062.1865234-.3623047.125-.5429688.34375-.5429688.6572266,0,.3457031.1865234.5996094.5595703.7617188s.7480469.2431641,1.1269531.2431641c.4208984,0,.7773438-.1025391,1.0693359-.3076172Zm1.0703125-7.6855469c.6591797-.2158203.9892578-.3994141.9892578-.5507812,0-.0537109-.0732422-.1435547-.21875-.2675781-.1464844-.1240234-.2783203-.2294922-.3974609-.3164062-.1191406-.0859375-.2109375-.15625-.2753906-.2109375l-.0976562,1.3457031Z"/>
          <path class="cls-2" d="m267.255894,14.3934389c-.0439453-.0322266-.1005859-.0751953-.1708984-.1298828-.0703125-.0537109-.1044922-.0966797-.1044922-.1289062,0-.0546875.0371094-.0810547.1132812-.0810547.0429688,0,.1396484.0214844.2919922.0644531.3349609.0869141.7773438.2705078,1.3291016.5517578.5507812.2802734,1.0400391.6132812,1.4667969.9970703.4277344.3837891.640625.7695312.640625,1.1591797,0,.2910156-.0722656.5078125-.21875.6484375-.1455078.1396484-.3105469.2109375-.4941406.2109375-.2705078,0-.5087891-.1894531-.7138672-.5683594-.6591797-1.1884766-1.3720703-2.0966797-2.1396484-2.7236328Z"/>
          <path class="cls-2" d="m287.9922221,5.574103c.5185547.4755859.9296875.8642578,1.2324219,1.1669922v.0166016l.2910156-.6650391c.1953125-.4863281.3652344-1.0380859.5107422-1.6533203.1464844-.6162109.2294922-1.1572266.2519531-1.6220703,1.0908203.3242188,1.6367188.5576172,1.6367188.6972656,0,.0546875-.0537109.0976562-.1621094.1298828l-.3076172.1298828c-.2382812.8320312-.5673828,1.6484375-.9892578,2.4482422h5.3671875l.2431641-.3564453c.0322266-.0439453.0722656-.0976562.1210938-.1621094.0488281-.0654297.0917969-.1142578.1298828-.1464844s.078125-.0488281.1220703-.0488281c.0644531,0,.1914062.0703125.3808594.2109375.1884766.140625.3642578.2949219.5263672.4619141.1621094.1679688.2431641.2900391.2431641.3652344-.1083984.140625-.3242188.2324219-.6484375.2753906-.1083984,2.7460938-.3027344,5.0097656-.5839844,6.7929688-.2802734,1.7841797-.6318359,2.9130859-1.0537109,3.3886719-.4541016.5410156-1.0859375.7998047-1.8964844.7783203,0-.3886719-.1025391-.6484375-.3085938-.7783203-.1181641-.0966797-.3378906-.1894531-.65625-.2753906-.3193359-.0869141-.65625-.1572266-1.0136719-.2109375l.0166016-.3076172c.4326172.0537109.8945312.1054688,1.3867188.1533203.4912109.0488281.8232422.0732422.9970703.0732422.171875,0,.3076172-.0185547.4052734-.0566406.0966797-.0380859.2050781-.1054688.3242188-.2021484.3349609-.3134766.6240234-1.3193359.8671875-3.015625.2431641-1.6972656.4296875-3.859375.5595703-6.4853516h-1.0214844c-.3574219,2.2373047-1,4.2236328-1.9296875,5.9580078s-2.2265625,3.1855469-3.890625,4.3535156l-.1621094-.2109375c1.3828125-1.2539062,2.4775391-2.7431641,3.2822266-4.4667969.8056641-1.7236328,1.3320312-3.6015625,1.5810547-5.6337891h-1.1669922c-.3896484,1.5019531-.9833984,2.8798828-1.7832031,4.1337891-.8007812,1.2539062-1.7890625,2.3134766-2.9677734,3.1777344l-.1621094-.2109375c.9511719-.9072266,1.7568359-1.9804688,2.4160156-3.2177734s1.1298828-2.5322266,1.4101562-3.8828125h-1.3935547c-.6386719,1.1455078-1.4326172,2.0859375-2.3837891,2.8203125l-.2109375-.1777344c.5517578-.6269531,1.0761719-1.4482422,1.5732422-2.4648438-.0761719.0976562-.1943359.1464844-.3574219.1464844h-1.9287109v3.6640625l2.2207031-.7949219.0810547.2431641-2.3017578,1.2490234v2.171875c.0214844,1.3408203.0644531,2.6103516.1298828,3.8105469-.0654297.1191406-.1894531.2265625-.3730469.3242188-.1845703.0976562-.3681641.1455078-.5517578.1455078-.0966797,0-.1806641-.0322266-.2509766-.0966797-.0703125-.0654297-.1054688-.140625-.1054688-.2275391.0751953-1.0908203.1240234-2.2958984.1455078-3.6152344v-1.9775391l-1.7666016.9072266c-.0546875.1953125-.1621094.3300781-.3242188.4052734l-.5996094-1.3613281c.5400391-.1298828,1.4365234-.4111328,2.6904297-.84375v-4.0039062h-1.2314453c-.3789062,1.1347656-.7949219,2.0322266-1.2490234,2.6914062l-.2431641-.1464844c.2275391-.59375.4384766-1.3291016.6328125-2.2050781.0966797-.4208984.1757812-.8994141.2353516-1.4345703.0585938-.5351562.0888672-1.0292969.0888672-1.4833984,0-.2597656-.0058594-.4482422-.0166016-.5673828.5732422.1083984.9726562.2001953,1.2001953.2753906.2265625.0761719.3398438.1464844.3398438.2109375,0,.0429688-.0429688.0917969-.1289062.1455078l-.2763672.1464844c-.1728516.8427734-.3242188,1.4697266-.453125,1.8808594h1.1015625v-.3242188c0-1.3623047-.0703125-2.4697266-.2099609-3.3242188.59375.1728516,1.0097656.3164062,1.2480469.4296875.2373047.1132812.3564453.2080078.3564453.2841797,0,.0537109-.0429688.1074219-.1298828.1621094l-.2587891.1777344v2.5947266h.4052734l.6972656-.9404297Z"/>
          <path class="cls-2" d="m301.4648783,8.7030092c-.5947266.9511719-1.2431641,1.7998047-1.9453125,2.5449219l-.2109375-.1621094c.8535156-1.2529297,1.6533203-2.8417969,2.3994141-4.7666016.1943359-.5400391.3779297-1.1455078.5517578-1.8154297.171875-.6699219.2753906-1.2216797.3076172-1.6533203,1.0917969.3886719,1.6376953.6484375,1.6376953.7773438,0,.0546875-.0546875.0976562-.1621094.1298828l-.3085938.0976562c-.4208984,1.2216797-.9023438,2.3505859-1.4423828,3.3886719.3671875.2919922.5507812.5019531.5507812.6318359,0,.0546875-.0488281.1083984-.1455078.1621094l-.2275391.0976562v5.4316406c.0214844,1.3398438.0654297,2.6103516.1298828,3.8095703-.0751953.0976562-.2080078.1943359-.3974609.2919922-.1884766.0976562-.3701172.1455078-.5429688.1455078-.0966797,0-.1835938-.0322266-.2587891-.0966797-.0761719-.0654297-.1142578-.140625-.1142578-.2275391.0429688-.6376953.0810547-1.2558594.1142578-1.8564453.0322266-.5996094.0537109-1.3857422.0644531-2.3583984v-4.5722656Zm10.2138672-2.4482422c.0332031-.0429688.0810547-.1103516.1464844-.203125.0644531-.0908203.1210938-.1621094.1699219-.2099609.0488281-.0488281.0947266-.0732422.1376953-.0732422.0654297,0,.203125.0839844.4140625.2509766.2099609.1679688.4052734.3466797.5830078.5351562.1787109.1894531.2675781.3222656.2675781.3974609-.0322266.1728516-.1679688.2597656-.4052734.2597656h-3.9238281v3.9550781h2.6914062l.3242188-.4863281c.0332031-.0429688.0810547-.1103516.1464844-.2021484.0644531-.0917969.1210938-.1621094.1699219-.2109375s.0947266-.0732422.1376953-.0732422c.0654297,0,.2050781.0839844.421875.2519531.2158203.1669922.4160156.3486328.5996094.5429688s.2753906.3300781.2753906.4052734c-.0322266.1728516-.1669922.2597656-.4052734.2597656h-4.3613281v1.9287109c.0214844,1.3300781.0654297,2.578125.1298828,3.7451172-.0644531.1191406-.1943359.2275391-.3886719.3242188-.1943359.0976562-.3837891.1464844-.5673828.1464844-.1083984,0-.2001953-.0322266-.2763672-.0976562-.0751953-.0644531-.1132812-.140625-.1132812-.2265625.0429688-.5625.078125-1.1191406.1054688-1.6699219.0273438-.5517578.0458984-1.2490234.0566406-2.0917969v-2.0585938h-2.0585938c-.7675781.0107422-1.578125.0859375-2.4326172.2265625l-.4052734-.8427734c.5947266.0644531,1.3134766.1074219,2.1572266.1289062h2.7392578v-3.9550781h-2.5615234c-.6162109,1.3183594-1.3027344,2.3720703-2.0585938,3.1611328l-.1953125-.1621094c.4873047-.8427734.9248047-1.8378906,1.3134766-2.9833984.1728516-.5185547.3242188-1.1240234.4541016-1.8154297s.1943359-1.2597656.1943359-1.703125c1.0917969.3466797,1.6376953.5898438,1.6376953.7304688,0,.0429688-.0488281.0810547-.1455078.1132812l-.2919922.1132812c-.2167969.7890625-.4541016,1.4814453-.7138672,2.0751953h2.3671875v-.3408203c0-1.3613281-.0703125-2.4697266-.2109375-3.3232422,1.1132812.3134766,1.6699219.5458984,1.6699219.6972656,0,.0537109-.0429688.1083984-.1289062.1621094l-.2763672.1787109v2.6259766h2.2705078l.3398438-.4863281Z"/>
          <path class="cls-2" d="m326.7890971,10.1131655c.0332031-.0429688.0732422-.0966797.1220703-.1621094.0488281-.0644531.0917969-.1132812.1298828-.1455078.0371094-.0322266.078125-.0488281.1210938-.0488281.0654297,0,.1953125.0732422.3896484.21875.1943359.1464844.375.3056641.5429688.4785156.1669922.1728516.2509766.2978516.2509766.3730469-.1298828.1513672-.3564453.2587891-.6806641.3242188v1.296875h.3886719l.3085938-.4863281c.0429688-.0537109.0947266-.1269531.1542969-.21875.0585938-.0917969.1103516-.1591797.1533203-.203125.0429688-.0429688.0869141-.0644531.1298828-.0644531.0654297,0,.2001953.0839844.4052734.2509766.2050781.1679688.3945312.3486328.5673828.5429688.1728516.1953125.2597656.3300781.2597656.4052734-.0429688.1738281-.1787109.2597656-.4052734.2597656h-1.9619141v.8427734l.0166016.5029297c.0097656.3789062.0322266.7353516.0644531,1.0703125-.0546875.0966797-.1787109.1972656-.3730469.2998047s-.3730469.1542969-.5351562.1542969c-.0644531,0-.1162109-.0332031-.1533203-.0976562-.0380859-.0644531-.0576172-.140625-.0576172-.2265625l.0654297-.2597656v-.3076172h-3.4375v1.3613281c0,.3242188-.0400391.5859375-.1210938.7861328s-.2519531.3681641-.5107422.5029297c-.2597656.1347656-.6484375.2294922-1.1679688.2841797-.0537109-.3574219-.1943359-.6005859-.4208984-.7304688-.28125-.1943359-.8007812-.3349609-1.5566406-.4208984v-.2597656c1.296875.1083984,2.0693359.1621094,2.3183594.1621094.1621094,0,.2724609-.0292969.3320312-.0888672s.0898438-.1591797.0898438-.2998047v-1.296875h-2.1083984c-.7675781.0107422-1.578125.0859375-2.4316406.2265625l-.421875-.8105469c.5947266.0644531,1.3134766.1083984,2.15625.1298828h2.8056641v-1.5244141h-3.8427734c-.7675781.0107422-1.578125.0869141-2.4316406.2275391l-.4052734-.84375c.59375.0654297,1.3125.1083984,2.15625.1298828h4.5234375v-1.4912109h-2.0107422c-.7675781.0107422-1.578125.0859375-2.4316406.2265625l-.421875-.8427734c.5947266.0644531,1.3134766.1083984,2.15625.1298828h2.7080078v-1.4921875h-3.3730469v.5185547c0,.0546875-.0947266.1220703-.2832031.203125-.1894531.0810547-.3759766.1210938-.5595703.1210938-.0644531,0-.1191406-.0322266-.1621094-.0966797-.0429688-.0654297-.0644531-.140625-.0644531-.2275391.0214844-.1289062.0478516-.453125.0810547-.9726562v-.6640625c0-.8544922-.0439453-1.5351562-.1298828-2.0429688l1.2324219.5996094h3.2587891v-1.28125h-3.8105469c-.7675781.0117188-1.578125.0869141-2.4316406.2275391l-.421875-.8427734c.5947266.0644531,1.3134766.1074219,2.15625.1289062h4.5078125c0-.6806641-.0332031-1.2646484-.0976562-1.7509766,1.0263672.3027344,1.5400391.5351562,1.5400391.6972656,0,.0546875-.0429688.1083984-.1298828.1621094l-.2753906.1787109v.7128906h4.3779297l.3564453-.4863281c.0429688-.0537109.0996094-.1269531.1699219-.21875s.1298828-.1621094.1787109-.2109375c.0488281-.0478516.0947266-.0722656.1376953-.0722656.0644531,0,.2109375.0859375.4375.2587891.2275391.1728516.4404297.3574219.640625.5517578s.2998047.3300781.2998047.4052734c-.0322266.1728516-.1621094.2587891-.3886719.2587891h-6.2099609v1.28125h3.2099609l.2597656-.3076172c.0322266-.0332031.0859375-.0947266.1621094-.1865234.0751953-.0917969.1455078-.1376953.2109375-.1376953.0644531,0,.1972656.0644531.3974609.1943359.1992188.1298828.3857422.2724609.5585938.4296875.1728516.15625.2597656.2724609.2597656.3486328-.1298828.1513672-.3515625.2587891-.6650391.3242188v.7128906l.0332031.5839844c0,.1513672.0097656.4003906.0322266.7460938-.0439453.0859375-.1650391.1777344-.3652344.2753906-.2001953.0966797-.3808594.1455078-.5429688.1455078h-.1787109v-.5673828h-3.3720703v1.4921875h3.2753906l.2587891-.3574219Zm-7.9443359-3.2255859v1.6210938h3.3730469v-1.6210938h-3.3730469Zm7.7822266,1.6210938v-1.6210938h-3.3720703v1.6210938h3.3720703Zm.0654297,2.4482422h-3.4375v1.4912109h3.4375v-1.4912109Zm-3.4375,3.5019531h3.4375v-1.5244141h-3.4375v1.5244141Z"/>
          <path class="cls-2" d="m344.2998393,5.5086733c.0429688-.0537109.0996094-.1269531.1699219-.21875s.1298828-.1621094.1787109-.2109375c.0478516-.0478516.09375-.0722656.1376953-.0722656.0644531,0,.2099609.0859375.4375.2587891.2265625.1728516.4375.359375.6318359.5595703.1953125.2001953.2919922.3378906.2919922.4130859-.0429688.1621094-.1728516.2431641-.3886719.2431641h-11.203125c-.7675781.0117188-1.578125.0869141-2.4326172.2275391l-.4208984-.8271484c.59375.0654297,1.3125.1083984,2.15625.1298828h3.0966797c-.1083984,0-.2431641-.0537109-.4052734-.1621094-.0654297-.4326172-.2597656-.9052734-.5839844-1.4189453-.3242188-.5126953-.6806641-.9423828-1.0703125-1.2890625l.1787109-.1289062c.8427734.28125,1.4648438.6347656,1.8642578,1.0615234.4003906.4267578.5996094.8408203.5996094,1.2402344,0,.1943359-.0478516.3564453-.1455078.4863281s-.2216797.2001953-.3730469.2109375h3.0644531l.0644531-.1132812c.28125-.4648438.5410156-.9833984.7783203-1.5566406.2382812-.5732422.4052734-1.0810547.5029297-1.5244141,1.1025391.3466797,1.6533203.5947266,1.6533203.7460938,0,.0429688-.0478516.0810547-.1455078.1132812l-.3076172.0976562c-.4863281.6806641-1.1728516,1.4267578-2.0595703,2.2373047h3.3720703l.3574219-.5029297Zm-10.0527344,9.4042969c.0214844,1.0263672.0546875,1.8427734.0976562,2.4482422-.0546875.1074219-.1699219.2099609-.3486328.3076172s-.3701172.1455078-.5751953.1455078c-.0869141,0-.1650391-.0351562-.2353516-.1054688s-.1054688-.1425781-.1054688-.21875c.0429688-.6376953.0810547-1.2558594.1132812-1.8564453.0322266-.5996094.0537109-1.3857422.0654297-2.3583984v-2.3837891c0-1.3613281-.0712891-2.4697266-.2109375-3.3232422l1.2802734.5830078h2.7724609l.2275391-.3242188c.0322266-.0322266.0703125-.0810547.1132812-.1455078s.0810547-.1103516.1132812-.1376953.0703125-.0410156.1132812-.0410156c.0654297,0,.2001953.0712891.4052734.2109375.2050781.140625.3974609.2919922.5761719.4541016.1777344.1621094.2675781.28125.2675781.3564453-.0654297.0654297-.1572266.1279297-.2763672.1865234-.1181641.0595703-.2480469.1005859-.3886719.1220703v7.5390625c0,.3134766-.0322266.5615234-.0976562.7451172-.0644531.1845703-.2001953.3349609-.4052734.4541016s-.5078125.2001953-.9072266.2431641c-.0224609-.3349609-.1142578-.5722656-.2763672-.7128906-.1728516-.1728516-.5019531-.2919922-.9882812-.3564453v-.2597656c.7558594.0644531,1.2207031.0976562,1.3935547.0976562.1083984,0,.1816406-.0244141.2197266-.0732422.0371094-.0488281.0566406-.1269531.0566406-.2353516v-2.6425781h-3v1.28125Zm3-4.3134766v-1.9609375h-3v1.9609375h3Zm-3,.4863281v2.0595703h3v-2.0595703h-3Zm6.1123047.0810547c0-1.3613281-.0703125-2.4697266-.2109375-3.3232422.6054688.1728516,1.0244141.3105469,1.2568359.4130859.2324219.1035156.3486328.1972656.3486328.2841797,0,.0537109-.0488281.1083984-.1455078.1621094l-.2763672.1787109v2.2695312c.0214844,1.3398438.0654297,2.6103516.1298828,3.8095703-.0644531.1083984-.1894531.2089844-.3730469.3007812s-.3623047.1376953-.5351562.1376953c-.0966797,0-.1728516-.0332031-.2265625-.0976562s-.0810547-.140625-.0810547-.2265625c.0537109-.5410156.0917969-1.2597656.1132812-2.15625v-1.7519531Zm3.3398438-.3564453c0-1.3613281-.0703125-2.4697266-.2109375-3.3232422,1.0703125.3027344,1.6054688.5292969,1.6054688.6806641,0,.0429688-.0429688.0917969-.1298828.1455078l-.2753906.1630859v7.8300781c0,.3134766-.0380859.5673828-.1132812.7626953-.0761719.1943359-.2294922.3535156-.4619141.4775391-.2324219.125-.5810547.2080078-1.0458984.2519531-.0322266-.3349609-.1513672-.5673828-.3564453-.6972656-.2382812-.1835938-.6757812-.3134766-1.3134766-.3896484v-.2587891c1.0800781.0869141,1.7294922.1298828,1.9453125.1298828.140625,0,.2353516-.0273438.2841797-.0810547.0478516-.0546875.0722656-.140625.0722656-.2597656v-5.4316406Z"/>
          <path class="cls-2" d="m360.974644,12.3670717c.2753906.1083984.5234375.2490234.7451172.421875s.3330078.3505859.3330078.5351562c0,.28125-.1845703.4208984-.5517578.4208984-.1728516,0-.3349609-.015625-.4863281-.0488281-1.0263672-.2050781-2.2265625-.3076172-3.5986328-.3076172-.6269531,0-1.3623047.0322266-2.2050781.0976562-1.3193359.1191406-2.6269531.3242188-3.9238281.6152344-.0869141.0224609-.2167969.0654297-.3886719.1298828-.1523438.0654297-.2841797.1142578-.3974609.1464844s-.2460938.0488281-.3974609.0488281c-.2490234,0-.5107422-.0625-.7861328-.1865234-.2753906-.125-.5058594-.28125-.6894531-.4707031-.1835938-.1884766-.2753906-.3808594-.2753906-.5751953,0-.0214844.0107422-.0429688.0322266-.0654297.0214844-.0214844.0429688-.0322266.0654297-.0322266.0429688,0,.1103516.0214844.2021484.0654297.0917969.0429688.1757812.0751953.2509766.0966797.2167969.0761719.4599609.1132812.7304688.1132812.171875,0,1.0644531-.0859375,2.6748047-.2587891l2.2539062-.2431641c.1396484-1.578125.2099609-2.6699219.2099609-3.2753906,0-.1513672-.0048828-.2539062-.015625-.3076172-.0439453-.2050781-.1113281-.3701172-.203125-.4951172-.0917969-.1240234-.1757812-.2207031-.2509766-.2919922-.0761719-.0693359-.1240234-.1103516-.1455078-.1210938-.6054688.0976562-1.0332031.1728516-1.28125.2265625-.3789062.0761719-.6484375.140625-.8105469.1953125-.1621094.0537109-.2871094.0810547-.3730469.0810547-.2265625,0-.4433594-.0703125-.6484375-.2109375s-.3623047-.2978516-.4707031-.4707031c-.0966797-.1513672-.1455078-.2587891-.1455078-.3242188,0-.0859375.0322266-.1298828.0976562-.1298828.0537109,0,.1289062.0166016.2265625.0488281.0322266.0107422.1328125.0351562.2998047.0732422.1679688.0380859.4023438.0566406.7050781.0566406.3574219,0,1.2109375-.0859375,2.5625-.2597656,1.3505859-.1728516,2.2148438-.3291016,2.59375-.4697266.3564453-.1298828.6181641-.2109375.7861328-.2431641s.3271484-.0488281.4785156-.0488281c.2597656,0,.4941406.0429688.7050781.1298828s.3759766.1894531.4941406.3076172c.1191406.1191406.1787109.2167969.1787109.2919922,0,.0869141-.0517578.1513672-.1542969.1943359-.1025391.0439453-.2128906.0654297-.3320312.0654297h-.3076172c-.8652344,0-2.0654297.1083984-3.5996094.3242188.2597656.1191406.4833984.2617188.6728516.4296875.1884766.1679688.2832031.3164062.2832031.4453125,0,.0546875-.0429688.1572266-.1289062.3085938-.0976562.140625-.1572266.2646484-.1787109.3730469-.0322266.1074219-.078125.5019531-.1376953,1.1835938-.0595703.6806641-.1113281,1.2861328-.1542969,1.8154297,1.296875-.1298828,2.1669922-.1943359,2.6103516-.1943359.3896484,0,.7832031-.0273438,1.1835938-.0810547.1621094-.0214844.3564453-.0751953.5839844-.1621094.2587891-.0869141.4208984-.1298828.4863281-.1298828.1181641,0,.3164062.0546875.5917969.1621094Z"/>
          <path class="cls-2" d="m368.7812846,7.536017c-.2490234-.3789062-.5732422-.6923828-.9736328-.9404297-.3994141-.2490234-.8261719-.4384766-1.2802734-.5673828-.0869141-.0214844-.1572266-.0439453-.2109375-.0654297-.0546875-.0214844-.0810547-.0488281-.0810547-.0810547,0-.0966797.2480469-.1455078.7460938-.1455078.4541016,0,.9267578.0566406,1.4179688.1699219.4921875.1132812.9003906.2949219,1.2246094.5429688.4101562.3242188.6162109.6816406.6162109,1.0703125,0,.1943359-.0517578.3544922-.1542969.4785156s-.2460938.1865234-.4296875.1865234c-.3027344,0-.5947266-.2167969-.875-.6484375Zm-2.2861328,6.2744141c0-.140625.0185547-.2568359.0566406-.3486328.0371094-.0917969.0722656-.1376953.1054688-.1376953.0322266,0,.0810547.0595703.1455078.1777344.0644531.1191406.1513672.2324219.2597656.3408203.1074219.1083984.2080078.1914062.2998047.2509766s.2236328.0888672.3974609.0888672c.3886719,0,1.0966797-.3125,2.1230469-.9394531,1.0273438-.6269531,2.2246094-1.5107422,3.5917969-2.6513672s2.7373047-2.4453125,4.1103516-3.9150391c.0966797-.1191406.1835938-.1787109.2587891-.1787109.0429688,0,.0654297.0214844.0654297.0644531,0,.0654297-.0546875.1787109-.1621094.3408203-.7353516,1.0273438-1.6113281,2.0703125-2.6269531,3.1289062-1.0166016,1.0595703-1.9970703,2.0029297-2.9423828,2.8291016-.9462891.8271484-1.6943359,1.4355469-2.2460938,1.8242188-.1298828.0976562-.2373047.1679688-.3242188.2109375-.0966797.0644531-.1943359.1357422-.2919922.2109375-.0966797.0751953-.2050781.1777344-.3242188.3076172-.2265625.2597656-.4863281.3896484-.7783203.3896484-.3564453,0-.6992188-.1484375-1.0292969-.4462891-.3300781-.296875-.5380859-.6455078-.6240234-1.0458984-.0429688-.1728516-.0644531-.3398438-.0644531-.5019531Z"/>
          <path class="cls-2" d="m389.8252299,9.7889467c.8974609.4648438,1.3457031,1.0107422,1.3457031,1.6376953,0,.1835938-.0458984.3349609-.1376953.4541016s-.2080078.1787109-.3486328.1787109c-.2919922,0-.6757812-.2919922-1.1513672-.8759766-.7353516-.9296875-1.6376953-1.6425781-2.7070312-2.1396484v.2753906l-.0166016,2.6591797c0,1.8261719.0263672,2.8798828.0810547,3.1611328.0107422.0761719.0429688.2460938.0976562.5107422.0537109.2646484.0810547.4726562.0810547.6240234,0,.2167969-.0712891.4082031-.2109375.5761719-.140625.1669922-.2705078.2509766-.3896484.2509766-.1513672,0-.2939453-.1220703-.4296875-.3652344-.1347656-.2431641-.2460938-.5185547-.3320312-.8261719-.0869141-.3085938-.1298828-.5214844-.1298828-.640625,0-.0654297.0214844-.1972656.0654297-.3974609.0429688-.2001953.0751953-.4619141.0966797-.7861328l.0488281-1.3134766c.0214844-.3242188.0380859-.640625.0488281-.9482422.0107422-.3085938.0214844-.5976562.0322266-.8671875.0322266-.7246094.0488281-1.8271484.0488281-3.3076172,0-1.1894531-.0214844-1.9726562-.0654297-2.3515625-.0322266-.2265625-.0966797-.4023438-.1943359-.5263672-.0966797-.1240234-.1914062-.2216797-.2832031-.2919922s-.1542969-.1162109-.1865234-.1376953c-.0869141-.0644531-.1298828-.1191406-.1298828-.1621094,0-.1298828.1025391-.2158203.3076172-.2597656.2060547-.0429688.4003906-.0644531.5839844-.0644531.3671875,0,.6699219.1191406.9082031.3564453.1181641.1191406.1777344.2597656.1777344.421875,0,.0751953-.0048828.140625-.015625.1943359-.0107422.0546875-.0224609.1025391-.0322266.1455078-.0117188.0546875-.0351562.2060547-.0732422.4541016-.0380859.2490234-.0566406.5244141-.0566406.8271484v.3408203c-.0224609.6054688-.0322266,1.3242188-.0322266,2.15625,1.1025391.2265625,2.1015625.5732422,2.9990234,1.0371094Z"/>
          <path class="cls-2" d="m400.0713236,17.2313295c0-.0439453.0917969-.1142578.2763672-.2109375,1.4150391-.7998047,2.4941406-1.6669922,3.234375-2.6025391.7402344-.9345703,1.2373047-1.9453125,1.4912109-3.03125.2539062-1.0869141.3808594-2.3808594.3808594-3.8837891,0-.453125-.0214844-1.0263672-.0644531-1.7177734-.0214844-.4755859-.1357422-.8056641-.3408203-.9892578-.1191406-.1083984-.2324219-.1865234-.3398438-.2353516-.1083984-.0488281-.1816406-.0859375-.2197266-.1132812-.0371094-.0273438-.0566406-.0673828-.0566406-.1220703,0-.1513672.2109375-.2265625.6328125-.2265625.1513672,0,.3027344.0107422.4541016.0322266.2695312.0654297.5566406.2216797.859375.4707031.3017578.2480469.453125.4589844.453125.6318359,0,.0869141-.0371094.2050781-.1132812.3564453-.0107422.0224609-.0400391.0976562-.0888672.2275391s-.0732422.2753906-.0732422.4375c0,.4648438-.0107422,1.0107422-.0322266,1.6376953-.0644531,1.7509766-.2919922,3.1933594-.6806641,4.3291016-.3896484,1.1347656-1.0136719,2.09375-1.8730469,2.8779297-.859375.7832031-2.0507812,1.4931641-3.5751953,2.1318359-.1074219.0429688-.1884766.0644531-.2431641.0644531-.0537109,0-.0810547-.0214844-.0810547-.0644531Zm1.5888672-5.8203125c-.1289062-.2167969-.1943359-.4755859-.1943359-.7783203,0-.0332031.0166016-.2460938.0488281-.640625s.0488281-.7382812.0488281-1.0292969c0-1.0917969-.0439453-1.8759766-.1298828-2.3515625-.0322266-.2050781-.078125-.3671875-.1376953-.4863281-.0595703-.1181641-.1601562-.2158203-.2998047-.2919922-.0976562-.0537109-.1787109-.1025391-.2431641-.1455078-.0654297-.0429688-.0976562-.0917969-.0976562-.1455078,0-.0761719.0703125-.1435547.2109375-.203125s.296875-.0888672.4697266-.0888672c.1513672,0,.2763672.0214844.3730469.0644531.3564453.1298828.6025391.2646484.7382812.4052734.1347656.140625.2021484.3085938.2021484.5029297,0,.1298828-.015625.2753906-.0488281.4375-.0537109.2919922-.0810547.8544922-.0810547,1.6865234l.0166016,1.2646484c0,.2158203.0107422.4755859.0322266.7783203.0214844.2587891.0322266.4208984.0322266.4863281,0,.2158203-.0478516.4130859-.1455078.5917969-.0976562.1777344-.2324219.2675781-.4052734.2675781-.1298828,0-.2597656-.1083984-.3896484-.3242188Z"/>
          <path class="cls-2" d="m414.3066752,11.426642c-.1943359-.1074219-.3701172-.2539062-.5273438-.4375-.15625-.1835938-.234375-.3837891-.234375-.5996094,0-.1191406.0244141-.2382812.0722656-.3574219.0488281-.1181641.1005859-.1777344.1542969-.1777344.0214844,0,.0703125.0263672.1455078.0810547.1083984.0859375.2216797.1513672.3408203.1943359.4326172.140625.9189453.2109375,1.4589844.2109375.4648438-.0107422,1.1728516-.0302734,2.1240234-.0566406.9511719-.0273438,1.7617188-.0517578,2.4326172-.0732422,1.4365234-.0537109,2.6318359-.1083984,3.5830078-.1621094.5507812-.0322266.9833984-.0488281,1.296875-.0488281.4208984,0,.7509766.0380859.9892578.1132812.2373047.0761719.3564453.2431641.3564453.5029297s-.2216797.4111328-.6650391.4541016c-.2158203.0214844-.5136719.0322266-.8916016.0322266l-4.7021484.1132812c-.8320312.0224609-1.7373047.0595703-2.7158203.1132812-.9775391.0546875-1.6123047.1142578-1.9042969.1787109-.2705078.0546875-.4863281.0810547-.6484375.0810547-.28125,0-.5029297-.0537109-.6650391-.1621094Z"/>
          <path class="cls-2" d="m438.2851908,4.3905092c.6054688.4755859,1.0595703.8642578,1.3623047,1.1669922v.0166016c.3027344-.3457031.5996094-.7324219.8916016-1.1591797s.5136719-.8027344.6650391-1.1269531c.4755859.3671875.8076172.640625.9970703.8183594.1884766.1787109.2832031.2998047.2832031.3652344,0,.0429688-.0644531.0644531-.1943359.0644531l-.3242188-.015625c-.9726562,1.2753906-2.1943359,2.5185547-3.6640625,3.7285156h2.9023438l.3398438-.4863281c.0332031-.0429688.0810547-.1103516.1464844-.203125.0644531-.0908203.1210938-.1621094.1699219-.2099609.0488281-.0488281.0947266-.0732422.1376953-.0732422.0654297,0,.2080078.0839844.4296875.2509766.2216797.1679688.4296875.3486328.6240234.5429688.1953125.1953125.2919922.3300781.2919922.40625-.0322266.1728516-.1621094.2587891-.3886719.2587891h-5.2695312c-.8320312.6708984-1.8378906,1.3623047-3.015625,2.0751953h4.9609375l.2597656-.3242188c.0214844-.0322266.0732422-.0947266.1542969-.1865234s.1591797-.1376953.234375-.1376953c.0654297,0,.1972656.0673828.3974609.203125.2001953.1347656.3837891.2832031.5517578.4453125.1669922.1621094.2509766.28125.2509766.3564453-.1083984.1523438-.3349609.2597656-.6806641.3251953v1.9453125c.0214844,1.3398438.0644531,2.6103516.1298828,3.8095703-.0761719.0976562-.2167969.1953125-.421875.2919922-.2060547.0976562-.3896484.1464844-.5517578.1464844-.0751953,0-.1318359-.0332031-.1699219-.0976562s-.0566406-.140625-.0566406-.2265625c.0107422-.0117188.0322266-.1035156.0644531-.2763672v-.3076172h-5.8525391v.6806641c0,.0654297-.0917969.140625-.2753906.2275391-.1845703.0859375-.3789062.1289062-.5839844.1289062-.0644531,0-.1298828-.0351562-.1943359-.1054688-.0654297-.0703125-.0976562-.1425781-.0976562-.21875.0429688-.5615234.078125-1.1132812.1054688-1.6533203s.0458984-1.2216797.0566406-2.0429688v-2.0263672c-1.1669922.6162109-2.4638672,1.1728516-3.890625,1.6699219l-.1298828-.2597656c1.3613281-.5839844,2.7021484-1.2753906,4.0205078-2.0751953v-.4052734c0-.2050781-.0048828-.3671875-.015625-.4863281l.7451172.421875c.9404297-.6162109,1.8105469-1.2490234,2.6103516-1.8974609h-4.3613281c-.7675781.0107422-1.578125.0869141-2.4316406.2275391l-.421875-.84375c.5947266.0654297,1.3134766.1083984,2.15625.1298828h3.5673828v-2.4316406h-1.3134766c-.7675781.0107422-1.5673828.0859375-2.3994141.2265625l-.421875-.8271484c.5947266.0654297,1.3134766.1083984,2.15625.1298828h1.9785156c0-.9833984-.0488281-1.8154297-.1464844-2.4960938,1.0273438.3027344,1.5410156.5292969,1.5410156.6806641,0,.0537109-.0439453.1083984-.1298828.1621094l-.2597656.1621094v1.4912109h1.7675781l.7128906-.9560547Zm1.5078125,9.0625v-2.171875h-5.8525391v2.171875h5.8525391Zm-5.8525391.4707031v2.3671875h5.8525391v-2.3671875h-5.8525391Zm5.3017578-8.1064453h-3.4375v2.4316406h1.0703125c.9404297-.7783203,1.7998047-1.5996094,2.578125-2.4638672-.0654297.0214844-.1357422.0322266-.2109375.0322266Z"/>
          <path class="cls-2" d="m449.4238627,6.3192202c.0322266-.0429688.078125-.1103516.1376953-.2021484s.1103516-.1591797.1542969-.203125c.0429688-.0429688.0859375-.0644531.1298828-.0644531.0644531,0,.1943359.078125.3886719.2353516.1943359.15625.375.3271484.5429688.5107422s.2509766.3134766.2509766.3886719c-.0107422.0869141-.0537109.1513672-.1289062.1943359-.0761719.0439453-.1679688.0654297-.2763672.0654297h-1.9609375v1.9130859c.6591797.3564453,1.1396484.7373047,1.4423828,1.1425781s.4541016.7705078.4541016,1.0947266c0,.1943359-.0429688.3457031-.1298828.4541016s-.1943359.1621094-.3242188.1621094c-.1513672,0-.2919922-.0595703-.4208984-.1787109-.0654297-.3242188-.1923828-.6914062-.3818359-1.1025391-.1884766-.4101562-.4023438-.7998047-.6396484-1.1669922v3.9560547c.0214844,1.3398438.0644531,2.6103516.1289062,3.8095703-.0644531.1191406-.1884766.2246094-.3720703.3164062-.1845703.0917969-.3623047.1376953-.5351562.1376953-.1083984,0-.2001953-.0322266-.2763672-.0966797-.0751953-.0654297-.1132812-.140625-.1132812-.2275391.0429688-.6376953.0810547-1.2568359.1132812-1.8564453.0332031-.5996094.0546875-1.3857422.0654297-2.3583984v-2.9511719c-.5839844,1.4697266-1.3408203,2.7402344-2.2695312,3.8095703l-.2109375-.2265625c1.0693359-1.6962891,1.8369141-3.9072266,2.3017578-6.6308594h-.7128906c-.3896484.0107422-.7890625.0859375-1.2001953.2265625l-.4052734-.8271484c.4648438.0654297,1.0263672.1083984,1.6865234.1298828h.8105469v-.5507812c0-1.3623047-.0703125-2.4697266-.2109375-3.3242188.5947266.1738281,1.0107422.3164062,1.2480469.4296875.2382812.1142578.3574219.2089844.3574219.2841797,0,.0537109-.0439453.1083984-.1298828.1621094l-.2753906.1787109v2.8203125h.453125l.3085938-.4541016Zm8.5605469,3.1455078c.0429688-.0537109.0888672-.1181641.1376953-.1943359.0488281-.0751953.0996094-.140625.1542969-.1943359.0537109-.0537109.1025391-.0810547.1455078-.0810547.0644531,0,.2001953.078125.4052734.2353516.2050781.15625.3974609.3261719.5761719.5097656.1777344.1845703.2666016.3144531.2666016.3896484-.0107422.1728516-.140625.2597656-.3886719.2597656h-4.0371094v.5673828c.1943359.8535156.5029297,1.6103516.9238281,2.2695312.3349609-.3564453.6621094-.7675781.9814453-1.2324219.3183594-.4648438.5644531-.8916016.7373047-1.2802734.8320312.5830078,1.2490234.9404297,1.2490234,1.0693359,0,.0439453-.0546875.0654297-.1621094.0654297h-.2919922c-.3027344.2587891-.6621094.5429688-1.078125.8505859-.4169922.3085938-.8242188.5761719-1.2246094.8027344.4326172.6054688.9433594,1.1005859,1.5322266,1.4833984.5888672.3837891,1.2509766.7109375,1.9863281.9814453l-.0166016.1777344c-.1835938.0439453-.3457031.1513672-.4863281.3242188s-.2431641.3837891-.3076172.6328125c-.984375-.5615234-1.7861328-1.234375-2.4082031-2.0185547-.6210938-.7832031-1.0996094-1.8398438-1.4345703-3.1699219v4.3779297c0,.4648438-.0947266.8183594-.2832031,1.0615234-.1894531.2431641-.5820312.3974609-1.1757812.4619141-.0322266-.3564453-.1298828-.5996094-.2919922-.7294922-.2167969-.1728516-.5996094-.296875-1.1513672-.3730469v-.2431641c.8974609.0654297,1.4326172.0976562,1.6054688.0976562.1298828,0,.2158203-.0214844.2597656-.0644531.0429688-.0439453.0644531-.125.0644531-.2431641v-2.4326172l-.2753906.2275391c-1.2753906,1.0048828-2.296875,1.7890625-3.0644531,2.3505859-.0214844.1943359-.0976562.3408203-.2275391.4375l-.8583984-1.1025391c.6259766-.2695312,2.0908203-.9990234,4.3935547-2.1884766l.0322266.0644531v-3.2255859h-1.2480469c-.7353516.0107422-1.5029297.0859375-2.3027344.2265625l-.4052734-.8271484c.5947266.0654297,1.3134766.1083984,2.15625.1298828h1.7998047v-1.7675781h-1.0048828c-.5839844.0117188-1.2001953.0869141-1.8486328.2275391l-.421875-.8271484c.5947266.0654297,1.3134766.1083984,2.15625.1298828h1.1191406v-1.5888672h-1.1835938c-.6699219.0107422-1.3837891.0869141-2.140625.2265625l-.4052734-.8427734c.5410156.0654297,1.2001953.1083984,1.9785156.1298828h.9238281c-.1298828-.0214844-.2539062-.0810547-.3730469-.1787109-.0322266-.3564453-.1533203-.7451172-.3642578-1.1669922s-.4462891-.7949219-.7050781-1.1191406l.1777344-.0966797c.6376953.2490234,1.1025391.5488281,1.3945312.8994141.2919922.3515625.4375.6894531.4375,1.0136719,0,.1728516-.0429688.3183594-.1298828.4375-.0859375.1191406-.1943359.1894531-.3242188.2109375h1.9462891c.1728516-.4433594.3398438-.9238281.5019531-1.4433594.1621094-.5185547.28125-.9667969.3574219-1.3457031,1.0048828.3359375,1.5078125.5673828,1.5078125.6972656,0,.0546875-.0546875.0976562-.1621094.1298828l-.2919922.0976562c-.4755859.6591797-.984375,1.2802734-1.5244141,1.8642578h1.5244141l.3242188-.4375c.0429688-.0546875.0947266-.1220703.1542969-.203125.0585938-.0810547.1103516-.1425781.1533203-.1865234.0429688-.0429688.0869141-.0644531.1298828-.0644531.0644531,0,.203125.078125.4130859.2353516.2109375.15625.4052734.3242188.5839844.5019531.1787109.1787109.2675781.3056641.2675781.3808594-.0429688.1738281-.1787109.2597656-.4052734.2597656h-3.7939453v1.5888672h1.7509766l.3242188-.4541016c.0322266-.0429688.0810547-.1074219.1464844-.1943359.0644531-.0869141.1210938-.1513672.1699219-.1943359s.0947266-.0654297.1376953-.0654297c.0644531,0,.2001953.0791016.4052734.2353516.2050781.1572266.3945312.3242188.5673828.5029297.1728516.1777344.2597656.3056641.2597656.3808594-.0439453.1728516-.1787109.2587891-.4052734.2587891h-3.3564453v1.7675781h2.4316406l.3085938-.4541016Zm-6.6474609,1.5566406c.6699219.2265625,1.1621094.5107422,1.4755859.8515625.3134766.3398438.4697266.6669922.4697266.9804688,0,.1835938-.0458984.3349609-.1376953.4541016s-.2138672.1787109-.3642578.1787109c-.1191406,0-.2548828-.0595703-.40625-.1787109-.0429688-.3457031-.1855469-.7236328-.4287109-1.1347656-.2441406-.4111328-.5107422-.7568359-.8027344-1.0380859l.1943359-.1132812Z"/>
          <path class="cls-2" d="m464.7939799,11.1024233c-.0332031-.0644531-.0488281-.1347656-.0488281-.2109375,0-.2158203.1298828-.3994141.3886719-.5507812.2490234-.1513672.4921875-.3945312.7294922-.7294922.2382812-.3349609.3789062-.6757812.421875-1.0214844l.2753906.015625c.0322266.2060547.0488281.4052734.0488281.6005859h.5996094v-1.2978516c0-1.3613281-.0703125-2.4697266-.2109375-3.3232422l1.3789062.5996094h1.3291016l.1455078-.9560547h-1.2480469c-.7353516.0107422-1.5019531.0859375-2.3017578.2265625l-.3896484-.7617188-.0644531.015625-.2919922.1142578c-.3681641,1.1992188-.8164062,2.3564453-1.3457031,3.4697266.3457031.2695312.5185547.4648438.5185547.5830078,0,.0761719-.0488281.1298828-.1455078.1621094l-.2275391.0976562v5.4472656c.0214844,1.3408203.0654297,2.6103516.1298828,3.8105469-.0869141.0966797-.21875.1914062-.3974609.2832031-.1777344.0917969-.3535156.1376953-.5263672.1376953-.0869141,0-.1650391-.0351562-.2353516-.1054688s-.1054688-.1425781-.1054688-.21875c.0429688-.6376953.0810547-1.2558594.1132812-1.8564453.0332031-.5996094.0546875-1.3857422.0654297-2.3583984v-4.4101562c-.5410156.9511719-1.1083984,1.7724609-1.7021484,2.4638672l-.2109375-.1455078c.7451172-1.296875,1.4482422-2.9130859,2.1074219-4.8476562.1728516-.5292969.3349609-1.1347656.4863281-1.8154297.1513672-.6816406.2373047-1.2382812.2597656-1.6699219,1.1025391.3457031,1.6533203.59375,1.6533203.7451172,0,.0224609-.0058594.0380859-.015625.0488281.6044922.0546875,1.2910156.0917969,2.0585938.1132812h5.59375l.3242188-.4541016c.0322266-.0429688.0810547-.1074219.1455078-.1943359.0654297-.0859375.1220703-.1513672.1708984-.1943359.0478516-.0429688.09375-.0644531.1376953-.0644531.0644531,0,.2050781.078125.4208984.234375.2167969.1572266.4160156.3242188.6005859.5029297.1835938.1787109.2753906.3056641.2753906.3808594-.0322266.1728516-.1679688.2597656-.4052734.2597656h-4.3291016c-.2167969.3671875-.4375.6865234-.6650391.9560547h2.3515625l.2265625-.2919922c.0322266-.0322266.0839844-.0908203.1542969-.1777344s.1376953-.1298828.2021484-.1298828c.0654297,0,.1923828.0625.3808594.1865234.1894531.1240234.3623047.2597656.5195312.4052734.15625.1455078.234375.2568359.234375.3320312-.0429688.0546875-.1210938.1113281-.234375.1708984s-.2353516.0996094-.3652344.1210938v3.4052734h.5185547c.1191406-.1191406.3300781-.3730469.6328125-.7626953.6591797.6923828.9892578,1.1132812.9892578,1.2646484,0,.0546875-.0546875.0917969-.1621094.1132812l-.2763672.0332031c-.3671875.3134766-.859375.6699219-1.4746094,1.0693359.3779297.2167969.6591797.4462891.8427734.6894531s.2753906.4726562.2753906.6894531c0,.140625-.0400391.2568359-.1210938.3486328s-.1865234.1376953-.3164062.1376953c-.0976562,0-.2001953-.0332031-.3085938-.0976562-.1513672-.3457031-.4238281-.7236328-.8183594-1.1347656s-.7919922-.7568359-1.1914062-1.0380859l.1455078-.1455078c.4648438.1083984.8808594.2490234,1.2490234.421875.1621094-.3134766.3349609-.6865234.5185547-1.1191406h-7.7011719c-.0546875.3349609-.1542969.6298828-.2998047.8837891-.1464844.2539062-.3164062.4511719-.5107422.5917969-.1728516.1191406-.3574219.1777344-.5517578.1777344-.2050781,0-.3457031-.0751953-.4208984-.2265625Zm11.2353516,5.5615234l-.0322266.1777344c-.4111328.140625-.6484375.4482422-.7138672.9248047-1.0703125-.1191406-1.9882812-.2871094-2.7558594-.5029297-.7675781-.2167969-1.4375-.4970703-2.0107422-.8427734-1.4375.6914062-3.296875,1.171875-5.5771484,1.4423828l-.0810547-.2753906c1.9882812-.3242188,3.6640625-.859375,5.0263672-1.6054688-.5410156-.4208984-1.0166016-.9179688-1.4267578-1.4912109-.9951172.8867188-2.0488281,1.5458984-3.1621094,1.9775391l-.1777344-.2099609c.7451172-.4326172,1.4423828-.9736328,2.0908203-1.6220703s1.15625-1.2910156,1.5244141-1.9287109c-.1513672-.0546875-.2568359-.140625-.3164062-.2597656s-.0888672-.2919922-.0888672-.5185547v-.859375c0-.3349609-.0166016-.6484375-.0488281-.9404297.8320312.3027344,1.2480469.5292969,1.2480469.6806641,0,.0322266-.0322266.0703125-.0966797.1132812l-.1943359.1298828v.7460938c0,.0869141.0234375.140625.0722656.1621094s.1650391.0322266.3486328.0322266h1.1025391c.5839844,0,.9296875-.0048828,1.0380859-.015625.0537109,0,.0996094-.0087891.1376953-.0244141.0371094-.0166016.0615234-.0458984.0732422-.0898438.0966797-.1074219.2207031-.4316406.3720703-.9726562h.1787109l.0488281.9726562c.140625.0439453.2373047.0947266.2919922.1542969.0537109.0595703.0810547.1328125.0810547.21875,0,.140625-.0625.2490234-.1865234.3242188-.125.0761719-.3486328.1328125-.6728516.1708984-.3242188.0371094-.7949219.0566406-1.4111328.0566406h-.7939453l.4375.0966797c-.0429688.1728516-.2597656.2597656-.6484375.2597656-.0761719.1083984-.2109375.2705078-.4052734.4863281h3.0800781l.2919922-.2919922.1865234-.1865234c.0810547-.0810547.1542969-.1210938.21875-.1210938.0976562,0,.2861328.1347656.5673828.4052734s.421875.4648438.421875.5830078c-.0644531.0761719-.1455078.125-.2431641.1464844s-.2431641.0322266-.4375.0322266c-.5195312.6699219-1.1894531,1.2597656-2.0107422,1.7675781,1.15625.3994141,2.7080078.6318359,4.6533203.6972656Zm-9.046875-5.3505859c.2373047-.3134766.3671875-.6484375.3886719-1.0048828l.2919922.015625c.0322266.1943359.0488281.3730469.0488281.5351562,0,.4326172-.0869141.8056641-.2597656,1.1191406s-.3779297.5507812-.6162109.7128906c-.1728516.1191406-.3505859.1787109-.5341797.1787109-.2060547,0-.3466797-.0703125-.421875-.2109375-.0214844-.0429688-.0322266-.1025391-.0322266-.1787109,0-.1943359.1181641-.3671875.3564453-.5185547.28125-.1191406.5400391-.3349609.7783203-.6484375Zm5.8037109-5.6582031h-4.6201172v.859375h4.6201172v-.859375Zm0,1.3291016h-4.6201172v.859375h4.6201172v-.859375Zm0,1.3457031h-4.6201172v.8759766h4.6201172v-.8759766Zm-.5830078,5.7880859h-3.3564453l-.1455078.1298828c.5078125.5507812,1.1074219,1.0048828,1.7998047,1.3613281.6699219-.4316406,1.2373047-.9287109,1.7021484-1.4912109Zm-2.5458984-4.296875c.6376953.0976562,1.1083984.2705078,1.4111328.5195312.3017578.2490234.453125.5019531.453125.7617188,0,.1191406-.0371094.2216797-.1132812.3085938-.0751953.0859375-.1669922.1289062-.2753906.1289062-.0869141,0-.1835938-.0263672-.2919922-.0810547-.0966797-.2480469-.2724609-.5126953-.5263672-.7939453-.2548828-.28125-.5166016-.5136719-.7871094-.6972656l.1298828-.1464844Z"/>
          <path class="cls-2" d="m490.1015971,9.4158999c.0332031-.0429688.0869141-.1152344.1621094-.21875.0761719-.1025391.1386719-.1777344.1865234-.2265625.0488281-.0488281.0947266-.0732422.1376953-.0732422.0654297,0,.2138672.0888672.4462891.2675781s.4482422.3681641.6484375.5673828c.2001953.2001953.2998047.3378906.2998047.4140625-.0322266.1728516-.1669922.2587891-.4052734.2587891h-4.5390625v5.7236328c0,.1513672.0341797.2480469.1044922.2919922.0703125.0429688.2519531.0644531.5439453.0644531h1.5078125c.6806641,0,1.1503906-.0107422,1.4101562-.0322266.0976562-.0107422.1650391-.0322266.203125-.0654297.0371094-.0322266.078125-.0966797.1210938-.1943359.1083984-.28125.2705078-1.1347656.4863281-2.5615234h.2275391l.0478516,2.6748047c.1621094.0654297.2705078.1328125.3242188.203125.0546875.0703125.0810547.1650391.0810547.2832031,0,.1728516-.0751953.3085938-.2265625.4052734-.1513672.0976562-.4355469.1679688-.8515625.2109375s-1.0292969.0654297-1.8398438.0654297h-1.6533203c-.421875,0-.7382812-.0322266-.9492188-.0976562-.2099609-.0644531-.3564453-.1757812-.4375-.3320312-.0810547-.1572266-.1210938-.3808594-.1210938-.6728516v-5.9667969h-2.3837891c-.1191406,1.3837891-.3759766,2.5429688-.7695312,3.4775391-.3955078.9355469-.9951172,1.7294922-1.7998047,2.3837891-.8056641.6533203-1.8886719,1.1972656-3.2509766,1.6289062l-.0976562-.2587891c1.1455078-.5302734,2.0507812-1.1269531,2.7158203-1.7919922.6650391-.6640625,1.1484375-1.4287109,1.4511719-2.2939453.3027344-.8642578.4921875-1.9130859.5673828-3.1455078h-1.9287109c-.7685547.0107422-1.5791016.0869141-2.4326172.2275391l-.4052734-.8271484c.5947266.0644531,1.3134766.1083984,2.15625.1298828h4.5078125v-3.3242188h-3.2109375c-.6376953,1.1679688-1.3564453,2.0859375-2.15625,2.7568359l-.2109375-.1621094c.4755859-.6708984.9189453-1.4755859,1.3300781-2.4160156.2158203-.4970703.4052734-1.0839844.5673828-1.7587891.1621094-.6757812.2480469-1.2412109.2597656-1.6943359.6044922.1728516,1.0292969.3105469,1.2724609.4130859s.3642578.1865234.3642578.2509766c0,.0439453-.0478516.0869141-.1455078.1298828l-.2919922.1298828c-.1943359.6162109-.4433594,1.2431641-.7460938,1.8808594h2.9677734c0-1.2539062-.0654297-2.3027344-.1953125-3.1455078,1.1132812.3027344,1.6699219.5351562,1.6699219.6972656,0,.0537109-.0429688.1083984-.1289062.1621094l-.2763672.1787109v2.1074219h3.015625l.3574219-.5029297c.0537109-.0644531.1074219-.1347656.1621094-.2109375.0537109-.0751953.1074219-.1425781.1621094-.2021484.0537109-.0595703.1025391-.0898438.1455078-.0898438.0644531,0,.2109375.0869141.4375.2597656.2275391.1728516.4384766.359375.6328125.5595703s.2919922.3378906.2919922.4130859c-.0332031.1621094-.1679688.2431641-.4052734.2431641h-4.7998047v3.3242188h4.3134766l.3720703-.5195312Z"/>
          <path class="cls-2" d="m496.5547221,14.3455874c.3994141.1289062.5996094.2480469.5996094.3564453,0,.0429688-.0595703.0810547-.1777344.1132812l-.2919922.0644531c-.28125.5302734-.6435547,1.0625-1.0869141,1.5976562s-.9238281.9804688-1.4423828,1.3369141l-.1787109-.1943359c.1083984-.1298828.2705078-.3457031.4863281-.6484375.2490234-.3789062.4785156-.8183594.6894531-1.3212891s.359375-.9755859.4453125-1.4189453c-.1728516.1083984-.3837891.1621094-.6318359.1621094-.0761719,0-.1484375-.0341797-.21875-.1054688-.0703125-.0693359-.1054688-.1425781-.1054688-.21875.0429688-.6376953.0810547-1.2558594.1132812-1.8564453.0322266-.5996094.0537109-1.3857422.0644531-2.3583984v-3.1621094c0-1.3613281-.0703125-2.4697266-.2099609-3.3232422l1.3291016.5673828h2.2861328l.2431641-.3564453c.0214844-.0332031.0566406-.0839844.1054688-.1542969s.0917969-.1240234.1298828-.1621094c.0371094-.0380859.078125-.0566406.1210938-.0566406.1083984,0,.3164062.140625.6240234.4208984.3085938.28125.4628906.4814453.4628906.6005859-.1191406.1513672-.3300781.2539062-.6328125.3076172v5.4150391c.0214844,1.3408203.0644531,2.6103516.1298828,3.8105469-.0869141.0966797-.2167969.1894531-.3896484.2753906-.1728516.0869141-.3623047.1298828-.5673828.1298828-.0751953,0-.1318359-.0322266-.1699219-.0976562-.0380859-.0644531-.0566406-.1396484-.0566406-.2265625l.0644531-.2597656v-.3076172h-2.5292969v.6484375l.7949219.421875Zm1.734375-9.9228516h-2.5292969v2.3994141h2.5292969v-2.3994141Zm0,2.8857422h-2.5292969v2.4648438h2.5292969v-2.4648438Zm0,2.9511719h-2.5292969v2.5449219h2.5292969v-2.5449219Zm.9082031,6.1523438c-.1083984.125-.2382812.1865234-.3886719.1865234-.1621094,0-.3085938-.0585938-.4384766-.1777344-.0429688-.3574219-.1621094-.7490234-.3564453-1.1757812s-.4052734-.7919922-.6318359-1.0947266l.1621094-.1132812c.6259766.2597656,1.0859375.5625,1.3779297.9082031s.4375.6757812.4375.9892578c0,.1943359-.0537109.3535156-.1621094.4775391Zm9.3066406.3808594l-.0488281.1621094c-.2167969.0224609-.4111328.0976562-.5839844.2275391s-.3076172.3076172-.4052734.5351562c-1.1992188-.7138672-2.1884766-1.6591797-2.9667969-2.8378906-.9726562,1.1679688-2.2480469,2.1132812-3.8261719,2.8378906l-.1621094-.2431641c1.4589844-.8544922,2.6425781-1.9560547,3.5507812-3.3076172-.8330078-1.5244141-1.4003906-3.4375-1.703125-5.7392578h-.6152344v.5185547c0,1.2001953-.0625,2.3017578-.1865234,3.3076172-.125,1.0048828-.3955078,2-.8105469,2.9833984-.4169922.9833984-1.0302734,1.8476562-1.8408203,2.59375l-.2587891-.1787109c.8535156-1.1123047,1.4238281-2.375,1.7099609-3.7851562.2861328-1.4111328.4296875-3.0507812.4296875-4.9208984v-2.6269531c0-1.1123047-.0537109-2.015625-.1621094-2.7070312l1.296875.5996094h4.3613281l.2919922-.4375c.0322266-.0429688.078125-.1083984.1376953-.1943359.0595703-.0869141.1103516-.1513672.1542969-.1953125.0429688-.0429688.0859375-.0644531.1298828-.0644531.0644531,0,.1992188.078125.4052734.2353516.2050781.15625.3945312.3242188.5673828.5019531.1728516.1787109.2587891.3056641.2587891.3818359-.0429688.1728516-.1777344.2587891-.4052734.2587891h-6.0791016v3.2431641h4.4423828l.2753906-.3242188c.0322266-.0332031.0917969-.0947266.1777344-.1865234.0869141-.0917969.1621094-.1376953.2275391-.1376953.0966797,0,.3027344.1484375.6162109.4453125.3134766.2978516.4697266.5058594.4697266.6240234-.0537109.0761719-.1269531.1279297-.21875.1542969-.0917969.0273438-.2246094.0517578-.3974609.0732422-.4970703,2.2695312-1.2480469,4.1230469-2.2529297,5.5605469.8964844,1.1132812,2.0371094,1.9941406,3.4208984,2.6425781Zm-5.8212891-8.3652344c.3466797,1.9560547.9619141,3.6152344,1.8486328,4.9775391.8105469-1.4267578,1.3886719-3.0859375,1.7353516-4.9775391h-3.5839844Z"/>
          <path class="cls-2" d="m515.7666361,11.1668764c.4970703,0,.7460938.0546875.7460938.1621094,0,.0654297-.0595703.1298828-.1787109.1953125l-.2753906.1777344c-.0322266,1.0488281-.2080078,1.9541016-.5263672,2.7158203-.3193359.7626953-.8974609,1.4375-1.7353516,2.0263672-.8378906.5898438-2.0244141,1.0566406-3.5585938,1.4033203l-.1132812-.2597656c1.2314453-.3671875,2.1992188-.8242188,2.9023438-1.3701172.7021484-.5458984,1.2050781-1.1914062,1.5078125-1.9375.2158203-.5292969.3242188-1.1621094.3242188-1.8964844,0-.4433594-.0488281-.8974609-.1464844-1.3623047l1.0537109.1455078Zm7.0849609-2.0097656c.0332031-.0429688.0947266-.1162109.1865234-.21875s.1708984-.1542969.2353516-.1542969.1943359.0888672.3896484.2675781c.1943359.1787109.3779297.3671875.5507812.5673828s.2597656.3378906.2597656.4130859c-.1083984.1083984-.3144531.1679688-.6162109.1787109-.2490234.3134766-.5917969.6699219-1.0292969,1.0703125-.4384766.3994141-.8515625.7402344-1.2412109,1.0214844l-.1777344-.1464844c.3779297-.6162109.7460938-1.3349609,1.1025391-2.15625h-10.0195312c.0214844.5302734-.0546875.9892578-.2275391,1.3779297-.1728516.3896484-.3886719.6757812-.6484375.859375-.2050781.1513672-.421875.2275391-.6484375.2275391s-.3886719-.0917969-.4863281-.2763672c-.0322266-.0859375-.0488281-.1669922-.0488281-.2431641,0-.1181641.0410156-.2314453.1220703-.3398438s.1865234-.2001953.3154297-.2763672c.3466797-.2050781.6357422-.5429688.8681641-1.0126953.2324219-.4707031.3320312-.9755859.2998047-1.515625l.2587891-.0166016c.0761719.2265625.1298828.4697266.1621094.7294922h10.0849609l.3076172-.3564453Zm-1.3613281-2.3183594c.0322266-.0546875.0830078-.1269531.1542969-.21875.0693359-.0917969.1269531-.1621094.1699219-.2109375s.0859375-.0732422.1298828-.0732422c.0644531,0,.2080078.0839844.4296875.2509766.2207031.1679688.4267578.3486328.6162109.5439453.1884766.1943359.2832031.3291016.2832031.4052734-.0429688.1728516-.1728516.2587891-.3886719.2587891h-8.2529297c-.7675781.0107422-1.578125.0869141-2.4316406.2275391l-.421875-.8271484c.5947266.0644531,1.3134766.1083984,2.15625.1298828h2.8378906v-1.9941406h-3.4052734c-.7675781.0107422-1.578125.0859375-2.4316406.2265625l-.4375-.8271484c.59375.0654297,1.3125.1083984,2.15625.1298828h4.1181641c0-.7998047-.0380859-1.4589844-.1142578-1.9775391.5947266.1728516,1.0078125.3105469,1.2402344.4130859s.3486328.1923828.3486328.2675781c0,.0644531-.0478516.1240234-.1455078.1787109l-.2753906.1777344v.9404297h4.3291016l.3398438-.5019531c.0537109-.0654297.1083984-.1357422.1621094-.2109375.0537109-.0761719.1083984-.1435547.1621094-.203125.0537109-.0585938.1025391-.0888672.1464844-.0888672.0644531,0,.2080078.0869141.4296875.2597656.2207031.1728516.4296875.359375.6240234.5585938.1943359.2001953.2919922.3378906.2919922.4140625-.0439453.1621094-.1845703.2431641-.421875.2431641h-6.0634766v1.9941406h3.3398438l.3242188-.4863281Zm-3.0478516,6.90625c0-1.15625-.0595703-2.0751953-.1787109-2.7558594.5732422.1728516.9697266.3134766,1.1914062.421875.2216797.1074219.3330078.1943359.3330078.2587891,0,.0439453-.0380859.0917969-.1142578.1464844l-.2265625.1455078v4.2158203c0,.1289062.0380859.2158203.1132812.2587891.0751953.0439453.2539062.0654297.5351562.0654297h1.5888672c.8427734,0,1.3291016-.0058594,1.4589844-.0166016.0976562-.0107422.1650391-.0292969.203125-.0566406.0371094-.0273438.078125-.078125.1210938-.1542969.0869141-.2050781.2431641-.875.4707031-2.0107422h.1943359l.0322266,2.0761719c.1728516.0644531.2861328.1289062.3408203.1943359.0537109.0644531.0810547.15625.0810547.2753906,0,.1621094-.0761719.2919922-.2275391.3886719-.1513672.0976562-.4375.1679688-.8583984.2109375-.421875.0429688-1.0380859.0654297-1.8486328.0654297h-1.71875c-.421875,0-.7373047-.0322266-.9482422-.0976562-.2109375-.0644531-.3544922-.1728516-.4296875-.3242188-.0761719-.1513672-.1132812-.3671875-.1132812-.6484375v-2.6591797Z"/>
          <path class="cls-2" d="m538.1728861,3.9530092c.0332031-.0546875.0839844-.1269531.1542969-.2197266.0703125-.0917969.1269531-.1621094.1699219-.2099609.0429688-.0488281.0869141-.0732422.1298828-.0732422.0654297,0,.2080078.0839844.4296875.2509766.2216797.1679688.4296875.3486328.6240234.5429688.1953125.1953125.2919922.3300781.2919922.4052734-.0322266.1738281-.1679688.2597656-.4052734.2597656h-10.8955078v11.203125h9.7607422l.3730469-.5185547c.0429688-.0537109.1025391-.1298828.1777344-.2275391.0761719-.0966797.1386719-.1699219.1865234-.21875.0488281-.0478516.0947266-.0722656.1376953-.0722656.0654297,0,.2167969.0888672.4541016.2675781.2382812.1777344.4599609.3701172.6650391.5751953s.3076172.3457031.3076172.421875c-.0429688.1728516-.1777344.2587891-.4052734.2587891h-11.6572266v.2919922c.0107422.1083984.0195312.2050781.0244141.2919922.0058594.0859375.0136719.1455078.0244141.1787109-.0322266.1074219-.1347656.2128906-.3076172.3154297s-.3789062.1542969-.6162109.1542969c-.0869141,0-.1650391-.0351562-.2353516-.1054688s-.1054688-.1435547-.1054688-.21875c.0429688-.6376953.0810547-1.2568359.1132812-1.8564453.0332031-.5996094.0546875-1.3867188.0654297-2.359375v-6.1933594c0-1.3613281-.0703125-2.4697266-.2109375-3.3232422l1.4267578.6650391h8.9980469l.3242188-.4863281Zm-8.4794922,11.3808594l-.1777344-.2265625c.8212891-.5839844,1.6259766-1.2949219,2.4150391-2.1318359.7890625-.8378906,1.5244141-1.7646484,2.2050781-2.78125-1.1132812-1.0585938-2.3994141-2.0371094-3.8583984-2.9345703l.1455078-.2587891c1.6435547.7998047,3.0380859,1.6152344,4.1835938,2.4482422l.5839844-1.0058594c.2587891-.4755859.5019531-1.0019531.7294922-1.5800781.2265625-.578125.3828125-1.0888672.4697266-1.5322266,1.0263672.4755859,1.5400391.7832031,1.5400391.9238281,0,.0546875-.0537109.0976562-.1621094.1298828l-.3076172.0810547c-.5947266,1.3076172-1.2753906,2.5078125-2.0429688,3.5996094.9833984.7998047,1.7021484,1.5429688,2.15625,2.2285156.4541016.6865234.6806641,1.2568359.6806641,1.7109375,0,.1943359-.0400391.3457031-.1210938.4541016-.0810547.1074219-.1865234.1621094-.3164062.1621094-.140625,0-.2919922-.0654297-.4541016-.1943359-.2265625-.5087891-.5537109-1.0703125-.9804688-1.6865234-.4277344-.6162109-.9433594-1.2373047-1.5488281-1.8642578-1.4804688,1.9023438-3.1933594,3.3876953-5.1396484,4.4580078Z"/>
          <path class="cls-2" d="m552.6025736,6.3680483c.0322266-.0429688.0869141-.1162109.1621094-.21875s.1464844-.1542969.2109375-.1542969c.1074219,0,.3242188.1494141.6484375.4462891s.4863281.5048828.4863281.6240234c-.1298828.1513672-.3515625.2597656-.6650391.3242188v3.2431641c.0214844,1.3398438.0654297,2.6103516.1298828,3.8095703-.0644531.0976562-.1972656.1943359-.3974609.2919922-.1992188.0976562-.375.1455078-.5263672.1455078-.0654297,0-.1162109-.0322266-.1542969-.0966797-.0380859-.0654297-.0566406-.140625-.0566406-.2275391l.0644531-.3564453v-.3564453h-5.5117188v.7939453c0,.0654297-.0839844.140625-.2519531.2275391-.1669922.0859375-.3427734.1298828-.5263672.1298828-.0761719,0-.1464844-.0332031-.2109375-.0976562s-.0976562-.140625-.0976562-.2265625c.0761719-1.0166016.1240234-2.1347656.1464844-3.3564453v-1.8486328c0-1.3613281-.0703125-2.4697266-.2109375-3.3232422l1.2480469.5830078h2.15625v-2.171875h-3.8261719c-.7675781.0107422-1.578125.0869141-2.4316406.2265625l-.421875-.8261719c.5947266.0644531,1.3134766.1074219,2.15625.1289062h9.890625l.3564453-.5019531c.0429688-.0546875.0996094-.1269531.1699219-.21875s.1298828-.1621094.1787109-.2109375.0947266-.0732422.1376953-.0732422c.0644531,0,.2158203.0869141.4541016.2597656.2373047.1728516.4589844.3564453.6650391.5507812.2050781.1943359.3076172.3300781.3076172.4052734-.0429688.1728516-.1787109.2597656-.4052734.2597656h-6.2255859v2.171875h2.0908203l.2597656-.3564453Zm2.4648438,3.3398438c0-1.3613281-.0712891-2.4697266-.2109375-3.3232422,1.0800781.3027344,1.6210938.5292969,1.6210938.6806641,0,.0546875-.0429688.1083984-.1298828.1621094l-.2753906.1787109v6.0146484c.0214844,1.3408203.0644531,2.6103516.1298828,3.8105469-.0654297.1181641-.1923828.2265625-.3808594.3242188-.1894531.0966797-.3710938.1455078-.5439453.1455078-.1835938,0-.2753906-.1083984-.2753906-.3242188l.0654297-.4863281v-.421875h-10.6845703v.3242188c.0107422.1191406.0185547.2275391.0244141.3242188.0048828.0976562.0126953.1679688.0244141.2109375-.0224609.1083984-.1220703.2138672-.3007812.3164062-.1777344.1025391-.359375.1542969-.5429688.1542969-.0966797,0-.1835938-.0322266-.2587891-.0976562-.0761719-.0644531-.1142578-.140625-.1142578-.2265625.0439453-.6376953.0810547-1.2568359.1142578-1.8564453.0322266-.6005859.0537109-1.3867188.0644531-2.359375v-3.5341797c0-1.3623047-.0703125-2.4697266-.2109375-3.3242188,1.0703125.3027344,1.6054688.5302734,1.6054688.6816406,0,.0537109-.0439453.1074219-.1298828.1621094l-.2753906.1621094v8.5761719h10.6845703v-6.2744141Zm-5.8212891.1787109v-2.6914062h-2.2529297v2.6914062h2.2529297Zm0,.4697266h-2.2529297v3h2.2529297v-3Zm3.2587891-.4697266v-2.6914062h-2.2529297v2.6914062h2.2529297Zm-2.2529297.4697266v3h2.2529297v-3h-2.2529297Z"/>
          <path class="cls-2" d="m564.0088236,16.339728c-.7734375-.3896484-1.1601562-1.1083984-1.1601562-2.1572266,0-.8427734.2353516-1.5400391.7060547-2.0908203.4697266-.5517578,1.0341797-1.0322266,1.6943359-1.4433594-.4326172-.3027344-.7382812-.6484375-.9160156-1.0371094-.1787109-.3896484-.2675781-.8867188-.2675781-1.4921875,0-.5507812.0751953-1.1728516.2265625-1.8642578.1191406-.5400391.1787109-1,.1787109-1.3779297,0-.2373047-.0273438-.4326172-.0810547-.5839844-.0546875-.1513672-.1464844-.2919922-.2763672-.421875-.0751953-.0751953-.1484375-.1425781-.21875-.2021484s-.1054688-.0996094-.1054688-.1220703c0-.0644531.0761719-.0966797.2275391-.0966797.1074219,0,.2373047.0185547.3886719.0566406s.28125.0839844.3896484.1376953c.2802734.140625.4775391.3027344.5917969.4863281.1132812.1835938.1699219.4326172.1699219.7460938,0,.1835938-.0214844.3642578-.0644531.5429688-.0439453.1787109-.0927734.3457031-.1464844.5029297-.0537109.15625-.0917969.2617188-.1132812.3154297-.0107422.0332031-.0546875.1523438-.1298828.3574219-.1083984.2373047-.1894531.4726562-.2431641.7050781s-.0810547.5214844-.0810547.8671875c0,.3134766.0517578.6191406.1542969.9160156.1025391.2978516.2353516.5410156.3974609.7294922.1621094.1894531.3291016.2841797.5019531.2841797.1191406,0,.28125-.0380859.4863281-.1132812.2050781-.0761719.4111328-.1630859.6162109-.2597656.4326172-.2050781.71875-.3085938.859375-.3085938.2050781,0,.4082031.0625.6083984.1865234.1992188.125.2998047.2519531.2998047.3818359,0,.1943359-.0761719.3349609-.2275391.4208984-.1513672.0869141-.3886719.1572266-.7128906.2109375-.9619141.1728516-1.8916016.4921875-2.7890625.9570312-.8964844.4648438-1.3457031,1.2480469-1.3457031,2.3505859,0,.5615234.2050781,1.0322266.6162109,1.4101562.4111328.3789062,1.0273438.5673828,1.8486328.5673828.28125,0,.5615234-.0214844.8427734-.0644531s.4482422-.0703125.5029297-.0810547c.4970703-.0869141.8486328-.1298828,1.0537109-.1298828.6054688,0,.9082031.1787109.9082031.5351562,0,.2490234-.2431641.4375-.7294922.5673828s-1.1464844.1943359-1.9785156.1943359c-1.015625,0-1.9101562-.1943359-2.6826172-.5830078Z"/>
          <path class="cls-2" d="m580.0674174,6.8387514c-.4003906,1.0917969-.8408203,2.2724609-1.3212891,3.5419922-.4814453,1.2705078-.8730469,2.2841797-1.1757812,3.0400391-.0537109.1298828-.1435547.2382812-.2675781.3242188-.1240234.0869141-.2460938.1298828-.3642578.1298828-.140625,0-.2431641-.0751953-.3085938-.2265625-.0644531-.1513672-.0966797-.3408203-.0966797-.5673828,0-.1191406.0078125-.2001953.0234375-.2441406.0166016-.0429688.0517578-.1074219.1054688-.1943359.1191406-.2158203.2216797-.4101562.3085938-.5830078.1943359-.421875.4316406-.8867188.7128906-1.3945312.3789062-.7353516.6943359-1.3759766.9492188-1.921875.2529297-.5449219.4726562-1.0996094.65625-1.6611328-.2490234.0537109-.4541016.0810547-.6162109.0810547-.4541016,0-.8212891-.1025391-1.1025391-.3085938-.28125-.2050781-.4921875-.4375-.6318359-.6972656-.0761719-.1181641-.1142578-.2265625-.1142578-.3242188,0-.0644531.0273438-.0966797.0810547-.0966797.0429688,0,.1191406.0537109.2275391.1621094.2373047.2265625.6269531.3398438,1.1669922.3398438.3242188,0,.7460938-.0810547,1.2646484-.2431641.0429688-.1835938.0654297-.3945312.0654297-.6318359,0-.3457031-.0712891-.6210938-.2109375-.8271484-.0869141-.1298828-.2089844-.2353516-.3652344-.3164062s-.2353516-.1376953-.2353516-.1699219c0-.0429688.0351562-.0810547.1054688-.1132812s.1542969-.0488281.2519531-.0488281c.1513672,0,.3017578.0273438.4541016.0810547.3242188.1083984.5556641.2431641.6962891.4052734s.2109375.3681641.2109375.6162109c0,.2167969-.0380859.4433594-.1132812.6806641l.2919922-.1455078c.0859375-.0537109.1621094-.1054688.2265625-.1542969.0654297-.0488281.0976562-.0947266.0976562-.1376953s-.0488281-.1025391-.1455078-.1787109c-.0439453-.0322266-.1054688-.0693359-.1865234-.1132812-.0810547-.0429688-.1220703-.0810547-.1220703-.1132812,0-.0429688.0488281-.0644531.1455078-.0644531l.5839844.015625c.0751953,0,.1699219-.015625.2841797-.0488281.1132812-.0322266.21875-.0478516.3154297-.0478516.1513672,0,.2734375.0458984.3652344.1376953s.1376953.2080078.1376953.3486328c0,.1074219-.0273438.2158203-.0810547.3242188-.0537109.1074219-.1298828.1943359-.2265625.2587891-.6601562.4541016-1.3408203.8164062-2.0429688,1.0869141Zm4.1748047,1.7832031c-.3085938.3349609-.4619141.8378906-.4619141,1.5078125,0,.6162109.0751953,1.4970703.2265625,2.6425781.0654297.4541016.1083984.7949219.1298828,1.0214844.5292969.140625,1.0234375.3105469,1.4833984.5107422.4589844.2001953.796875.4023438,1.0136719.6083984.2373047.2373047.3564453.453125.3564453.6484375,0,.1191406-.0410156.2216797-.1220703.3076172-.0810547.0869141-.1806641.1298828-.2998047.1298828-.0966797,0-.2080078-.0322266-.3320312-.0976562-.1240234-.0644531-.2949219-.1669922-.5107422-.3076172-.4970703-.3242188-1.0048828-.5732422-1.5244141-.7460938.0107422.0869141.0166016.2216797.0166016.4052734,0,.5732422-.2246094,1.0244141-.6728516,1.3544922-.4482422.3291016-.9755859.4941406-1.5810547.4941406-.3671875,0-.7324219-.0732422-1.09375-.21875-.3623047-.1464844-.6601562-.3544922-.8925781-.6240234-.2324219-.2705078-.3476562-.5898438-.3476562-.9570312,0-.5507812.2753906-.9804688.8261719-1.2890625.5517578-.3076172,1.2265625-.4619141,2.0273438-.4619141.2587891,0,.5185547.0214844.7773438.0644531-.0751953-1.1884766-.1132812-1.9833984-.1132812-2.3828125,0-.7460938.0566406-1.3349609.1708984-1.7675781.1132812-.4316406.3476562-.8027344.7050781-1.1103516.3564453-.3076172.9023438-.5751953,1.6376953-.8027344.2050781-.0537109.3076172-.15625.3076172-.3076172,0-.1298828-.078125-.2861328-.2353516-.4707031-.15625-.1835938-.3154297-.3349609-.4775391-.4541016-.0654297-.0537109-.0976562-.0908203-.0976562-.1132812,0-.0214844.0380859-.0322266.1132812-.0322266.0869141,0,.2109375.0185547.3730469.0566406s.3027344.0839844.421875.1376953c.3671875.1621094.7236328.4082031,1.0693359.7382812.3457031.3291016.5195312.6396484.5195312.9316406,0,.1943359-.0761719.3623047-.2275391.5029297s-.3242188.2109375-.5185547.2109375c-.1191406,0-.2275391-.0244141-.3242188-.0732422-.0976562-.0488281-.2167969-.1269531-.3564453-.2353516-.1513672-.1074219-.2841797-.1884766-.3974609-.2431641-.1132812-.0537109-.2460938-.0810547-.3974609-.0810547-.4863281,0-.8837891.1679688-1.1914062.5029297Zm-1.2724609,7.1904297c.1943359-.296875.296875-.7109375.3076172-1.2402344-.4541016-.0976562-.8867188-.1455078-1.296875-.1455078-.4863281,0-.8974609.0751953-1.2324219.2265625s-.5029297.3730469-.5029297.6650391c0,.3027344.1484375.5351562.4462891.6972656.296875.1621094.6455078.2431641,1.0458984.2431641.6269531,0,1.0371094-.1484375,1.2324219-.4462891Z"/>
          <path class="cls-2" d="m600.0742533,6.9032045c.3671875.3457031.6640625.8330078.8916016,1.4589844.2265625.6269531.3398438,1.3515625.3398438,2.1728516,0,1.6435547-.3535156,3.0263672-1.0615234,4.1503906s-1.8730469,1.9511719-3.4941406,2.4804688c-.1191406.0429688-.2158203.0654297-.2919922.0654297-.0966797,0-.1455078-.0380859-.1455078-.1142578,0-.0429688.0273438-.0810547.0810547-.1132812,1.4052734-.59375,2.3916016-1.4804688,2.9589844-2.6582031.5673828-1.1787109.8515625-2.4160156.8515625-3.7128906,0-1.0166016-.1357422-1.8837891-.40625-2.6025391-.2695312-.71875-.6318359-1.078125-1.0859375-1.078125-.3564453,0-.6972656.21875-1.0214844.65625-.3242188.4384766-.5888672.9511719-.7939453,1.5410156-.2060547.5888672-.3085938,1.078125-.3085938,1.4667969,0,.1835938.0302734.359375.0898438.5273438.0585938.1669922.1484375.359375.2666016.5751953.0654297.1298828.125.2646484.1787109.4052734s.0810547.2597656.0810547.3564453c0,.1083984-.0351562.1972656-.1054688.2675781s-.1650391.1054688-.2832031.1054688c-.2705078,0-.5087891-.1269531-.7138672-.3808594s-.359375-.5673828-.4619141-.9404297-.1542969-.7265625-.1542969-1.0615234c0-.4541016.0566406-.9736328.1708984-1.5566406.1132812-.5839844.2675781-1.2919922.4619141-2.1240234.0966797-.4111328.1835938-.8056641.2587891-1.1835938.0761719-.3779297.1142578-.6484375.1142578-.8105469,0-.2490234-.0810547-.4589844-.2431641-.6328125-.0546875-.0644531-.1279297-.1376953-.2197266-.21875s-.1376953-.1484375-.1376953-.2021484c0-.0546875.0380859-.0976562.1142578-.1298828.0751953-.0322266.1669922-.0488281.2753906-.0488281.2695312,0,.5019531.1220703.6972656.3652344.1943359.2431641.2919922.5537109.2919922.9316406,0,.3564453-.046875.7167969-.1386719,1.078125-.0917969.3623047-.2294922.8300781-.4130859,1.4023438l-.1621094.4863281c-.1083984.3242188-.1787109.6650391-.2109375,1.0214844.3349609-.7558594.7050781-1.3564453,1.1103516-1.7988281.40625-.4433594.9003906-.6650391,1.484375-.6650391.3886719,0,.7666016.1728516,1.1347656.5185547Z"/>
          <path class="cls-2" d="m617.405308,15.1561342c.5195312.3779297.7783203.8046875.7783203,1.2802734,0,.1621094-.0380859.2734375-.1132812.3330078-.0761719.0585938-.1572266.0888672-.2431641.0888672-.1943359,0-.4052734-.1025391-.6328125-.3085938-.0537109-.0537109-.2568359-.2402344-.6074219-.5585938-.3515625-.3193359-.7275391-.6083984-1.1269531-.8681641-.0976562.5839844-.3730469,1.0458984-.8271484,1.3867188s-1.0429688.5107422-1.7666016.5107422c-.6269531,0-1.1894531-.1376953-1.6865234-.4130859-.4970703-.2763672-.7460938-.6679688-.7460938-1.1757812,0-.3564453.1328125-.6621094.3974609-.9160156s.5947266-.4433594.9892578-.5673828.7910156-.1865234,1.1914062-.1865234c.3779297,0,.9023438.0751953,1.5722656.2265625l-.0322266-.4052734c-.0751953-1.1347656-.1240234-1.9453125-.1455078-2.4316406-.7138672.1191406-1.28125.1777344-1.7021484.1777344-.5839844,0-1.0839844-.1103516-1.5-.3320312s-.7216797-.5322266-.9160156-.9316406c-.0322266-.0869141-.0488281-.1464844-.0488281-.1787109,0-.0537109.0214844-.0810547.0654297-.0810547.0322266,0,.0693359.015625.1132812.0488281.0429688.0322266.0751953.0537109.0966797.0644531.2050781.140625.4863281.2841797.84375.4296875.3564453.1455078.7617188.21875,1.2158203.21875.1513672,0,.3945312-.015625.7294922-.0488281.3349609-.0322266.6914062-.0810547,1.0703125-.1455078-.0107422-.1083984-.0166016-.2539062-.0166016-.4375,0-.9296875.0273438-1.7246094.0810547-2.3837891-.0537109.0107422-.140625.0166016-.2597656.0166016-.2910156,0-.5615234-.0488281-.8105469-.1464844-.2050781-.0859375-.4267578-.2207031-.6640625-.4052734-.2382812-.1835938-.4111328-.3505859-.5195312-.5019531-.0751953-.1191406-.1132812-.2001953-.1132812-.2431641s.0214844-.0654297.0654297-.0654297c.0644531,0,.1503906.0273438.2587891.0810547l.3408203.1787109c.1728516.1083984.3291016.1865234.4697266.2353516.140625.0478516.3193359.0722656.5351562.0722656.1728516,0,.4375-.0371094.7949219-.1132812.0107422-.0751953.0371094-.2460938.0810547-.5107422.0429688-.2646484.0644531-.515625.0644531-.7539062,0-.3349609-.0595703-.6269531-.1787109-.875-.0644531-.1298828-.1669922-.2763672-.3076172-.4384766-.0537109-.0644531-.1025391-.1289062-.1455078-.1943359-.0439453-.0644531-.0654297-.1191406-.0654297-.1621094,0-.0644531.0351562-.1191406.1054688-.1621094s.1591797-.0644531.2675781-.0644531.2646484.0400391.4707031.1210938c.2050781.0810547.3886719.2060547.5507812.3730469.1621094.1679688.2431641.3808594.2431641.640625,0,.1513672-.0322266.3642578-.0976562.640625-.0644531.2753906-.1347656.5322266-.2099609.7695312l-.0976562.4541016.9238281-.2753906c.0976562-.0322266.1894531-.0488281.2763672-.0488281.1181641,0,.2158203.0273438.2910156.0810547.0761719.0546875.1142578.1357422.1142578.2431641,0,.1083984-.0410156.2167969-.1220703.3242188-.0810547.1083984-.1972656.1943359-.3486328.2597656-.3457031.1513672-.7724609.28125-1.2802734.3886719-.0654297.6484375-.0976562,1.3085938-.0976562,1.9785156,0,.2158203.0107422.4755859.0322266.7783203.5185547-.1191406.9345703-.2871094,1.2490234-.5029297.1621094-.1191406.2431641-.2431641.2431641-.3730469s-.0976562-.3134766-.2919922-.5507812c-.0224609-.0332031-.0517578-.0732422-.0898438-.1220703s-.0722656-.0996094-.1054688-.1542969c-.0751953-.1181641-.1132812-.1992188-.1132812-.2431641,0-.0322266.0166016-.0488281.0488281-.0488281.0429688,0,.140625.0595703.2919922.1787109.2480469.2050781.5400391.3457031.875.421875.1191406.0322266.2431641.0537109.3730469.0644531.1728516.0214844.3027344.0761719.3896484.1621094.0751953.0761719.1132812.1894531.1132812.3408203,0,.1621094-.0546875.3242188-.1621094.4863281-.1083984.1621094-.2753906.296875-.5029297.4052734-.2158203.0976562-.5351562.2138672-.9560547.3486328-.421875.1347656-.859375.2568359-1.3134766.3642578.0322266.4873047.1240234,1.2490234.2753906,2.2861328l.1298828.9404297c.7783203.2382812,1.4267578.5458984,1.9453125.9248047Zm-3.3886719.6640625c.3681641-.2695312.5625-.6591797.5839844-1.1669922-.5732422-.2490234-1.1513672-.3730469-1.734375-.3730469-.4648438,0-.8896484.1005859-1.2734375.2998047-.3837891.2001953-.5751953.4677734-.5751953.8027344,0,.2597656.1591797.4648438.4785156.6162109.3183594.1513672.6728516.2265625,1.0615234.2265625.6054688,0,1.0917969-.1347656,1.4589844-.4052734Z"/>
          <path class="cls-2" d="m636.9101908,6.5711733c.1289062.0810547.1943359.2080078.1943359.3808594,0,.2919922-.1787109.4375-.5351562.4375-.0107422,0-.2216797-.0214844-.6328125-.0644531-1.2099609-.140625-2.1992188-.2109375-2.9667969-.2109375-.4433594,0-.8701172.0166016-1.2802734.0488281-.0224609.9296875-.0332031,1.6376953-.0332031,2.1240234,0,.5185547.0058594.875.0166016,1.0693359.2158203.3896484.3867188.8193359.5107422,1.2890625.1240234.4707031.1865234.8945312.1865234,1.2734375,0,.8964844-.2109375,1.6591797-.6328125,2.2851562-.4208984.6269531-.9130859,1.1113281-1.4746094,1.4511719-.5625.3408203-1.0810547.5703125-1.5566406.6894531-.0761719.0214844-.1298828.0322266-.1621094.0322266-.0761719,0-.1132812-.0273438-.1132812-.0810547,0-.0751953.0585938-.1347656.1777344-.1787109,1.0917969-.4863281,1.8134766-1.0996094,2.1650391-1.8398438.3505859-.7402344.5263672-1.3857422.5263672-1.9375v-.0810547c-.0537109.1191406-.1972656.2490234-.4296875.3896484s-.4296875.2099609-.5917969.2099609c-.3134766,0-.5859375-.1103516-.8183594-.3320312s-.4189453-.4892578-.5595703-.8027344c-.1298828-.2802734-.2324219-.578125-.3076172-.8916016-.0761719-.3134766-.1142578-.5996094-.1142578-.859375,0-.5078125.1376953-.9423828.4140625-1.3046875.2753906-.3623047.6621094-.5429688,1.1591797-.5429688.2802734,0,.5400391.0859375.7783203.2587891.1181641-.5722656.1777344-1.2910156.1777344-2.15625-.6054688.0761719-1.1972656.203125-1.7753906.3808594-.578125.1787109-1.2070312.4189453-1.8886719.7216797-.2373047.1083984-.4482422.1943359-.6318359.2597656-.1845703.0644531-.3945312.0966797-.6328125.0966797-.3134766,0-.6210938-.0859375-.9238281-.2587891-.2382812-.140625-.4541016-.3134766-.6484375-.5195312-.1943359-.2050781-.2919922-.3613281-.2919922-.4697266,0-.0644531.0380859-.0976562.1132812-.0976562.1083984,0,.2539062.0273438.4375.0810547.3574219.0761719.6376953.1142578.84375.1142578.3564453,0,.7451172-.0488281,1.1669922-.1464844.4111328-.0859375,1.0292969-.2021484,1.8564453-.3486328.8271484-.1455078,1.6181641-.2783203,2.375-.3974609-.0214844-.6367188-.0429688-1.0800781-.0644531-1.3291016-.0107422-.2695312-.0703125-.5214844-.1787109-.7539062-.1074219-.2324219-.2216797-.3974609-.3398438-.4941406-.0761719-.0654297-.1542969-.1240234-.2353516-.1787109-.0810547-.0537109-.1220703-.0976562-.1220703-.1298828,0-.0751953.0673828-.1347656.203125-.1777344.1347656-.0429688.2675781-.0654297.3974609-.0654297.1943359,0,.3828125.0439453.5673828.1298828.4638672.2050781.6972656.4648438.6972656.7783203,0,.0429688-.0273438.1894531-.0810547.4375,1.0371094.6269531,1.8583984,1.0273438,2.4638672,1.2001953.3027344.0869141.5839844.1484375.8427734.1865234.2597656.0380859.4873047.0625.6816406.0722656.2695312.0224609.4208984.0380859.4541016.0488281.2802734.0546875.4863281.1220703.6162109.203125Zm-6.2509766,5.7958984c.1464844-.1835938.21875-.4863281.21875-.9082031,0-.3886719-.0751953-.7939453-.2265625-1.2158203s-.3886719-.6318359-.7128906-.6318359c-.2919922,0-.5273438.1347656-.7060547.4052734-.1777344.2705078-.2675781.6269531-.2675781,1.0693359,0,.3789062.1191406.7324219.3574219,1.0625.2373047.3300781.4970703.4941406.7783203.4941406.2265625,0,.4130859-.0917969.5585938-.2753906Zm2.3837891-5.9580078c.1025391-.0058594.1787109-.0166016.2265625-.0322266.0488281-.0166016.0732422-.0410156.0732422-.0732422,0-.0429688-.0351562-.0869141-.1054688-.1298828s-.1162109-.0751953-.1376953-.0976562l-1.296875-.9238281c-.0322266.3027344-.0595703.7675781-.0810547,1.3945312.4863281-.0751953.8486328-.1191406,1.0859375-.1298828.0537109,0,.1328125-.0029297.2353516-.0078125Z"/>
          <path class="cls-2" d="m640.9873393,17.2557436c-.3300781-.1894531-.5898438-.4462891-.7783203-.7705078-.1894531-.3242188-.2841797-.6806641-.2841797-1.0703125,0-.3779297.0947266-.7294922.2841797-1.0537109.1884766-.3242188.4482422-.5810547.7783203-.7695312.3291016-.1894531.6835938-.2841797,1.0615234-.2841797.3789062,0,.7294922.0947266,1.0537109.2841797.3242188.1884766.5810547.4453125.7705078.7695312.1884766.3242188.2841797.6757812.2841797,1.0537109,0,.3896484-.0957031.7460938-.2841797,1.0703125-.1894531.3242188-.4462891.5810547-.7705078.7705078-.3242188.1884766-.6748047.2832031-1.0537109.2832031-.3779297,0-.7324219-.0947266-1.0615234-.2832031Zm2.2773438-.625c.3349609-.3349609.5029297-.7402344.5029297-1.2158203,0-.4648438-.1679688-.8642578-.5029297-1.1992188s-.7402344-.5029297-1.2158203-.5029297-.8808594.1679688-1.2158203.5029297-.5029297.734375-.5029297,1.1992188c0,.4755859.1679688.8808594.5029297,1.2158203s.7402344.5029297,1.2158203.5029297.8808594-.1679688,1.2158203-.5029297Z"/>
        </g>
        <rect class="cls-5" x="28.4502522" width="79.3411403" height="19.4304833"/>
      </g>
    </g>
  </g>
</svg>