<?xml version="1.0" encoding="UTF-8"?>
<svg id="_レイヤー_2" data-name="レイヤー 2" xmlns="http://www.w3.org/2000/svg" xmlns:xlink="http://www.w3.org/1999/xlink" viewBox="0 0 776 116.1693071">
  <defs>
    <style>
      .cls-1 {
        fill: none;
        stroke: #231815;
        stroke-miterlimit: 10;
      }

      .cls-2 {
        fill: #286f7c;
      }

      .cls-2, .cls-3, .cls-4, .cls-5, .cls-6, .cls-7 {
        stroke-width: 0px;
      }

      .cls-3 {
        fill: #231815;
      }

      .cls-4 {
        fill: url(#_ゴールド);
      }

      .cls-5 {
        fill: #7d4822;
      }

      .cls-6 {
        fill: url(#_ゴールド-2);
      }

      .cls-7 {
        fill: #c49d80;
      }
    </style>
    <linearGradient id="_ゴールド" data-name="ゴールド" x1="314" y1="17" x2="656" y2="17" gradientUnits="userSpaceOnUse">
      <stop offset=".005618" stop-color="#fbcf00"/>
      <stop offset=".252809" stop-color="#fffcd1"/>
      <stop offset=".2956658" stop-color="#faf3bf"/>
      <stop offset=".3808509" stop-color="#eedd92"/>
      <stop offset=".4990769" stop-color="#dbba4b"/>
      <stop offset=".595506" stop-color="#cb9b0c"/>
      <stop offset=".7957031" stop-color="#e7cd67"/>
      <stop offset=".870786" stop-color="#f3e18b"/>
      <stop offset="1" stop-color="#fffcd1"/>
    </linearGradient>
    <linearGradient id="_ゴールド-2" data-name="ゴールド" x1="-109.1385734" y1="-146.1385734" x2="78.3947359" y2="41.3947359" xlink:href="#_ゴールド"/>
  </defs>
  <g id="_レイヤー_1-2" data-name="レイヤー 1">
    <rect class="cls-4" x="314" y="12" width="342" height="10"/>
    <g>
      <path class="cls-2" d="m125.8095703,20.4628906h-7.2890625l-.2001953-.4404297c.3730469-1.0283203.8476562-1.9628906,1.421875-2.8037109.5732422-.8408203,1.3417969-1.8427734,2.3027344-3.0039062.9746094-1.1347656,1.6826172-2.0722656,2.1230469-2.8134766s.6601562-1.4990234.6601562-2.2734375c0-.7207031-.2001953-1.3544922-.6005859-1.9023438-.4003906-.546875-1.0283203-.8212891-1.8818359-.8212891-.6279297,0-1.1621094.1572266-1.6025391.4707031-.4404297.3144531-.6611328.6982422-.6611328,1.1513672,0,.1738281.0234375.3212891.0703125.4414062s.1230469.2529297.2304688.4003906c.0927734.1464844.1630859.2773438.2099609.390625s.0703125.25.0703125.4101562c0,.3203125-.0966797.5771484-.2900391.7705078-.1943359.1943359-.4443359.2910156-.7509766.2910156-.2675781,0-.5107422-.1298828-.7314453-.390625-.2197266-.2607422-.3300781-.6171875-.3300781-1.0712891,0-.4941406.1503906-1.0146484.4501953-1.5625.3007812-.546875.7539062-1.0107422,1.3623047-1.3916016.6074219-.3808594,1.3515625-.5703125,2.2324219-.5703125.9619141,0,1.7353516.1894531,2.3232422.5703125.5869141.3808594,1.0048828.8544922,1.2519531,1.421875.2460938.5673828.3701172,1.1582031.3701172,1.7724609,0,.5605469-.09375,1.0517578-.2802734,1.4716797-.1875.4208984-.4404297.8076172-.7607422,1.1621094-.3203125.3535156-.8017578.8242188-1.4423828,1.4111328-.1464844.1474609-.3339844.3203125-.5605469.5205078-.2275391.2001953-.4873047.4482422-.78125.7412109-1.3349609,1.3486328-2.3359375,2.7441406-3.0039062,4.1855469h2.3837891c.9736328,0,1.7021484-.0566406,2.1826172-.1699219s.84375-.3173828,1.0908203-.6113281c.2470703-.2929688.4912109-.7675781.7314453-1.421875.0263672-.0800781.0732422-.1201172.1396484-.1201172.0136719,0,.0732422.0136719.1806641.0400391.0800781.0273438.140625.0537109.1806641.0800781.0400391.0273438.0595703.0673828.0595703.1201172l-.0195312.1005859-.8417969,3.4443359Z"/>
      <path class="cls-3" d="m129.2148438,22.5458984c-.0273438-.0400391-.0400391-.0742188-.0400391-.1005859s.0126953-.0537109.0400391-.0800781c.2402344-.2138672.4228516-.4277344.5498047-.640625.1269531-.2138672.1904297-.4003906.1904297-.5605469,0-.2138672-.0869141-.3671875-.2597656-.4609375-.2275391-.1074219-.4042969-.2333984-.53125-.3808594-.1269531-.1464844-.1904297-.3398438-.1904297-.5800781,0-.3203125.1074219-.5878906.3212891-.8007812.2128906-.2138672.4736328-.3212891.7802734-.3212891.3076172,0,.5673828.1103516.78125.3310547.2138672.2197266.3203125.4970703.3203125.8310547,0,.6142578-.1835938,1.1679688-.5507812,1.6621094-.3671875.4931641-.7841797.8740234-1.2509766,1.1416016l-.0605469.0195312c-.0400391,0-.0732422-.0195312-.0996094-.0595703Z"/>
      <path class="cls-2" d="m157.3515625,17.1787109h-2.2636719v1.9824219c0,.2939453.1269531.4873047.3808594.5810547s.5869141.1396484,1.0009766.1396484h.2607422c.1201172,0,.1806641.09375.1806641.2802734,0,.2001953-.0605469.3007812-.1806641.3007812h-4.8066406c-.1064453,0-.1601562-.1005859-.1601562-.3007812,0-.1865234.0537109-.2802734.1601562-.2802734h.2607422c.4140625,0,.7470703-.0458984,1.0009766-.1396484s.3808594-.2871094.3808594-.5810547v-1.9824219h-5.3867188v-.8408203l6.1074219-10.59375.8007812.1796875v10.4140625h2.2636719v.8408203Zm-3.7851562-8.53125l-4.4257812,7.6904297h4.4257812v-7.6904297Z"/>
      <path class="cls-3" d="m159.3144531,22.5458984c-.0273438-.0400391-.0400391-.0742188-.0400391-.1005859s.0126953-.0537109.0400391-.0800781c.2402344-.2138672.4228516-.4277344.5498047-.640625.1269531-.2138672.1904297-.4003906.1904297-.5605469,0-.2138672-.0869141-.3671875-.2597656-.4609375-.2275391-.1074219-.4042969-.2333984-.53125-.3808594-.1269531-.1464844-.1904297-.3398438-.1904297-.5800781,0-.3203125.1074219-.5878906.3212891-.8007812.2128906-.2138672.4736328-.3212891.7802734-.3212891.3076172,0,.5673828.1103516.78125.3310547.2138672.2197266.3203125.4970703.3203125.8310547,0,.6142578-.1835938,1.1679688-.5507812,1.6621094-.3671875.4931641-.7841797.8740234-1.2509766,1.1416016l-.0605469.0195312c-.0400391,0-.0732422-.0195312-.0996094-.0595703Z"/>
      <path class="cls-5" d="m185.0478516,6.5244141c.6943359.5078125,1.234375,1.21875,1.6220703,2.1328125.3867188.9150391.5810547,1.9667969.5810547,3.1542969,0,1.9091797-.2675781,3.5419922-.8017578,4.8964844-.5341797,1.3554688-1.2050781,2.3701172-2.0126953,3.0439453-.8076172.6748047-1.5986328,1.0117188-2.3730469,1.0117188-.6142578,0-1.1445312-.0908203-1.5917969-.2705078-.4472656-.1806641-.7841797-.4169922-1.0107422-.7109375-.2275391-.2939453-.3408203-.6005859-.3408203-.921875,0-.2802734.0966797-.5166016.2900391-.7109375.1933594-.1933594.4238281-.2900391.6914062-.2900391.2802734,0,.5273438.1240234.7412109.3710938.2128906.2470703.3330078.5703125.3603516.9707031.0263672.3076172.1064453.5341797.2402344.6806641.1328125.1474609.3535156.2207031.6601562.2207031.6943359,0,1.2822266-.3632812,1.7626953-1.0917969.4804688-.7275391.8476562-1.6220703,1.1015625-2.6835938.2529297-1.0605469.4208984-2.1259766.5009766-3.1933594-.4013672.6542969-.8955078,1.1484375-1.4824219,1.4814453-.5878906.3339844-1.1953125.5009766-1.8222656.5009766-.7744141,0-1.4423828-.1972656-2.0029297-.5908203s-.9882812-.9111328-1.28125-1.5517578c-.2939453-.6416016-.4404297-1.3291016-.4404297-2.0634766,0-.9208984.1767578-1.7753906.5302734-2.5625.3535156-.7880859.8544922-1.4150391,1.5019531-1.8828125.6474609-.4667969,1.3916016-.7011719,2.2333984-.7011719.8671875,0,1.6484375.2539062,2.3427734.7607422Zm-.6914062,7.0595703c.5273438-.3935547.9111328-1.0048828,1.1523438-1.8320312-.0136719-1.4824219-.2109375-2.7236328-.5908203-3.7255859-.3808594-1.0009766-1.1191406-1.5019531-2.2128906-1.5019531-.4941406,0-.9316406.1806641-1.3125.5410156-.3798828.3603516-.6777344.8544922-.890625,1.4824219-.2138672.6269531-.3203125,1.328125-.3203125,2.1025391,0,1.4150391.2705078,2.3564453.8105469,2.8232422.5410156.4677734,1.125.7011719,1.7529297.7011719.546875,0,1.0839844-.1972656,1.6113281-.5908203Z"/>
      <path class="cls-3" d="m189.9941406,22.5458984c-.0273438-.0400391-.0400391-.0742188-.0400391-.1005859s.0126953-.0537109.0400391-.0800781c.2402344-.2138672.4228516-.4277344.5498047-.640625.1269531-.2138672.1904297-.4003906.1904297-.5605469,0-.2138672-.0869141-.3671875-.2597656-.4609375-.2275391-.1074219-.4042969-.2333984-.53125-.3808594-.1269531-.1464844-.1904297-.3398438-.1904297-.5800781,0-.3203125.1074219-.5878906.3212891-.8007812.2128906-.2138672.4736328-.3212891.7802734-.3212891.3076172,0,.5673828.1103516.78125.3310547.2138672.2197266.3203125.4970703.3203125.8310547,0,.6142578-.1835938,1.1679688-.5507812,1.6621094-.3671875.4931641-.7841797.8740234-1.2509766,1.1416016l-.0605469.0195312c-.0400391,0-.0732422-.0195312-.0996094-.0595703Z"/>
      <path class="cls-7" d="m210.1806641,20.4628906c-.09375,0-.140625-.0927734-.140625-.2802734,0-.2001953.046875-.3007812.140625-.3007812h.3203125c.6533203,0,1.1816406-.0996094,1.5820312-.2998047s.6005859-.5136719.6005859-.9414062v-9.5927734c0-.4003906-.0371094-.6708984-.1103516-.8105469-.0732422-.140625-.2470703-.2333984-.5205078-.2802734s-.7841797-.0703125-1.5322266-.0703125h-.3398438c-.09375,0-.140625-.1005859-.140625-.3007812,0-.1865234.046875-.2802734.140625-.2802734.8408203,0,1.5878906-.1230469,2.2421875-.3701172s1.2753906-.6445312,1.8623047-1.1914062v12.8964844c0,.828125.7275391,1.2412109,2.1835938,1.2412109h.2998047c.0537109,0,.0908203.0234375.1103516.0703125.0205078.046875.0302734.1240234.0302734.2304688,0,.1875-.046875.2802734-.140625.2802734h-6.5878906Z"/>
      <path class="cls-7" d="m226.6015625,20.4628906h-7.2890625l-.2001953-.4404297c.3730469-1.0283203.8476562-1.9628906,1.421875-2.8037109.5732422-.8408203,1.3417969-1.8427734,2.3027344-3.0039062.9746094-1.1347656,1.6826172-2.0722656,2.1230469-2.8134766s.6601562-1.4990234.6601562-2.2734375c0-.7207031-.2001953-1.3544922-.6005859-1.9023438-.4003906-.546875-1.0283203-.8212891-1.8818359-.8212891-.6279297,0-1.1621094.1572266-1.6025391.4707031-.4404297.3144531-.6611328.6982422-.6611328,1.1513672,0,.1738281.0234375.3212891.0703125.4414062s.1230469.2529297.2304688.4003906c.0927734.1464844.1630859.2773438.2099609.390625s.0703125.25.0703125.4101562c0,.3203125-.0966797.5771484-.2900391.7705078-.1943359.1943359-.4443359.2910156-.7509766.2910156-.2675781,0-.5107422-.1298828-.7314453-.390625-.2197266-.2607422-.3300781-.6171875-.3300781-1.0712891,0-.4941406.1503906-1.0146484.4501953-1.5625.3007812-.546875.7539062-1.0107422,1.3623047-1.3916016.6074219-.3808594,1.3515625-.5703125,2.2324219-.5703125.9619141,0,1.7353516.1894531,2.3232422.5703125.5869141.3808594,1.0048828.8544922,1.2519531,1.421875.2460938.5673828.3701172,1.1582031.3701172,1.7724609,0,.5605469-.09375,1.0517578-.2802734,1.4716797-.1875.4208984-.4404297.8076172-.7607422,1.1621094-.3203125.3535156-.8017578.8242188-1.4423828,1.4111328-.1464844.1474609-.3339844.3203125-.5605469.5205078-.2275391.2001953-.4873047.4482422-.78125.7412109-1.3349609,1.3486328-2.3359375,2.7441406-3.0039062,4.1855469h2.3837891c.9736328,0,1.7021484-.0566406,2.1826172-.1699219s.84375-.3173828,1.0908203-.6113281c.2470703-.2929688.4912109-.7675781.7314453-1.421875.0263672-.0800781.0732422-.1201172.1396484-.1201172.0136719,0,.0732422.0136719.1806641.0400391.0800781.0273438.140625.0537109.1806641.0800781.0400391.0273438.0595703.0673828.0595703.1201172l-.0195312.1005859-.8417969,3.4443359Z"/>
      <path class="cls-3" d="m248.4101562,14.6953125c.0273438-.0400391.0732422-.1035156.140625-.1904297.0664062-.0859375.1269531-.1494141.1806641-.1904297.0527344-.0400391.1064453-.0595703.1601562-.0595703.1201172,0,.3730469.1875.7607422.5605469.3867188.3740234.5810547.6347656.5810547.78125-.1738281.1738281-.4414062.2675781-.8017578.2802734-.1865234,1.3349609-.4638672,2.5068359-.8310547,3.5146484s-.7841797,1.6787109-1.2509766,2.0126953c-.5478516.4130859-1.2958984.6210938-2.2431641.6210938,0-.4541016-.140625-.7617188-.4208984-.921875-.1601562-.1064453-.4433594-.2099609-.8505859-.3105469-.4082031-.0996094-.8447266-.1835938-1.3125-.25l.0205078-.3408203c.2402344.0273438.4404297.0400391.6005859.0400391,1.3349609.1337891,2.2158203.2001953,2.6435547.2001953.2138672,0,.3808594-.0126953.5009766-.0400391.1201172-.0263672.2333984-.0800781.3398438-.1601562.2939453-.2265625.5839844-.7568359.8710938-1.5917969.2871094-.8339844.5244141-1.8125.7109375-2.9335938h-8.9111328c-.3603516.8808594-.5947266,1.4414062-.7011719,1.6816406-.1601562.0673828-.3203125.1005859-.4804688.1005859-.2539062,0-.5341797-.0595703-.8408203-.1806641.2666016-.4931641.5800781-1.2041016.9414062-2.1318359.3603516-.9287109.6474609-1.7529297.8603516-2.4736328h-1.4619141c-.8271484.0136719-1.7089844.1074219-2.6425781.2802734l-.5214844-1.0410156c.734375.0800781,1.6220703.1337891,2.6640625.1601562h12.4960938l.4003906-.6005859c.0400391-.0537109.0996094-.1367188.1806641-.2509766.0800781-.1132812.1494141-.2001953.2099609-.2597656.0595703-.0605469.1162109-.0908203.1699219-.0908203.0800781,0,.2539062.1035156.5205078.3105469.2675781.2070312.5175781.4306641.7509766.6708984s.3505859.4072266.3505859.5009766c-.0400391.2138672-.2070312.3203125-.5009766.3203125h-11.2539062c-.1201172.3740234-.3544922,1.0009766-.7011719,1.8828125l-.2001953.5400391h8.53125l.3398438-.4404297Zm-.4003906-10.3330078c.0400391-.0537109.1103516-.1435547.2109375-.2705078.0996094-.1269531.1894531-.1904297.2695312-.1904297s.2441406.09375.4912109.2802734c.2470703.1875.4736328.390625.6806641.6113281.2070312.2197266.3105469.3769531.3105469.4707031-.0673828.0800781-.1738281.15625-.3203125.2294922-.1474609.0742188-.3144531.1308594-.5009766.1708984v1.6015625c.0263672,1.3085938.0664062,2.3300781.1201172,3.0644531-.0800781.1201172-.25.2373047-.5107422.3505859-.2597656.1132812-.4902344.1699219-.6904297.1699219-.1601562,0-.2402344-.1337891-.2402344-.4003906.0126953-.0400391.0224609-.0839844.0292969-.1308594.0068359-.0458984.0166016-.0966797.0302734-.1494141v-.3603516h-8.9316406v.8603516c0,.0800781-.1201172.1738281-.3603516.2802734-.2402344.1074219-.4804688.1601562-.7207031.1601562-.0800781,0-.1474609-.0400391-.2001953-.1201172-.0537109-.0800781-.0800781-.1728516-.0800781-.2802734.0527344-.4931641.0927734-1.1279297.1201172-1.9023438v-1.1611328c0-1.4951172-.0732422-2.6835938-.2207031-3.5644531l1.5625.7402344h8.6308594l.3203125-.4599609Zm-.1201172,4.8857422v-3.8447266h-8.9316406v3.8447266h8.9316406Z"/>
      <path class="cls-3" d="m269.1376953,4.8828125c.0400391-.0664062.1035156-.1572266.1904297-.2705078s.15625-.2001953.2099609-.2607422c.0537109-.0595703.1074219-.0898438.1601562-.0898438.0800781,0,.2568359.1035156.53125.3105469.2734375.2070312.5302734.4306641.7705078.6708984s.3603516.4072266.3603516.5009766c-.0400391.2138672-.2070312.3203125-.5.3203125h-13.4580078v13.8378906h12.0556641l.4609375-.640625c.0527344-.0673828.1269531-.1601562.2197266-.2802734.09375-.1210938.1708984-.2109375.2304688-.2705078.0605469-.0605469.1171875-.0908203.1708984-.0908203.0800781,0,.2666016.1103516.5605469.3310547.2929688.2197266.5673828.4570312.8212891.7109375.2529297.2539062.3798828.4267578.3798828.5205078-.0537109.2138672-.2197266.3203125-.5.3203125h-14.3994141v.3603516c.0136719.1337891.0234375.2539062.0302734.3603516.0068359.1074219.0166016.1806641.0302734.2207031-.0400391.1328125-.1669922.2636719-.3808594.390625-.2138672.1259766-.4667969.1904297-.7607422.1904297-.1074219,0-.2041016-.0439453-.2900391-.1308594-.0869141-.0869141-.1308594-.1767578-.1308594-.2705078.0537109-.7871094.1005859-1.5517578.140625-2.2929688.0400391-.7402344.0664062-1.7119141.0800781-2.9130859v-7.6503906c0-1.6816406-.0869141-3.0507812-.2607422-4.1054688l1.7626953.8212891h11.1142578l.4003906-.6005859Zm-10.4736328,14.0585938l-.2197266-.28125c1.0136719-.7207031,2.0087891-1.5986328,2.9833984-2.6328125s1.8828125-2.1796875,2.7236328-3.4345703c-1.375-1.3085938-2.9638672-2.5166016-4.7666016-3.625l.1806641-.3203125c2.0292969.9882812,3.7509766,1.9960938,5.1669922,3.0244141l.7207031-1.2421875c.3203125-.5869141.6210938-1.2382812.9013672-1.9521484s.4736328-1.3447266.5800781-1.8925781c1.2685547.5878906,1.9033203.9677734,1.9033203,1.1416016,0,.0664062-.0673828.1201172-.2011719.1601562l-.3798828.0996094c-.734375,1.6162109-1.5751953,3.0976562-2.5234375,4.4462891,1.2148438.9882812,2.1025391,1.90625,2.6630859,2.7539062.5615234.8476562.8417969,1.5517578.8417969,2.1123047,0,.2402344-.0507812.4277344-.1503906.5605469-.1005859.1337891-.2304688.2001953-.390625.2001953-.1738281,0-.3603516-.0800781-.5605469-.2402344-.2802734-.6269531-.6845703-1.3212891-1.2119141-2.0830078-.5273438-.7607422-1.1650391-1.5283203-1.9121094-2.3027344-1.8291016,2.3505859-3.9453125,4.1855469-6.3486328,5.5078125Z"/>
      <path class="cls-3" d="m280.1728516,10.8505859c0,.0537109-.0205078.1396484-.0605469.2597656-.4941406,1.4023438-.9208984,2.7236328-1.28125,3.9658203-.3603516,1.2412109-.5410156,2.1162109-.5410156,2.6230469,0,.2001953.0605469.6347656.1806641,1.3017578.1064453.5341797.1601562.875.1601562,1.0214844,0,.1865234-.046875.34375-.140625.4707031s-.2197266.1904297-.3798828.1904297c-.2539062,0-.4541016-.0800781-.6015625-.2412109-.1464844-.1601562-.3203125-.4130859-.5205078-.7607422-.4941406-.8007812-.7412109-1.96875-.7412109-3.5039062,0-.7480469.0703125-1.6425781.2109375-2.6835938.1396484-1.0419922.3164062-2.0830078.5302734-3.1240234.0537109-.2402344.0869141-.4140625.1005859-.5205078.0927734-.4140625.1728516-.8183594.2402344-1.2119141.0664062-.3935547.0996094-.7314453.0996094-1.0117188,0-.3330078-.0234375-.5800781-.0693359-.7402344-.0478516-.1601562-.1572266-.3945312-.3310547-.7011719-.0400391-.0800781-.0595703-.140625-.0595703-.1806641,0-.0527344.0166016-.0996094.0498047-.1396484s.0761719-.0605469.1298828-.0605469c.0800781,0,.1933594.0605469.3408203.1806641.3203125.3066406.6103516.6708984.8710938,1.0908203.2597656.4208984.390625.8251953.390625,1.2119141,0,.2675781-.0439453.5478516-.1308594.8408203-.0869141.2939453-.2236328.6884766-.4101562,1.1816406l-.2802734.7607422c-.2402344.6816406-.4208984,1.3789062-.5410156,2.0927734-.1201172.7148438-.1796875,1.3789062-.1796875,1.9931641,0,.734375.0859375,1.1015625.2597656,1.1015625.1074219,0,.2373047-.1640625.390625-.4912109s.3769531-.8574219.6708984-1.5917969c.4404297-1.1083984.9013672-2.1826172,1.3818359-3.2246094.0537109-.1328125.1201172-.2001953.2001953-.2001953.0400391,0,.0605469.0341797.0605469.1005859Zm10.7333984,8.7314453c0,.1464844-.046875.2802734-.1396484.4003906-.09375.1201172-.2138672.1796875-.3603516.1796875-.1738281,0-.3544922-.0625-.5410156-.1894531-.1875-.1269531-.3740234-.2734375-.5605469-.4414062-.1875-.1660156-.3271484-.2900391-.4208984-.3701172-.2675781-.2265625-.5410156-.4208984-.8212891-.5810547-.1865234-.1064453-.3603516-.2001953-.5205078-.2802734-.0400391.7617188-.2939453,1.3554688-.7607422,1.7822266-.4677734.4277344-1.1816406.6416016-2.1425781.6416016-.7880859,0-1.4755859-.1777344-2.0634766-.53125-.5869141-.3535156-.8808594-.8642578-.8808594-1.5322266,0-.7734375.4072266-1.3017578,1.2216797-1.5820312s1.5888672-.4199219,2.3232422-.4199219c.4003906,0,.7607422.0263672,1.0810547.0800781,0-.3476562-.0068359-.7011719-.0195312-1.0615234-.0136719-.3603516-.0273438-.7080078-.0400391-1.0410156l-.0800781-3.2441406c-.1201172.0263672-.3007812.0527344-.5410156.0800781-.09375.0126953-.2402344.0195312-.4404297.0195312-.5878906,0-1.0849609-.1103516-1.4921875-.3300781-.4072266-.2207031-.7841797-.5908203-1.1318359-1.1113281-.0664062-.09375-.0996094-.1806641-.0996094-.2607422,0-.0927734.0400391-.140625.1201172-.140625.0400391,0,.1035156.0302734.1904297.0908203.0869141.0595703.1435547.1035156.1699219.1298828.1865234.1474609.3974609.2734375.6308594.3808594.2333984.1064453.5371094.1601562.9111328.1601562.3466797,0,.9013672-.0800781,1.6621094-.2402344-.0136719-.4541016-.0195312-1.0878906-.0195312-1.9023438v-1.0214844c0-.5742188-.2871094-.9951172-.8613281-1.2617188-.1201172-.0664062-.1806641-.1269531-.1806641-.1806641,0-.0800781.0771484-.1533203.2304688-.2197266.1533203-.0673828.4111328-.1005859.7714844-.1005859.3867188,0,.7373047.1171875,1.0507812.3505859s.4707031.4707031.4707031.7109375c0,.0273438-.0400391.1601562-.1201172.4003906-.09375.1875-.1601562.3671875-.2001953.5410156-.0537109.2539062-.0800781.3935547-.0800781.4199219.6142578.4677734,1.1142578.7480469,1.5019531.8417969.1201172.0263672.2832031.0595703.4902344.0996094s.3505859.0869141.4306641.140625.1337891.1337891.1601562.2402344c.0273438.0800781.0400391.1669922.0400391.2597656,0,.2939453-.2597656.5742188-.7802734.8417969-.8417969.4003906-1.5224609.6806641-2.0429688.8408203v.1201172c0,1.2011719.1132812,2.6972656.3408203,4.4853516.0263672.2011719.0732422.6142578.1396484,1.2421875,1.2148438.3603516,2.1630859.8808594,2.84375,1.5615234.3740234.3740234.5605469.7080078.5605469,1.0019531Zm-5.1660156-.1601562c.3603516-.2539062.5605469-.7880859.6005859-1.6025391-.6542969-.2001953-1.2753906-.2998047-1.8623047-.2998047-.5341797,0-1.0253906.0761719-1.4726562.2294922-.4472656.1542969-.6708984.4248047-.6708984.8115234,0,.4277344.2304688.7412109.6914062.9414062s.9238281.2998047,1.3916016.2998047c.5205078,0,.9609375-.1259766,1.3222656-.3798828Zm1.3212891-9.4921875c.8144531-.2675781,1.2216797-.4941406,1.2216797-.6816406,0-.0664062-.0898438-.1767578-.2705078-.3300781s-.34375-.2832031-.4902344-.390625c-.1474609-.1064453-.2607422-.1933594-.3408203-.2597656l-.1201172,1.6621094Z"/>
      <path class="cls-3" d="m294.9716797,17.7792969c-.0527344-.0400391-.1230469-.0927734-.2099609-.1601562-.0869141-.0664062-.1298828-.1201172-.1298828-.1601562,0-.0664062.046875-.1005859.1396484-.1005859.0537109,0,.1738281.0273438.3613281.0810547.4130859.1064453.9609375.3330078,1.6416016.6806641.6806641.3466797,1.2851562.7578125,1.8125,1.2314453s.7910156.9511719.7910156,1.4316406c0,.3603516-.0898438.6279297-.2705078.8007812-.1796875.1738281-.3837891.2607422-.6103516.2607422-.3339844,0-.6279297-.2333984-.8818359-.7011719-.8144531-1.4677734-1.6953125-2.5898438-2.6435547-3.3642578Z"/>
      <path class="cls-3" d="m320.5859375,6.8857422c.640625.5869141,1.1474609,1.0673828,1.5214844,1.4414062v.0205078l.3603516-.8212891c.2412109-.6005859.4511719-1.2822266.6308594-2.0429688.1806641-.7607422.2841797-1.4287109.3105469-2.0029297,1.3486328.4013672,2.0224609.6884766,2.0224609.8613281,0,.0673828-.0664062.1201172-.2001953.1601562l-.3798828.1601562c-.2939453,1.0283203-.7011719,2.0361328-1.2216797,3.0244141h6.6279297l.3007812-.4404297c.0400391-.0537109.0898438-.1201172.1503906-.2001953.0595703-.0800781.1132812-.140625.1601562-.1806641s.0966797-.0595703.1503906-.0595703c.0800781,0,.2363281.0869141.4707031.2597656.2333984.1738281.4501953.3642578.6503906.5712891s.3007812.3564453.3007812.4501953c-.1337891.1738281-.4003906.2871094-.8017578.3408203-.1328125,3.390625-.3730469,6.1875-.7207031,8.390625-.3466797,2.203125-.78125,3.5976562-1.3017578,4.1855469-.5605469.6669922-1.3417969.9873047-2.3427734.9609375,0-.4804688-.1269531-.8007812-.3808594-.9609375-.1464844-.1201172-.4169922-.234375-.8105469-.3408203-.3945312-.1074219-.8115234-.1933594-1.2519531-.2607422l.0205078-.3798828c.5332031.0664062,1.1044922.1298828,1.7119141.1904297.6074219.0595703,1.0175781.0898438,1.2314453.0898438s.3808594-.0234375.5009766-.0703125.2529297-.1298828.4003906-.25c.4140625-.3876953.7705078-1.6289062,1.0712891-3.7246094.3007812-2.0966797.53125-4.7666016.6914062-8.0107422h-1.2617188c-.4414062,2.7636719-1.2353516,5.2167969-2.3837891,7.359375s-2.75,3.9355469-4.8056641,5.3769531l-.2001953-.2597656c1.7089844-1.5488281,3.0605469-3.3876953,4.0546875-5.5175781.9951172-2.1289062,1.6455078-4.4492188,1.953125-6.9589844h-1.4423828c-.4804688,1.8554688-1.2148438,3.5576172-2.203125,5.1064453-.9873047,1.5488281-2.2089844,2.8574219-3.6640625,3.9248047l-.2001953-.2597656c1.1748047-1.1210938,2.1689453-2.4462891,2.9833984-3.9755859.8144531-1.5283203,1.3955078-3.1269531,1.7421875-4.7958984h-1.7216797c-.7880859,1.4150391-1.7695312,2.5771484-2.9443359,3.484375l-.2597656-.2197266c.6806641-.7744141,1.328125-1.7890625,1.9423828-3.0439453-.09375.1201172-.2402344.1796875-.4404297.1796875h-2.3837891v4.5263672l2.7441406-.9814453.0996094.2998047-2.84375,1.5419922v2.6835938c.0273438,1.65625.0800781,3.2246094.1601562,4.7060547-.0800781.1474609-.2333984.2802734-.4599609.4003906-.2275391.1201172-.4541016.1806641-.6806641.1806641-.1201172,0-.2246094-.0400391-.3105469-.1201172-.0869141-.0800781-.1308594-.1738281-.1308594-.2802734.09375-1.3486328.1533203-2.8369141.1806641-4.4658203v-2.4433594l-2.1826172,1.1210938c-.0673828.2412109-.2001953.4082031-.4003906.5009766l-.7412109-1.6816406c.6669922-.1601562,1.7753906-.5078125,3.3242188-1.0419922v-4.9462891h-1.5224609c-.4667969,1.4023438-.9804688,2.5107422-1.5419922,3.3242188l-.2998047-.1796875c.2802734-.734375.5410156-1.6425781.78125-2.7236328.1201172-.5205078.2167969-1.1113281.2900391-1.7724609s.1103516-1.2714844.1103516-1.8320312c0-.3212891-.0068359-.5546875-.0205078-.7011719.7080078.1337891,1.2021484.2470703,1.4824219.3398438.2802734.09375.4199219.1806641.4199219.2607422,0,.0537109-.0527344.1132812-.1601562.1806641l-.3398438.1796875c-.2138672,1.0419922-.4003906,1.8164062-.5605469,2.3232422h1.3613281v-.4003906c0-1.6826172-.0869141-3.0507812-.2607422-4.1054688.734375.2138672,1.2490234.390625,1.5419922.5302734.2939453.140625.4414062.2578125.4414062.3505859,0,.0673828-.0537109.1337891-.1611328.2001953l-.3203125.2207031v3.2041016h.5009766l.8613281-1.1611328Z"/>
      <path class="cls-3" d="m337.2275391,10.75c-.734375,1.1748047-1.5351562,2.2236328-2.4033203,3.1445312l-.2597656-.2001953c1.0546875-1.5488281,2.0429688-3.5117188,2.9638672-5.8876953.2402344-.6679688.4667969-1.4150391.6806641-2.2431641.2138672-.8271484.3408203-1.5087891.3808594-2.0429688,1.3476562.4814453,2.0224609.8017578,2.0224609.9619141,0,.0664062-.0673828.1201172-.2001953.1601562l-.3808594.1201172c-.5205078,1.5087891-1.1152344,2.9033203-1.7822266,4.1855469.4541016.3603516.6806641.6201172.6806641.7802734,0,.0673828-.0595703.1337891-.1796875.2011719l-.2802734.1201172v6.7080078c.0263672,1.65625.0800781,3.2246094.1601562,4.7060547-.09375.1201172-.2578125.2402344-.4912109.3603516s-.4570312.1806641-.6708984.1806641c-.1201172,0-.2265625-.0400391-.3203125-.1201172s-.1396484-.1738281-.1396484-.2802734c.0527344-.7880859.0996094-1.5517578.1396484-2.2929688s.0664062-1.7119141.0800781-2.9140625v-5.6474609Zm12.6162109-3.0234375c.0400391-.0537109.1005859-.1367188.1806641-.25s.1503906-.2011719.2099609-.2607422c.0605469-.0605469.1171875-.0898438.1708984-.0898438.0800781,0,.25.1035156.5097656.3095703.2607422.2080078.5009766.4277344.7216797.6611328.2197266.234375.3300781.3974609.3300781.4912109-.0400391.2128906-.2070312.3203125-.5009766.3203125h-4.8457031v4.8857422h3.3242188l.4003906-.6005859c.0400391-.0527344.1005859-.1367188.1806641-.25s.1494141-.2001953.2099609-.2607422c.0595703-.0595703.1162109-.0898438.1699219-.0898438.0800781,0,.2539062.1035156.5205078.3105469.2675781.2070312.5136719.4306641.7412109.6708984.2265625.2402344.3408203.4072266.3408203.5-.0400391.2138672-.2070312.3212891-.5009766.3212891h-5.3867188v2.3828125c.0263672,1.6416016.0800781,3.1835938.1601562,4.6259766-.0800781.1464844-.2402344.2802734-.4804688.4003906s-.4746094.1796875-.7011719.1796875c-.1337891,0-.2470703-.0400391-.3408203-.1201172-.0927734-.0800781-.1396484-.1728516-.1396484-.2802734.0527344-.6943359.0966797-1.3818359.1298828-2.0625s.0566406-1.5419922.0703125-2.5830078v-2.5429688h-2.5429688c-.9482422.0126953-1.9501953.1064453-3.0039062.2802734l-.5009766-1.0419922c.734375.0800781,1.6220703.1337891,2.6630859.1601562h3.3847656v-4.8857422h-3.1640625c-.7607422,1.6289062-1.609375,2.9306641-2.5439453,3.9042969l-.2402344-.2001953c.6015625-1.0410156,1.1416016-2.2695312,1.6220703-3.6845703.2138672-.640625.4013672-1.3876953.5615234-2.2431641.1601562-.8535156.2402344-1.5546875.2402344-2.1025391,1.3476562.4277344,2.0224609.7285156,2.0224609.9013672,0,.0537109-.0605469.1005859-.1806641.140625l-.3603516.1396484c-.2666016.9746094-.5605469,1.8291016-.8808594,2.5634766h2.9238281v-.4208984c0-1.6816406-.0869141-3.0498047-.2607422-4.1044922,1.375.3867188,2.0625.6738281,2.0625.8603516,0,.0673828-.0527344.1337891-.1601562.2001953l-.3398438.2207031v3.2441406h2.8037109l.4199219-.6005859Z"/>
      <path class="cls-3" d="m368.5087891,12.4921875c.0400391-.0527344.0898438-.1201172.1503906-.2001953.0595703-.0800781.1132812-.1396484.1601562-.1796875.0458984-.0400391.0966797-.0605469.1503906-.0605469.0800781,0,.2402344.0908203.4804688.2705078.2402344.1806641.4638672.3779297.6708984.5908203.2060547.2138672.3105469.3671875.3105469.4609375-.1611328.1865234-.4414062.3203125-.8417969.4003906v1.6015625h.4804688l.3808594-.6005859c.0537109-.0664062.1171875-.15625.1904297-.2705078.0732422-.1132812.1367188-.1962891.1904297-.25.0527344-.0537109.1064453-.0800781.1601562-.0800781.0800781,0,.2470703.1035156.5.3105469.2539062.2070312.4873047.4306641.7011719.6708984s.3203125.4072266.3203125.5c-.0537109.2138672-.2197266.3212891-.5.3212891h-2.4238281v1.0410156l.0205078.6210938c.0126953.4667969.0400391.9072266.0800781,1.3212891-.0673828.1201172-.2207031.2441406-.4609375.3701172-.2402344.1269531-.4609375.1904297-.6611328.1904297-.0800781,0-.1435547-.0400391-.1894531-.1201172-.046875-.0800781-.0703125-.1728516-.0703125-.2802734l.0800781-.3203125v-.3808594h-4.2460938v1.6826172c0,.4003906-.0498047.7236328-.1494141.9707031-.1005859.2470703-.3105469.4541016-.6308594.6210938s-.8017578.2832031-1.4423828.3505859c-.0664062-.4404297-.2402344-.7412109-.5205078-.9013672-.3476562-.2402344-.9882812-.4140625-1.9228516-.5205078v-.3203125c1.6025391.1337891,2.5566406.2001953,2.8642578.2001953.2001953,0,.3369141-.0371094.4101562-.1103516s.1103516-.1962891.1103516-.3701172v-1.6025391h-2.6035156c-.9482422.0136719-1.9492188.1074219-3.0039062.2802734l-.5205078-1.0009766c.734375.0800781,1.6220703.1337891,2.6630859.1601562h3.4648438v-1.8818359h-4.7460938c-.9482422.0126953-1.9492188.1064453-3.0039062.2802734l-.5009766-1.0419922c.734375.0800781,1.6220703.1337891,2.6640625.1601562h5.5869141v-1.8417969h-2.4833984c-.9482422.0136719-1.9492188.1064453-3.0039062.2802734l-.5205078-1.0419922c.734375.0810547,1.6220703.1337891,2.6630859.1611328h3.3447266v-1.8427734h-4.1650391v.640625c0,.0673828-.1171875.1503906-.3505859.25-.234375.1005859-.4638672.1503906-.6914062.1503906-.0800781,0-.1464844-.0400391-.2001953-.1201172s-.0800781-.1728516-.0800781-.2802734c.0263672-.1601562.0605469-.5605469.1005859-1.2011719v-.8212891c0-1.0546875-.0537109-1.8955078-.1601562-2.5234375l1.5214844.7412109h4.0253906v-1.5820312h-4.7060547c-.9482422.0136719-1.9492188.1064453-3.0039062.2802734l-.5205078-1.0410156c.734375.0800781,1.6220703.1328125,2.6630859.1601562h5.5673828c0-.8417969-.0400391-1.5625-.1201172-2.1630859,1.2685547.3740234,1.9023438.6611328,1.9023438.8613281,0,.0664062-.0537109.1337891-.1601562.2001953l-.3408203.2197266v.8818359h5.4072266l.4404297-.6015625c.0537109-.0664062.1240234-.15625.2109375-.2695312.0859375-.1132812.1601562-.2001953.2197266-.2607422.0605469-.0595703.1171875-.0898438.1708984-.0898438.0800781,0,.2597656.1064453.5400391.3203125s.5439453.4404297.7910156.6806641.3710938.4072266.3710938.5009766c-.0400391.2138672-.2001953.3203125-.4814453.3203125h-7.6699219v1.5820312h3.9658203l.3203125-.3808594c.0400391-.0400391.1064453-.1162109.2001953-.2304688.0927734-.1132812.1796875-.1699219.2607422-.1699219.0800781,0,.2431641.0800781.4902344.2402344s.4775391.3378906.6904297.53125c.2138672.1933594.3212891.3369141.3212891.4306641-.1611328.1865234-.4345703.3203125-.8212891.4003906v.8808594l.0400391.7207031c0,.1875.0126953.4941406.0400391.9208984-.0537109.1074219-.2041016.2207031-.4511719.3408203s-.4707031.1806641-.6708984.1806641h-.2197266v-.7011719h-4.1660156v1.8427734h4.0458984l.3203125-.4414062Zm-9.8125-3.984375v2.0019531h4.1650391v-2.0019531h-4.1650391Zm9.6123047,2.0019531v-2.0019531h-4.1660156v2.0019531h4.1660156Zm.0800781,3.0244141h-4.2460938v1.8417969h4.2460938v-1.8417969Zm-4.2460938,4.3251953h4.2460938v-1.8818359h-4.2460938v1.8818359Z"/>
      <path class="cls-3" d="m390.1367188,6.8056641c.0537109-.0673828.1240234-.1572266.2109375-.2705078s.1601562-.2001953.2197266-.2607422c.0605469-.0595703.1171875-.0898438.1708984-.0898438.0800781,0,.2597656.1064453.5400391.3203125s.5410156.4443359.78125.6904297c.2402344.2480469.3603516.4179688.3603516.5107422-.0537109.2001953-.2138672.3007812-.4804688.3007812h-13.8378906c-.9482422.0136719-1.9492188.1074219-3.0039062.2802734l-.5205078-1.0214844c.734375.0800781,1.6220703.1337891,2.6630859.1601562h3.8251953c-.1337891,0-.3007812-.0664062-.5009766-.2001953-.0800781-.5332031-.3203125-1.1181641-.7207031-1.7519531s-.8408203-1.1650391-1.3212891-1.5917969l.2197266-.1601562c1.0419922.3466797,1.8095703.7841797,2.3027344,1.3115234.4941406.5273438.7412109,1.0380859.7412109,1.53125,0,.2412109-.0595703.4414062-.1796875.6015625s-.2744141.2470703-.4609375.2597656h3.7851562l.0800781-.1396484c.3466797-.5742188.6669922-1.2148438.9609375-1.9228516.2939453-.7070312.5009766-1.3349609.6210938-1.8828125,1.3613281.4277344,2.0419922.734375,2.0419922.921875,0,.0537109-.0595703.0996094-.1796875.1396484l-.3808594.1201172c-.6005859.8417969-1.4482422,1.7626953-2.5429688,2.7636719h4.1650391l.4404297-.6201172Zm-12.4160156,11.6142578c.0273438,1.2685547.0673828,2.2763672.1201172,3.0244141-.0664062.1328125-.2099609.2597656-.4296875.3798828-.2207031.1201172-.4580078.1806641-.7109375.1806641-.1074219,0-.2041016-.0439453-.2910156-.1298828-.0869141-.0869141-.1298828-.1777344-.1298828-.2705078.0527344-.7880859.0996094-1.5517578.1396484-2.2929688s.0673828-1.7119141.0800781-2.9140625v-2.9433594c0-1.6826172-.0869141-3.0507812-.2597656-4.1054688l1.5820312.7207031h3.4248047l.2802734-.4003906c.0400391-.0400391.0859375-.1005859.1396484-.1806641s.1005859-.1367188.140625-.1699219.0859375-.0498047.1396484-.0498047c.0800781,0,.2470703.0869141.5009766.2597656.2529297.1738281.4902344.3613281.7109375.5615234.2197266.2001953.3300781.3466797.3300781.4404297-.0800781.0800781-.1933594.1572266-.3398438.2304688-.1474609.0732422-.3076172.1230469-.4814453.1494141v9.3125c0,.3867188-.0400391.6943359-.1201172.9208984-.0800781.2275391-.2470703.4140625-.5.5605469-.2539062.1474609-.6279297.2470703-1.1220703.3007812-.0263672-.4140625-.1396484-.7080078-.3398438-.8808594-.2138672-.2138672-.6210938-.3603516-1.2216797-.4404297v-.3212891c.9345703.0800781,1.5087891.1210938,1.7216797.1210938.1337891,0,.2236328-.0302734.2705078-.0908203.046875-.0595703.0703125-.15625.0703125-.2900391v-3.2646484h-3.7050781v1.5820312Zm3.7050781-5.3261719v-2.4238281h-3.7050781v2.4238281h3.7050781Zm-3.7050781.6005859v2.5429688h3.7050781v-2.5429688h-3.7050781Zm7.5498047.0996094c0-1.6816406-.0869141-3.0498047-.2597656-4.1054688.7470703.2138672,1.2646484.3847656,1.5517578.5107422.2871094.1269531.4306641.2441406.4306641.3505859,0,.0673828-.0605469.1337891-.1806641.2001953l-.3398438.2207031v2.8037109c.0263672,1.6552734.0800781,3.2236328.1601562,4.7060547-.0800781.1337891-.234375.2568359-.4609375.3701172-.2265625.1142578-.4472656.1708984-.6611328.1708984-.1201172,0-.2128906-.0400391-.2802734-.1210938-.0664062-.0800781-.0996094-.1728516-.0996094-.2802734.0664062-.6669922.1132812-1.5546875.1396484-2.6630859v-2.1630859Zm4.1259766-.4404297c0-1.6816406-.0869141-3.0507812-.2607422-4.1054688,1.3222656.3740234,1.9824219.6542969,1.9824219.8417969,0,.0527344-.0537109.1132812-.1601562.1796875l-.3398438.2001953v9.6728516c0,.3867188-.046875.7011719-.140625.9414062s-.2841797.4365234-.5703125.5908203c-.2880859.1533203-.7177734.2568359-1.2919922.3095703-.0400391-.4130859-.1875-.7001953-.4404297-.8603516-.2939453-.2275391-.8349609-.3876953-1.6220703-.4804688v-.3212891c1.3349609.1074219,2.1357422.1611328,2.4033203.1611328.1728516,0,.2900391-.0332031.3496094-.1005859.0605469-.0664062.0908203-.1738281.0908203-.3203125v-6.7089844Z"/>
      <path class="cls-3" d="m410.734375,15.2763672c.3398438.1337891.6474609.3066406.9208984.5205078s.4111328.4335938.4111328.6611328c0,.3466797-.2275391.5205078-.6816406.5205078-.2138672,0-.4140625-.0205078-.6005859-.0605469-1.2685547-.2529297-2.75-.3798828-4.4453125-.3798828-.7744141,0-1.6826172.0400391-2.7236328.1201172-1.6289062.1464844-3.2441406.4003906-4.8466797.7607422-.1064453.0273438-.2666016.0800781-.4804688.1601562-.1875.0800781-.3505859.140625-.4902344.1806641-.140625.0400391-.3037109.0595703-.4912109.0595703-.3066406,0-.6308594-.0761719-.9707031-.2304688-.3408203-.1533203-.625-.3466797-.8515625-.5800781s-.3398438-.4707031-.3398438-.7109375c0-.0273438.0126953-.0537109.0400391-.0800781.0263672-.0273438.0527344-.0400391.0800781-.0400391.0527344,0,.1367188.0263672.25.0800781.1132812.0527344.2167969.0927734.3105469.1201172.2666016.0927734.5673828.1396484.9013672.1396484.2128906,0,1.3144531-.1064453,3.3037109-.3203125l2.7841797-.2998047c.1728516-1.9492188.2597656-3.2978516.2597656-4.0458984,0-.1865234-.0068359-.3134766-.0195312-.3798828-.0537109-.2539062-.1376953-.4580078-.2509766-.6113281s-.2167969-.2734375-.3105469-.3603516c-.0927734-.0869141-.1533203-.1367188-.1796875-.1503906-.7480469.1201172-1.2753906.2138672-1.5820312.2802734-.4677734.09375-.8007812.1738281-1.0009766.2402344-.2011719.0673828-.3544922.1005859-.4609375.1005859-.2802734,0-.5478516-.0869141-.8007812-.2607422-.2539062-.1728516-.4482422-.3671875-.5810547-.5800781-.1201172-.1875-.1806641-.3203125-.1806641-.4013672,0-.1064453.0400391-.1601562.1201172-.1601562.0673828,0,.1601562.0205078.2802734.0605469.0400391.0136719.1640625.0429688.3710938.0898438s.4970703.0703125.8710938.0703125c.4404297,0,1.4951172-.1064453,3.1640625-.3203125s2.7363281-.4072266,3.2041016-.5810547c.4404297-.1601562.7636719-.2597656.9716797-.2998047.2060547-.0400391.4033203-.0605469.5898438-.0605469.3212891,0,.6113281.0537109.8720703.1601562.2597656.1074219.4628906.2333984.6103516.3808594.1464844.1464844.2207031.2666016.2207031.3603516,0,.1064453-.0644531.1865234-.1904297.2402344-.1269531.0537109-.2636719.0800781-.4111328.0800781h-.3798828c-1.0683594,0-2.5507812.1337891-4.4462891.4003906.3203125.1474609.5976562.3242188.8310547.53125s.3505859.3896484.3505859.5498047c0,.0673828-.0537109.1943359-.1601562.3808594-.1201172.1738281-.1933594.3271484-.2197266.4609375-.0400391.1337891-.0976562.6201172-.1708984,1.4619141-.0732422.8408203-.1367188,1.5888672-.1904297,2.2421875,1.6025391-.1601562,2.6767578-.2402344,3.2246094-.2402344.4804688,0,.9677734-.0332031,1.4619141-.0996094.2001953-.0263672.4404297-.09375.7207031-.2001953.3203125-.1064453.5205078-.1601562.6005859-.1601562.1474609,0,.390625.0664062.7314453.2001953Z"/>
      <path class="cls-3" d="m420.3769531,9.3085938c-.3066406-.4677734-.7080078-.8544922-1.2011719-1.1621094-.4941406-.3066406-1.0214844-.5400391-1.5820312-.7001953-.1074219-.0263672-.1943359-.0537109-.2607422-.0800781-.0664062-.0273438-.0996094-.0605469-.0996094-.1005859,0-.1201172.3066406-.1796875.9208984-.1796875.5605469,0,1.1445312.0693359,1.7519531.2099609.6074219.1396484,1.1113281.3642578,1.5126953.6708984.5068359.4003906.7607422.8408203.7607422,1.3212891,0,.2402344-.0634766.4375-.1904297.5908203-.1269531.1542969-.3037109.2304688-.5302734.2304688-.3740234,0-.734375-.2666016-1.0820312-.8007812Zm-2.8232422,7.75c0-.1738281.0234375-.3173828.0703125-.4306641.0458984-.1132812.0898438-.1699219.1298828-.1699219s.0996094.0732422.1796875.2197266c.0800781.1474609.1875.2871094.3212891.4208984.1328125.1337891.2568359.2373047.3701172.3105469s.2763672.1103516.4902344.1103516c.4804688,0,1.3554688-.3876953,2.6240234-1.1621094,1.2675781-.7744141,2.7460938-1.8652344,4.4355469-3.2744141,1.6884766-1.4082031,3.3808594-3.0205078,5.0761719-4.8359375.1201172-.1464844.2275391-.2207031.3203125-.2207031.0537109,0,.0800781.0273438.0800781.0800781,0,.0800781-.0664062.2207031-.2001953.4208984-.9082031,1.2685547-1.9892578,2.5566406-3.2441406,3.8652344s-2.4667969,2.4726562-3.6347656,3.4941406-2.0927734,1.7724609-2.7734375,2.2529297c-.1601562.1201172-.2939453.2070312-.4003906.2607422-.1201172.0800781-.2402344.1669922-.3603516.2597656-.1201172.09375-.2539062.2207031-.4003906.3808594-.2802734.3203125-.6005859.4804688-.9619141.4804688-.4404297,0-.8642578-.1835938-1.2714844-.5507812s-.6640625-.796875-.7705078-1.2910156c-.0537109-.2138672-.0800781-.4208984-.0800781-.6210938Z"/>
      <path class="cls-3" d="m446.3710938,12.0917969c1.1083984.5742188,1.6621094,1.2490234,1.6621094,2.0224609,0,.2275391-.0566406.4140625-.1699219.5615234-.1132812.1464844-.2568359.2197266-.4306641.2197266-.3603516,0-.8349609-.3603516-1.421875-1.0810547-.9082031-1.1484375-2.0224609-2.0292969-3.3447266-2.6435547v.3408203l-.0195312,3.2841797c0,2.2558594.0332031,3.5576172.0996094,3.9042969.0136719.09375.0537109.3046875.1210938.6308594.0664062.328125.0996094.5849609.0996094.7714844,0,.2675781-.0869141.5039062-.2607422.7109375-.1728516.2070312-.3330078.3105469-.4804688.3105469-.1865234,0-.3632812-.1503906-.5302734-.4511719-.1669922-.2998047-.3037109-.640625-.4101562-1.0214844-.1074219-.3798828-.1611328-.6435547-.1611328-.7910156,0-.0800781.0273438-.2431641.0800781-.4902344.0537109-.2470703.09375-.5703125.1210938-.9716797l.0595703-1.6220703c.0263672-.4003906.046875-.7910156.0605469-1.1708984.0126953-.3808594.0263672-.7373047.0400391-1.0712891.0400391-.8945312.0595703-2.2558594.0595703-4.0859375,0-1.4677734-.0263672-2.4355469-.0800781-2.9033203-.0400391-.2802734-.1201172-.4970703-.2402344-.6513672-.1201172-.1533203-.2373047-.2734375-.3505859-.3603516-.1132812-.0859375-.1904297-.1425781-.2304688-.1699219-.1064453-.0800781-.1601562-.1464844-.1601562-.2001953,0-.1601562.1269531-.2666016.3808594-.3203125.2529297-.0537109.4931641-.0800781.7207031-.0800781.4541016,0,.828125.1464844,1.1210938.4404297.1474609.1474609.2207031.3203125.2207031.5205078,0,.09375-.0068359.1738281-.0195312.2402344-.0136719.0673828-.0273438.1269531-.0400391.1806641-.0136719.0664062-.0439453.2539062-.0908203.5605469-.046875.3076172-.0703125.6474609-.0703125,1.0214844v.4199219c-.0263672.7480469-.0400391,1.6357422-.0400391,2.6640625,1.3623047.2802734,2.5966797.7080078,3.7050781,1.28125Z"/>
      <path class="cls-3" d="m459.0283203,21.2841797c0-.0537109.1132812-.140625.3398438-.2607422,1.7490234-.9873047,3.0810547-2.0585938,3.9951172-3.2138672.9150391-1.1542969,1.5292969-2.4033203,1.8427734-3.7451172s.4707031-2.9404297.4707031-4.7958984c0-.5605469-.0273438-1.2685547-.0800781-2.1230469-.0273438-.5869141-.1669922-.9941406-.4208984-1.2216797-.1464844-.1328125-.2871094-.2304688-.4199219-.2900391-.1337891-.0605469-.2236328-.1064453-.2705078-.140625-.046875-.0332031-.0703125-.0830078-.0703125-.1494141,0-.1875.2607422-.28125.78125-.28125.1865234,0,.3730469.0136719.5605469.0400391.3339844.0810547.6875.2744141,1.0615234.5810547.3730469.3076172.5605469.5673828.5605469.78125,0,.1074219-.046875.2539062-.140625.4404297-.0126953.0273438-.0498047.1201172-.109375.2802734-.0605469.1601562-.0908203.3408203-.0908203.5410156,0,.5742188-.0126953,1.2480469-.0400391,2.0224609-.0800781,2.1630859-.3603516,3.9453125-.8408203,5.3466797-.4804688,1.4023438-1.2519531,2.5869141-2.3125,3.5546875-1.0615234.96875-2.5332031,1.8457031-4.4160156,2.6337891-.1337891.0527344-.2333984.0800781-.3007812.0800781-.0664062,0-.0996094-.0273438-.0996094-.0800781Zm1.9619141-7.1894531c-.1601562-.2666016-.2402344-.5878906-.2402344-.9609375,0-.0400391.0205078-.3037109.0605469-.7910156s.0595703-.9111328.0595703-1.2724609c0-1.3476562-.0527344-2.3154297-.1601562-2.9033203-.0400391-.2539062-.0966797-.4541016-.1699219-.6005859s-.1972656-.2675781-.3701172-.3603516c-.1201172-.0673828-.2207031-.1269531-.3007812-.1806641-.0800781-.0527344-.1201172-.1132812-.1201172-.1796875,0-.09375.0869141-.1767578.2607422-.2509766.1728516-.0732422.3662109-.1103516.5800781-.1103516.1875,0,.3408203.0273438.4609375.0800781.4404297.1611328.7441406.328125.9111328.5009766.1669922.1738281.25.3808594.25.6210938,0,.1601562-.0195312.3398438-.0595703.5400391-.0673828.3613281-.1005859,1.0556641-.1005859,2.0830078l.0205078,1.5625c0,.2666016.0126953.5869141.0400391.9609375.0263672.3203125.0400391.5205078.0400391.6005859,0,.2675781-.0605469.5107422-.1806641.7314453-.1201172.2197266-.2871094.3300781-.5.3300781-.1601562,0-.3212891-.1328125-.4814453-.4003906Z"/>
      <path class="cls-3" d="m476.6113281,14.1142578c-.2402344-.1328125-.4570312-.3134766-.6513672-.5400391-.1933594-.2275391-.2900391-.4736328-.2900391-.7412109,0-.1464844.0302734-.2939453.0898438-.4404297.0605469-.1464844.1240234-.2207031.1904297-.2207031.0263672,0,.0869141.0341797.1806641.1005859.1328125.1064453.2734375.1865234.4199219.2402344.5341797.1738281,1.1347656.2597656,1.8027344.2597656.5742188-.0126953,1.4482422-.0361328,2.6230469-.0693359s2.1767578-.0634766,3.0039062-.0908203c1.7753906-.0664062,3.2509766-.1328125,4.4257812-.2001953.6816406-.0400391,1.2148438-.0595703,1.6025391-.0595703.5205078,0,.9277344.046875,1.2216797.1396484.2929688.09375.4404297.3007812.4404297.6210938s-.2734375.5078125-.8212891.5605469c-.2675781.0273438-.6337891.0400391-1.1015625.0400391l-5.8076172.140625c-1.0283203.0263672-2.1455078.0732422-3.3535156.1396484-1.2089844.0673828-1.9931641.140625-2.3535156.2207031-.3339844.0673828-.6005859.0996094-.8007812.0996094-.3476562,0-.6210938-.0664062-.8212891-.2001953Z"/>
      <path class="cls-3" d="m506.2304688,5.4238281c.7470703.5869141,1.3076172,1.0673828,1.6816406,1.4414062v.0205078c.3740234-.4277344.7412109-.9042969,1.1015625-1.4326172.3603516-.5273438.6337891-.9912109.8212891-1.3916016.5869141.4541016.9980469.7910156,1.2314453,1.0117188.2333984.2197266.3505859.3701172.3505859.4501953,0,.0537109-.0800781.0800781-.2402344.0800781l-.4003906-.0195312c-1.2021484,1.5751953-2.7109375,3.1103516-4.5263672,4.6054688h3.5849609l.4199219-.6005859c.0400391-.0537109.1005859-.1367188.1806641-.25s.1503906-.2001953.2099609-.2607422c.0605469-.0595703.1171875-.0898438.1708984-.0898438.0800781,0,.2568359.1035156.5302734.3105469s.5302734.4296875.7714844.6708984c.2402344.2402344.3603516.4072266.3603516.5-.0400391.2138672-.2001953.3203125-.4814453.3203125h-6.5078125c-1.0283203.828125-2.2695312,1.6826172-3.7246094,2.5634766h6.1279297l.3203125-.4003906c.0263672-.0400391.0898438-.1162109.1904297-.2304688.0996094-.1132812.1962891-.1699219.2900391-.1699219.0800781,0,.2431641.0830078.4902344.25s.4736328.3505859.6816406.5507812c.2060547.2001953.3095703.3476562.3095703.4404297-.1328125.1875-.4140625.3203125-.8408203.4003906v2.4033203c.0263672,1.65625.0800781,3.2246094.1601562,4.7060547-.09375.1201172-.2666016.2402344-.5205078.3603516s-.4804688.1806641-.6806641.1806641c-.09375,0-.1640625-.0400391-.2109375-.1201172s-.0693359-.1738281-.0693359-.2802734c.0126953-.0136719.0400391-.1269531.0800781-.3408203v-.3798828h-7.2294922v.8408203c0,.0800781-.1132812.1728516-.3408203.2802734-.2265625.1064453-.4667969.1601562-.7207031.1601562-.0800781,0-.1601562-.0439453-.2402344-.1298828-.0800781-.0869141-.1201172-.1777344-.1201172-.2705078.0527344-.6943359.0966797-1.375.1298828-2.0429688.0332031-.6669922.0566406-1.5087891.0703125-2.5234375v-2.5029297c-1.4423828.7607422-3.0439453,1.4492188-4.8066406,2.0625l-.1601562-.3203125c1.6826172-.7207031,3.3378906-1.5751953,4.9667969-2.5634766v-.5c0-.2539062-.0068359-.4541016-.0205078-.6015625l.921875.5214844c1.1611328-.7617188,2.2353516-1.5419922,3.2236328-2.34375h-5.3867188c-.9482422.0136719-1.9492188.1074219-3.0039062.2802734l-.5205078-1.0410156c.734375.0800781,1.6220703.1337891,2.6630859.1601562h4.40625v-3.0039062h-1.6220703c-.9482422.0136719-1.9365234.1074219-2.9638672.2802734l-.5205078-1.0214844c.7333984.0800781,1.6220703.1337891,2.6630859.1601562h2.4433594c0-1.2138672-.0605469-2.2421875-.1806641-3.0839844,1.2685547.3740234,1.9023438.6542969,1.9023438.8417969,0,.0664062-.0537109.1337891-.1601562.2001953l-.3203125.2001953v1.8417969h2.1826172l.8818359-1.1806641Zm1.8623047,11.1943359v-2.6835938h-7.2294922v2.6835938h7.2294922Zm-7.2294922.5800781v2.9238281h7.2294922v-2.9238281h-7.2294922Zm6.5478516-10.0126953h-4.2451172v3.0039062h1.3222656c1.1611328-.9609375,2.2226562-1.9755859,3.1835938-3.0439453-.0800781.0273438-.1669922.0400391-.2607422.0400391Z"/>
      <path class="cls-3" d="m519.9882812,7.8066406c.0400391-.0537109.0966797-.1367188.1699219-.25s.1367188-.1972656.1904297-.2509766c.0537109-.0527344.1064453-.0800781.1601562-.0800781.0800781,0,.2402344.0966797.4804688.2910156.2402344.1933594.4638672.4033203.6708984.6298828.2070312.2275391.3105469.3876953.3105469.4814453-.0136719.1064453-.0664062.1865234-.1601562.2402344-.09375.0527344-.2070312.0800781-.3398438.0800781h-2.4238281v2.3632812c.8144531.4404297,1.4082031.9111328,1.7822266,1.4111328.3740234.5009766.5615234.9511719.5615234,1.3515625,0,.2402344-.0537109.4277344-.1611328.5615234-.1064453.1328125-.2402344.2001953-.4003906.2001953-.1865234,0-.3603516-.0732422-.5205078-.2207031-.0800781-.4003906-.2373047-.8544922-.4707031-1.3613281-.2333984-.5078125-.4970703-.9882812-.7910156-1.4423828v4.8867188c.0263672,1.6552734.0800781,3.2236328.1601562,4.7060547-.0800781.1464844-.2333984.2763672-.4599609.390625-.2275391.1132812-.4482422.1699219-.6611328.1699219-.1337891,0-.2470703-.0400391-.3408203-.1201172-.0927734-.0800781-.1396484-.1738281-.1396484-.2802734.0527344-.7880859.0996094-1.5517578.1396484-2.2929688s.0673828-1.7119141.0800781-2.9140625v-3.6445312c-.7207031,1.8154297-1.6552734,3.3847656-2.8037109,4.7060547l-.2597656-.2802734c1.3212891-2.0957031,2.2695312-4.8261719,2.84375-8.1904297h-.8818359c-.4804688.0136719-.9746094.1064453-1.4814453.2802734l-.5009766-1.0214844c.5742188.0800781,1.2685547.1337891,2.0830078.1601562h1.0009766v-.6806641c0-1.6826172-.0869141-3.0507812-.2597656-4.1054688.7333984.2138672,1.2480469.390625,1.5419922.5302734.2929688.140625.4404297.2578125.4404297.3505859,0,.0673828-.0537109.1337891-.1601562.2001953l-.3408203.2207031v3.484375h.5605469l.3808594-.5605469Zm10.5742188,3.8847656c.0527344-.0664062.109375-.1464844.1699219-.2402344.0595703-.0927734.1230469-.1728516.1904297-.2402344.0664062-.0664062.1259766-.1005859.1796875-.1005859.0800781,0,.2470703.0976562.5009766.2910156.2529297.1933594.4902344.4033203.7109375.6308594.2197266.2265625.3300781.3867188.3300781.4804688-.0136719.2138672-.1738281.3203125-.4804688.3203125h-4.9863281v.7011719c.2402344,1.0546875.6210938,1.9892578,1.1416016,2.8037109.4130859-.4404297.8173828-.9482422,1.2109375-1.5224609.3935547-.5732422.6982422-1.1015625.9111328-1.5820312,1.0283203.7207031,1.5419922,1.1621094,1.5419922,1.3222656,0,.0527344-.0664062.0800781-.2001953.0800781h-.3603516c-.3740234.3203125-.8173828.6708984-1.3310547,1.0507812-.5146484.3808594-1.0185547.7109375-1.5126953.9912109.5341797.7480469,1.1650391,1.359375,1.8925781,1.8330078s1.5449219.8779297,2.453125,1.2109375l-.0195312.2207031c-.2275391.0537109-.4277344.1865234-.6005859.4003906-.1738281.2128906-.3007812.4736328-.3808594.78125-1.2148438-.6943359-2.2060547-1.5253906-2.9736328-2.4931641-.7685547-.9677734-1.359375-2.2734375-1.7724609-3.9150391v5.40625c0,.5742188-.1171875,1.0117188-.3505859,1.3125-.2333984.2998047-.7177734.4902344-1.4521484.5703125-.0400391-.4404297-.1601562-.7412109-.3603516-.9013672-.2666016-.2138672-.7412109-.3671875-1.421875-.4599609v-.3007812c1.1083984.0800781,1.7695312.1201172,1.9824219.1201172.1601562,0,.2675781-.0263672.3203125-.0800781.0537109-.0527344.0810547-.1533203.0810547-.3007812v-3.0039062l-.3408203.2802734c-1.5751953,1.2421875-2.8369141,2.2099609-3.7851562,2.9042969-.0263672.2402344-.1201172.4208984-.2802734.5410156l-1.0615234-1.3623047c.7744141-.3330078,2.5839844-1.234375,5.4267578-2.703125l.0410156.0800781v-3.9853516h-1.5429688c-.9072266.0136719-1.8554688.1074219-2.8427734.2802734l-.5009766-1.0214844c.734375.0800781,1.6220703.1337891,2.6630859.1601562h2.2236328v-2.1826172h-1.2421875c-.7207031.0136719-1.4814453.1074219-2.2832031.2802734l-.5205078-1.0214844c.734375.0800781,1.6220703.1337891,2.6640625.1601562h1.3818359v-1.9619141h-1.4619141c-.828125.0136719-1.7099609.1064453-2.6435547.2802734l-.5009766-1.0410156c.6669922.0800781,1.4814453.1328125,2.4433594.1601562h1.1416016c-.1601562-.0273438-.3144531-.1005859-.4609375-.2207031-.0400391-.4404297-.1904297-.9208984-.4501953-1.4414062-.2607422-.5214844-.5507812-.9814453-.8710938-1.3818359l.2197266-.1201172c.7880859.3066406,1.3623047.6777344,1.7226562,1.1113281s.5400391.8505859.5400391,1.2509766c0,.2138672-.0527344.3945312-.1601562.5410156-.1064453.1474609-.2402344.2333984-.4003906.2607422h2.4033203c.2138672-.5478516.4208984-1.1416016.6210938-1.7832031.2001953-.640625.3466797-1.1943359.4404297-1.6621094,1.2412109.4140625,1.8623047.7011719,1.8623047.8613281,0,.0673828-.0673828.1201172-.2001953.1601562l-.3603516.1201172c-.5878906.8144531-1.2148438,1.5820312-1.8828125,2.3037109h1.8828125l.4003906-.5410156c.0527344-.0664062.1162109-.1503906.1904297-.25.0732422-.1005859.1367188-.1767578.1904297-.2304688.0527344-.0537109.1064453-.0800781.1601562-.0800781.0800781,0,.25.0966797.5097656.2900391.2607422.1933594.5009766.4003906.7216797.6210938.2197266.2197266.3300781.3769531.3300781.4707031-.0537109.2138672-.2197266.3203125-.5009766.3203125h-4.6855469v1.9619141h2.1630859l.4003906-.5605469c.0400391-.0527344.0996094-.1328125.1796875-.2402344.0800781-.1064453.1503906-.1865234.2109375-.2402344.0595703-.0527344.1162109-.0800781.1699219-.0800781.0800781,0,.2470703.0966797.5009766.2900391.2529297.1943359.4863281.4013672.7001953.6210938.2138672.2207031.3203125.3779297.3203125.4707031-.0527344.2138672-.2197266.3203125-.5.3203125h-4.1455078v2.1826172h3.0039062l.3808594-.5605469Zm-8.2109375,1.9228516c.8271484.2802734,1.4345703.6308594,1.8222656,1.0507812.3867188.4208984.5810547.8251953.5810547,1.2119141,0,.2275391-.0576172.4140625-.1708984.5605469-.1132812.1474609-.2636719.2207031-.4501953.2207031-.1474609,0-.3134766-.0732422-.5009766-.2207031-.0537109-.4267578-.2304688-.8945312-.5302734-1.4013672-.3007812-.5078125-.6308594-.9345703-.9912109-1.2822266l.2402344-.1396484Z"/>
      <path class="cls-3" d="m538.9736328,13.7138672c-.0400391-.0800781-.0605469-.1660156-.0605469-.2597656,0-.2675781.1601562-.4941406.4804688-.6816406.3076172-.1865234.6074219-.4863281.9013672-.9003906s.4677734-.8349609.5205078-1.2617188l.3408203.0195312c.0400391.2539062.0595703.5009766.0595703.7412109h.7412109v-1.6015625c0-1.6826172-.0869141-3.0507812-.2597656-4.1054688l1.7021484.7402344h1.6416016l.1806641-1.1806641h-1.5419922c-.9082031.0126953-1.8564453.1064453-2.84375.2802734l-.4804688-.9414062-.0800781.0195312-.3603516.140625c-.4541016,1.4814453-1.0087891,2.9101562-1.6630859,4.2851562.4277344.3339844.6416016.5742188.6416016.7207031,0,.09375-.0605469.1611328-.1806641.2011719l-.2802734.1201172v6.7285156c.0263672,1.6552734.0800781,3.2236328.1601562,4.7060547-.1074219.1201172-.2705078.2363281-.4902344.3505859-.2207031.1132812-.4375.1699219-.6513672.1699219-.1064453,0-.203125-.0439453-.2900391-.1298828-.0869141-.0869141-.1298828-.1777344-.1298828-.2705078.0527344-.7880859.0996094-1.5517578.1396484-2.2929688s.0664062-1.7119141.0800781-2.9140625v-5.4472656c-.6679688,1.1757812-1.3681641,2.1904297-2.1025391,3.0439453l-.2607422-.1796875c.921875-1.6025391,1.7890625-3.5976562,2.6035156-5.9882812.2138672-.6533203.4140625-1.4013672.6005859-2.2421875.1875-.8417969.2939453-1.5292969.3212891-2.0634766,1.3613281.4277344,2.0419922.734375,2.0419922.921875,0,.0263672-.0068359.046875-.0195312.0595703.7470703.0673828,1.5947266.1142578,2.5429688.140625h6.9091797l.4003906-.5605469c.0400391-.0537109.0996094-.1337891.1796875-.2402344.0800781-.1074219.1503906-.1875.2109375-.2412109.0595703-.0527344.1162109-.0800781.1699219-.0800781.0800781,0,.2539062.0976562.5205078.2910156.2675781.1933594.5136719.4003906.7412109.6210938.2265625.2197266.3408203.3769531.3408203.4697266-.0400391.2138672-.2080078.3212891-.5009766.3212891h-5.3466797c-.2675781.453125-.5410156.8476562-.8212891,1.1806641h2.9033203l.2802734-.3603516c.0400391-.0400391.1035156-.1132812.1904297-.2197266.0869141-.1074219.1708984-.1601562.2509766-.1601562s.2363281.0761719.4707031.2294922c.2333984.1542969.4462891.3212891.640625.5009766.1933594.1806641.2900391.3173828.2900391.4111328-.0537109.0664062-.1503906.1367188-.2900391.2099609-.140625.0732422-.2910156.1230469-.4511719.1503906v4.2050781h.6416016c.1464844-.1464844.40625-.4609375.7802734-.9414062.8144531.8544922,1.2216797,1.375,1.2216797,1.5625,0,.0664062-.0664062.1132812-.2001953.1396484l-.3398438.0400391c-.4541016.3876953-1.0615234.828125-1.8232422,1.3222656.4677734.2666016.8144531.5507812,1.0419922.8505859.2265625.3007812.3398438.5839844.3398438.8515625,0,.1738281-.0498047.3173828-.1494141.4306641-.1005859.1132812-.2304688.1699219-.390625.1699219-.1201172,0-.2470703-.0400391-.3808594-.1201172-.1875-.4267578-.5244141-.8945312-1.0117188-1.4023438-.4873047-.5068359-.9775391-.9335938-1.4716797-1.28125l.1806641-.1806641c.5732422.1337891,1.0878906.3076172,1.5419922.5214844.2001953-.3876953.4130859-.8476562.640625-1.3818359h-9.5126953c-.0664062.4140625-.1894531.7773438-.3701172,1.0908203-.1806641.3144531-.390625.5576172-.6308594.7314453-.2138672.1464844-.4404297.2197266-.6806641.2197266-.2539062,0-.4277344-.0927734-.5205078-.2802734Zm13.8779297,6.8691406l-.0400391.2207031c-.5078125.1728516-.8017578.5537109-.8818359,1.140625-1.3212891-.1464844-2.4560547-.3535156-3.4042969-.6201172-.9482422-.2675781-1.7753906-.6142578-2.4824219-1.0419922-1.7763672.8544922-4.0722656,1.4492188-6.8896484,1.7832031l-.0996094-.3408203c2.4560547-.4003906,4.5253906-1.0615234,6.2080078-1.9824219-.6679688-.5205078-1.2548828-1.1347656-1.7626953-1.8427734-1.2285156,1.0947266-2.5302734,1.9091797-3.9052734,2.4433594l-.2197266-.2607422c.9208984-.5332031,1.7822266-1.2011719,2.5830078-2.0019531.8007812-.8017578,1.4287109-1.5957031,1.8828125-2.3837891-.1875-.0664062-.3173828-.1728516-.390625-.3203125-.0732422-.1464844-.1103516-.3603516-.1103516-.640625v-1.0615234c0-.4130859-.0195312-.8007812-.0595703-1.1611328,1.0273438.3740234,1.5419922.6542969,1.5419922.8408203,0,.0400391-.0400391.0869141-.1201172.140625l-.2412109.1601562v.9208984c0,.1074219.0302734.1738281.0908203.2001953.0595703.0273438.203125.0400391.4306641.0400391h1.3613281c.7207031,0,1.1484375-.0068359,1.2822266-.0195312.0664062,0,.1230469-.0107422.1699219-.0302734.046875-.0205078.0761719-.0566406.0898438-.1103516.1201172-.1328125.2734375-.5341797.4609375-1.2011719h.2197266l.0605469,1.2011719c.1728516.0537109.2929688.1171875.3603516.1904297.0664062.0732422.1005859.1630859.1005859.2705078,0,.1738281-.0771484.3066406-.2304688.4003906-.1542969.09375-.4306641.1630859-.8310547.2099609s-.9814453.0703125-1.7421875.0703125h-.9814453l.5400391.1201172c-.0527344.2138672-.3203125.3203125-.8007812.3203125-.09375.1337891-.2597656.3339844-.5.6005859h3.8046875l.3603516-.3603516.2304688-.2304688c.0996094-.0996094.1904297-.1494141.2705078-.1494141.1201172,0,.3535156.1669922.7001953.5.3476562.3339844.5205078.5742188.5205078.7207031-.0800781.09375-.1796875.1542969-.2998047.1806641-.1201172.0273438-.3007812.0400391-.5410156.0400391-.640625.828125-1.46875,1.5556641-2.4833984,2.1826172,1.4287109.4941406,3.3447266.78125,5.7480469.8613281Zm-11.1748047-6.6083984c.2939453-.3867188.4541016-.8007812.4804688-1.2421875l.3603516.0205078c.0400391.2402344.0605469.4609375.0605469.6611328,0,.5341797-.1074219.9941406-.3203125,1.3818359-.2138672.3867188-.4677734.6806641-.7607422.8808594-.2138672.1474609-.4345703.2207031-.6611328.2207031-.2539062,0-.4277344-.0869141-.5205078-.2607422-.0273438-.0537109-.0400391-.1269531-.0400391-.2207031,0-.2402344.1464844-.453125.4404297-.640625.3466797-.1464844.6669922-.4130859.9609375-.8007812Zm7.1689453-6.9892578h-5.7070312v1.0615234h5.7070312v-1.0615234Zm0,1.6425781h-5.7070312v1.0605469h5.7070312v-1.0605469Zm0,1.6621094h-5.7070312v1.0810547h5.7070312v-1.0810547Zm-.7207031,7.1494141h-4.1455078l-.1796875.1601562c.6269531.6806641,1.3681641,1.2412109,2.2226562,1.6816406.828125-.5341797,1.5283203-1.1474609,2.1025391-1.8417969Zm-3.1435547-5.3076172c.7871094.1201172,1.3681641.3339844,1.7421875.640625.3730469.3076172.5605469.6210938.5605469.9414062,0,.1474609-.046875.2744141-.140625.3808594-.0927734.1064453-.2070312.1601562-.3398438.1601562-.1074219,0-.2275391-.0332031-.3603516-.1005859-.1201172-.3066406-.3378906-.6337891-.6513672-.9804688-.3134766-.3476562-.6376953-.6347656-.9707031-.8613281l.1601562-.1806641Z"/>
      <path class="cls-3" d="m570.234375,11.6318359c.0400391-.0537109.1064453-.1435547.2001953-.2705078.0927734-.1269531.1699219-.2207031.2304688-.2802734.0595703-.0605469.1162109-.0908203.1699219-.0908203.0800781,0,.2636719.1103516.5507812.3310547.2871094.2197266.5537109.4541016.8007812.7001953.2470703.2480469.3710938.4179688.3710938.5107422-.0400391.2138672-.2070312.3212891-.5009766.3212891h-5.6074219v7.0683594c0,.1875.0429688.3076172.1298828.3603516.0869141.0537109.3105469.0800781.6708984.0800781h1.8632812c.8408203,0,1.4208984-.0126953,1.7421875-.0400391.1201172-.0126953.203125-.0400391.25-.0800781s.0966797-.1201172.1503906-.2402344c.1328125-.3466797.3330078-1.4013672.6005859-3.1640625h.2802734l.0605469,3.3046875c.2001953.0800781.3330078.1630859.4003906.25.0664062.0869141.0996094.203125.0996094.3505859,0,.2138672-.09375.3808594-.2802734.5009766-.1875.1201172-.5371094.2070312-1.0517578.2597656-.5136719.0537109-1.2714844.0800781-2.2724609.0800781h-2.0429688c-.5205078,0-.9111328-.0400391-1.1708984-.1201172-.2607422-.0800781-.4404297-.2167969-.5410156-.4101562s-.1503906-.4707031-.1503906-.8310547v-7.3691406h-2.9433594c-.1474609,1.7089844-.4638672,3.140625-.9511719,4.2949219-.4882812,1.1552734-1.2285156,2.1367188-2.2236328,2.9443359-.9941406.8076172-2.3330078,1.4785156-4.0146484,2.0126953l-.1201172-.3212891c1.4150391-.6542969,2.5332031-1.3916016,3.3544922-2.2128906.8203125-.8203125,1.4179688-1.7646484,1.7919922-2.8330078s.6074219-2.3632812.7011719-3.8847656h-2.3828125c-.9482422.0126953-1.9501953.1064453-3.0039062.2802734l-.5009766-1.0214844c.734375.0800781,1.6220703.1337891,2.6630859.1601562h5.5673828v-4.1054688h-3.9648438c-.7880859,1.4414062-1.6757812,2.5771484-2.6640625,3.4042969l-.2597656-.2001953c.5869141-.8271484,1.1347656-1.8222656,1.6416016-2.9833984.2675781-.6142578.5009766-1.3388672.7011719-2.1728516.2001953-.8349609.3066406-1.5322266.3203125-2.0927734.7480469.2128906,1.2714844.3837891,1.5722656.5107422s.4501953.2294922.4501953.3095703c0,.0537109-.0595703.1074219-.1796875.1601562l-.3603516.1611328c-.2402344.7607422-.5478516,1.5351562-.921875,2.3222656h3.6650391c0-1.5478516-.0800781-2.84375-.2402344-3.8847656,1.375.3740234,2.0625.6611328,2.0625.8613281,0,.0664062-.0537109.1337891-.1601562.2001953l-.3408203.2197266v2.6035156h3.7255859l.4404297-.6201172c.0664062-.0800781.1328125-.1669922.2001953-.2607422.0664062-.0927734.1328125-.1767578.2001953-.25.0664062-.0732422.1269531-.1103516.1806641-.1103516.0800781,0,.2597656.1064453.5400391.3203125s.5410156.4443359.78125.6904297c.2402344.2480469.3603516.4179688.3603516.5107422-.0400391.2001953-.2070312.3007812-.5009766.3007812h-5.9277344v4.1054688h5.3271484l.4609375-.640625Z"/>
      <path class="cls-3" d="m578.2050781,17.7197266c.4941406.1601562.7412109.3066406.7412109.4404297,0,.0537109-.0742188.0996094-.2207031.1396484l-.3603516.0800781c-.3476562.6542969-.7949219,1.3115234-1.3417969,1.9726562-.5478516.6611328-1.1416016,1.2119141-1.7822266,1.6523438l-.2207031-.2402344c.1337891-.1601562.3339844-.4277344.6015625-.8007812.3066406-.4677734.5908203-1.0117188.8505859-1.6328125.2607422-.6201172.4433594-1.2041016.5507812-1.7519531-.2138672.1337891-.4736328.2001953-.78125.2001953-.09375,0-.1835938-.0429688-.2705078-.1298828s-.1298828-.1767578-.1298828-.2705078c.0537109-.7871094.1005859-1.5517578.140625-2.2929688s.0664062-1.7119141.0800781-2.9140625v-3.9042969c0-1.6826172-.0869141-3.0507812-.2607422-4.1054688l1.6425781.7001953h2.8232422l.3007812-.4404297c.0263672-.0400391.0693359-.1025391.1298828-.1904297.0605469-.0859375.1132812-.1533203.1601562-.2001953.046875-.0458984.0966797-.0693359.1503906-.0693359.1328125,0,.390625.1728516.7705078.5205078.3808594.3466797.5712891.59375.5712891.7412109-.1474609.1865234-.4072266.3134766-.78125.3798828v6.6884766c.0263672,1.65625.0800781,3.2246094.1601562,4.7060547-.1064453.1201172-.2675781.234375-.4804688.3408203-.2138672.1074219-.4472656.1601562-.7011719.1601562-.09375,0-.1630859-.0400391-.2099609-.1201172s-.0703125-.1738281-.0703125-.2802734l.0800781-.3203125v-.3808594h-3.1240234v.8007812l.9814453.5214844Zm2.1425781-12.2558594h-3.1240234v2.9638672h3.1240234v-2.9638672Zm0,3.5644531h-3.1240234v3.0439453h3.1240234v-3.0439453Zm0,3.6445312h-3.1240234v3.1435547h3.1240234v-3.1435547Zm1.1220703,7.5996094c-.1337891.1542969-.2939453.2304688-.4814453.2304688-.2001953,0-.3798828-.0732422-.5400391-.2207031-.0537109-.4404297-.2001953-.9238281-.4404297-1.4511719-.2412109-.5273438-.5009766-.9785156-.78125-1.3515625l.2001953-.140625c.7744141.3203125,1.3417969.6943359,1.7021484,1.1210938.3603516.4277344.5410156.8349609.5410156,1.2216797,0,.2402344-.0673828.4375-.2001953.5908203Zm11.4941406.4707031l-.0595703.2001953c-.2675781.0263672-.5078125.1201172-.7207031.2802734-.2138672.1601562-.3808594.3808594-.5009766.6611328-1.4824219-.8808594-2.7041016-2.0488281-3.6650391-3.5048828-1.2011719,1.4423828-2.7773438,2.6103516-4.7255859,3.5048828l-.2001953-.3007812c1.8017578-1.0546875,3.2636719-2.4160156,4.3847656-4.0849609-1.0273438-1.8828125-1.7285156-4.2451172-2.1025391-7.0888672h-.7607422v.640625c0,1.4814453-.0771484,2.84375-.2304688,4.0849609-.1533203,1.2421875-.4873047,2.4707031-1.0009766,3.6845703-.5146484,1.2158203-1.2714844,2.2832031-2.2734375,3.2050781l-.3203125-.2207031c1.0546875-1.375,1.7587891-2.9335938,2.1132812-4.6757812.3535156-1.7421875.5302734-3.7685547.5302734-6.078125v-3.2441406c0-1.375-.0664062-2.4902344-.2001953-3.3447266l1.6025391.7412109h5.3867188l.3603516-.5410156c.0400391-.0527344.0966797-.1328125.1699219-.2402344.0732422-.1064453.1367188-.1865234.1904297-.2402344.0537109-.0527344.1064453-.0800781.1601562-.0800781.0800781,0,.2470703.0966797.5009766.2900391.2529297.1943359.4873047.4013672.7011719.6210938.2128906.2207031.3203125.3779297.3203125.4707031-.0537109.2138672-.2207031.3203125-.5009766.3203125h-7.5097656v4.0058594h5.4873047l.3398438-.4013672c.0400391-.0400391.1132812-.1162109.2207031-.2294922.1064453-.1132812.2001953-.1708984.2802734-.1708984.1201172,0,.3740234.1835938.7607422.5507812.3876953.3671875.5810547.6240234.5810547.7714844-.0673828.0927734-.1572266.1572266-.2705078.1894531-.1132812.0341797-.2773438.0644531-.4902344.0908203-.6142578,2.8037109-1.5419922,5.0927734-2.7841797,6.8691406,1.1083984,1.375,2.5166016,2.4628906,4.2255859,3.2636719Zm-7.1894531-10.3330078c.4277344,2.4160156,1.1884766,4.4658203,2.2832031,6.1474609,1.0009766-1.7617188,1.7158203-3.8115234,2.1425781-6.1474609h-4.4257812Z"/>
      <path class="cls-3" d="m601.9365234,13.7939453c.6132812,0,.9208984.0673828.9208984.2001953,0,.0800781-.0732422.1601562-.2207031.2402344l-.3398438.2207031c-.0400391,1.2949219-.2578125,2.4130859-.6513672,3.3544922s-1.1083984,1.7753906-2.1425781,2.5029297c-1.0351562.7275391-2.5,1.3046875-4.3955078,1.7324219l-.140625-.3203125c1.5224609-.4541016,2.7167969-1.0185547,3.5849609-1.6923828s1.4882812-1.4716797,1.8623047-2.3925781c.2666016-.6542969.4003906-1.4355469.4003906-2.34375,0-.546875-.0595703-1.1074219-.1796875-1.6816406l1.3017578.1796875Zm8.7509766-2.4824219c.0400391-.0537109.1171875-.1435547.2304688-.2705078s.2099609-.1904297.2900391-.1904297.2402344.1103516.4804688.3300781c.2402344.2207031.4677734.4541016.6816406.7011719.2128906.2470703.3203125.4169922.3203125.5107422-.1337891.1337891-.3876953.2070312-.7617188.2197266-.3066406.3876953-.7304688.828125-1.2714844,1.3222656-.5400391.4941406-1.0507812.9140625-1.5322266,1.2617188l-.2197266-.1806641c.4667969-.7607422.9208984-1.6484375,1.3613281-2.6630859h-12.3759766c.0273438.6542969-.0664062,1.2216797-.2802734,1.7021484s-.4804688.8339844-.8007812,1.0615234c-.2539062.1865234-.5205078.2802734-.8007812.2802734s-.4804688-.1132812-.6005859-.3408203c-.0410156-.1064453-.0605469-.2070312-.0605469-.2998047,0-.1474609.0498047-.2871094.1503906-.4208984.0996094-.1337891.2304688-.2470703.390625-.3408203.4267578-.2529297.7841797-.6708984,1.0712891-1.2509766.2871094-.5810547.4101562-1.2050781.3701172-1.8730469l.3203125-.0195312c.09375.2802734.1601562.5810547.2001953.9013672h12.4560547l.3808594-.4404297Zm-1.6826172-2.8642578c.0400391-.0664062.1035156-.15625.1904297-.2705078.0869141-.1132812.1572266-.2001953.2109375-.2597656.0527344-.0605469.1064453-.0908203.1601562-.0908203.0800781,0,.2568359.1035156.5302734.3105469s.5273438.4306641.7607422.6708984.3505859.4072266.3505859.5009766c-.0537109.2138672-.2138672.3203125-.4804688.3203125h-10.1933594c-.9482422.0136719-1.9492188.1074219-3.0039062.2802734l-.5205078-1.0214844c.734375.0800781,1.6220703.1337891,2.6630859.1601562h3.5048828v-2.4628906h-4.2050781c-.9482422.0136719-1.9501953.1074219-3.0039062.2802734l-.5410156-1.0214844c.734375.0800781,1.6220703.1337891,2.6630859.1601562h5.0869141c0-.9873047-.046875-1.8017578-.1396484-2.4433594.7333984.2138672,1.2441406.3847656,1.53125.5107422.2871094.1269531.4306641.2373047.4306641.3310547,0,.0800781-.0595703.1533203-.1796875.2197266l-.3408203.2207031v1.1611328h5.3466797l.4208984-.6201172c.0664062-.0800781.1328125-.1669922.2001953-.2607422.0664062-.09375.1328125-.1767578.2001953-.25.0664062-.0732422.1269531-.1103516.1806641-.1103516.0800781,0,.2568359.1064453.5302734.3203125s.5302734.4443359.7705078.6904297c.2412109.2480469.3613281.4179688.3613281.5107422-.0537109.2001953-.2275391.3007812-.5214844.3007812h-7.4892578v2.4628906h4.125l.4003906-.6005859Zm-3.7646484,8.53125c0-1.4287109-.0732422-2.5634766-.2197266-3.4042969.7070312.2138672,1.1982422.3867188,1.4716797.5205078s.4101562.2402344.4101562.3203125c0,.0537109-.046875.1132812-.1396484.1806641l-.2802734.1796875v5.2070312c0,.1601562.0458984.2666016.1396484.3203125s.3134766.0800781.6611328.0800781h1.9628906c1.0410156,0,1.6416016-.0068359,1.8017578-.0205078.1201172-.0126953.203125-.0361328.25-.0693359s.0966797-.0966797.1503906-.1904297c.1074219-.2539062.3007812-1.0810547.5810547-2.4833984h.2402344l.0400391,2.5634766c.2138672.0800781.3535156.1601562.4208984.2402344.0664062.0800781.0996094.1933594.0996094.3408203,0,.2001953-.09375.3603516-.2802734.4804688s-.5410156.2070312-1.0615234.2597656c-.5205078.0537109-1.28125.0800781-2.2822266.0800781h-2.1230469c-.5205078,0-.9111328-.0400391-1.171875-.1201172-.2597656-.0800781-.4375-.2138672-.5302734-.4003906-.09375-.1865234-.140625-.4541016-.140625-.8007812v-3.2841797Z"/>
      <path class="cls-3" d="m629.6123047,4.8828125c.0400391-.0664062.1035156-.1572266.1904297-.2705078s.15625-.2001953.2099609-.2607422c.0537109-.0595703.1074219-.0898438.1601562-.0898438.0800781,0,.2568359.1035156.53125.3105469.2734375.2070312.5302734.4306641.7705078.6708984s.3603516.4072266.3603516.5009766c-.0400391.2138672-.2070312.3203125-.5.3203125h-13.4580078v13.8378906h12.0556641l.4609375-.640625c.0527344-.0673828.1269531-.1601562.2197266-.2802734.09375-.1210938.1708984-.2109375.2304688-.2705078.0605469-.0605469.1171875-.0908203.1708984-.0908203.0800781,0,.2666016.1103516.5605469.3310547.2929688.2197266.5673828.4570312.8212891.7109375.2529297.2539062.3798828.4267578.3798828.5205078-.0537109.2138672-.2197266.3203125-.5.3203125h-14.3994141v.3603516c.0136719.1337891.0234375.2539062.0302734.3603516.0068359.1074219.0166016.1806641.0302734.2207031-.0400391.1328125-.1669922.2636719-.3808594.390625-.2138672.1259766-.4667969.1904297-.7607422.1904297-.1074219,0-.2041016-.0439453-.2900391-.1308594-.0869141-.0869141-.1308594-.1767578-.1308594-.2705078.0537109-.7871094.1005859-1.5517578.140625-2.2929688.0400391-.7402344.0664062-1.7119141.0800781-2.9130859v-7.6503906c0-1.6816406-.0869141-3.0507812-.2607422-4.1054688l1.7626953.8212891h11.1142578l.4003906-.6005859Zm-10.4736328,14.0585938l-.2197266-.28125c1.0136719-.7207031,2.0087891-1.5986328,2.9833984-2.6328125s1.8828125-2.1796875,2.7236328-3.4345703c-1.375-1.3085938-2.9638672-2.5166016-4.7666016-3.625l.1806641-.3203125c2.0292969.9882812,3.7509766,1.9960938,5.1669922,3.0244141l.7207031-1.2421875c.3203125-.5869141.6210938-1.2382812.9013672-1.9521484s.4736328-1.3447266.5800781-1.8925781c1.2685547.5878906,1.9033203.9677734,1.9033203,1.1416016,0,.0664062-.0673828.1201172-.2011719.1601562l-.3798828.0996094c-.734375,1.6162109-1.5751953,3.0976562-2.5234375,4.4462891,1.2148438.9882812,2.1025391,1.90625,2.6630859,2.7539062.5615234.8476562.8417969,1.5517578.8417969,2.1123047,0,.2402344-.0507812.4277344-.1503906.5605469-.1005859.1337891-.2304688.2001953-.390625.2001953-.1738281,0-.3603516-.0800781-.5605469-.2402344-.2802734-.6269531-.6845703-1.3212891-1.2119141-2.0830078-.5273438-.7607422-1.1650391-1.5283203-1.9121094-2.3027344-1.8291016,2.3505859-3.9453125,4.1855469-6.3486328,5.5078125Z"/>
      <path class="cls-3" d="m647.4355469,7.8662109c.0400391-.0527344.1074219-.1425781.2001953-.2695312.09375-.1269531.1806641-.1904297.2607422-.1904297.1337891,0,.4003906.1835938.8007812.5507812s.6015625.6240234.6015625.7705078c-.1611328.1875-.4345703.3203125-.8212891.4003906v4.0058594c.0263672,1.6552734.0800781,3.2236328.1601562,4.7060547-.0800781.1201172-.2441406.2402344-.4912109.3603516s-.4638672.1796875-.6503906.1796875c-.0800781,0-.1435547-.0400391-.1904297-.1201172s-.0703125-.1728516-.0703125-.2802734l.0800781-.4404297v-.4404297h-6.8085938v.9814453c0,.0800781-.1035156.1738281-.3105469.2802734s-.4238281.1601562-.6503906.1601562c-.09375,0-.1806641-.0400391-.2607422-.1201172s-.1201172-.1738281-.1201172-.2802734c.09375-1.2548828.1533203-2.6367188.1806641-4.1455078v-2.2832031c0-1.6816406-.0869141-3.0507812-.2607422-4.1054688l1.5419922.7216797h2.6640625v-2.6835938h-4.7265625c-.9482422.0126953-1.9492188.1064453-3.0039062.2802734l-.5205078-1.0214844c.734375.0800781,1.6220703.1337891,2.6630859.1601562h12.2158203l.4404297-.6210938c.0537109-.0664062.1240234-.15625.2109375-.2705078.0859375-.1132812.1601562-.2001953.2197266-.2597656.0605469-.0605469.1171875-.0898438.1708984-.0898438.0800781,0,.2666016.1064453.5605469.3203125.2929688.2128906.5673828.4404297.8212891.6806641.2529297.2402344.3798828.4072266.3798828.5009766-.0537109.2128906-.2197266.3203125-.5009766.3203125h-7.6894531v2.6835938h2.5830078l.3203125-.4414062Zm3.0439453,4.1259766c0-1.6826172-.0869141-3.0507812-.2597656-4.1054688,1.3349609.3740234,2.0019531.6542969,2.0019531.8408203,0,.0673828-.0527344.1337891-.1601562.2001953l-.3398438.2207031v7.4296875c.0263672,1.6552734.0800781,3.2236328.1601562,4.7060547-.0800781.1464844-.2373047.2802734-.4707031.4003906s-.4570312.1796875-.6708984.1796875c-.2275391,0-.3408203-.1328125-.3408203-.4003906l.0800781-.6005859v-.5205078h-13.1962891v.4003906c.0126953.1464844.0224609.2802734.0292969.4003906s.0166016.2070312.0302734.2607422c-.0263672.1328125-.1503906.2636719-.3701172.390625-.2207031.1259766-.4443359.1894531-.6708984.1894531-.1201172,0-.2275391-.0400391-.3203125-.1201172-.09375-.0800781-.140625-.1728516-.140625-.2802734.0537109-.7871094.1005859-1.5517578.140625-2.2929688.0400391-.7402344.0664062-1.7119141.0800781-2.9130859v-4.3662109c0-1.6816406-.0869141-3.0498047-.2607422-4.1054688,1.3222656.3740234,1.9824219.6542969,1.9824219.8417969,0,.0664062-.0537109.1328125-.1601562.2001953l-.3398438.2001953v10.59375h13.1962891v-7.75Zm-7.1884766.2197266v-3.3242188h-2.7841797v3.3242188h2.7841797Zm0,.5810547h-2.7841797v3.7050781h2.7841797v-3.7050781Zm4.0244141-.5810547v-3.3242188h-2.7832031v3.3242188h2.7832031Zm-2.7832031.5810547v3.7050781h2.7832031v-3.7050781h-2.7832031Z"/>
      <path class="cls-3" d="m661.5244141,20.1826172c-.9541016-.4804688-1.4316406-1.3681641-1.4316406-2.6630859,0-1.0419922.2900391-1.9033203.8710938-2.5839844s1.2783203-1.2744141,2.0927734-1.7822266c-.5341797-.3730469-.9111328-.8007812-1.1318359-1.28125-.2197266-.4804688-.3300781-1.0947266-.3300781-1.8427734,0-.6806641.0927734-1.4482422.2802734-2.3027344.1464844-.6679688.2207031-1.2353516.2207031-1.7021484,0-.2939453-.0341797-.5341797-.1005859-.7207031-.0664062-.1875-.1796875-.3613281-.3398438-.5214844-.09375-.0927734-.1845703-.1767578-.2705078-.25-.0869141-.0732422-.1308594-.1230469-.1308594-.1503906,0-.0800781.09375-.1201172.2802734-.1201172.1337891,0,.2939453.0234375.4814453.0703125.1865234.046875.3466797.1035156.4804688.1699219.3466797.1738281.5908203.3740234.7304688.6005859.140625.2275391.2109375.5341797.2109375.921875,0,.2265625-.0273438.4501953-.0800781.6708984-.0537109.2197266-.1142578.4267578-.1806641.6201172-.0673828.1943359-.1132812.3242188-.140625.390625-.0126953.0400391-.0664062.1875-.1601562.4404297-.1328125.2939453-.2333984.5849609-.2998047.8720703-.0673828.2871094-.1005859.6435547-.1005859,1.0712891,0,.3867188.0634766.7636719.1904297,1.1308594s.2900391.6679688.4912109.9013672c.2001953.2333984.40625.3505859.6201172.3505859.1464844,0,.3476562-.046875.6005859-.140625.2539062-.0927734.5078125-.2001953.7617188-.3203125.5332031-.2529297.8876953-.3798828,1.0615234-.3798828.2529297,0,.5029297.0761719.7509766.2294922.2460938.1542969.3701172.3105469.3701172.4707031,0,.2402344-.09375.4140625-.2802734.5214844-.1875.1064453-.4804688.1933594-.8808594.2597656-1.1884766.2138672-2.3369141.6074219-3.4453125,1.1816406s-1.6621094,1.5419922-1.6621094,2.9033203c0,.6943359.2539062,1.2753906.7617188,1.7431641.5068359.4667969,1.2675781.7001953,2.2822266.7001953.3476562,0,.6943359-.0263672,1.0419922-.0800781.3466797-.0527344.5537109-.0869141.6201172-.0996094.6142578-.1074219,1.0478516-.1601562,1.3017578-.1601562.7480469,0,1.1220703.2197266,1.1220703.6601562,0,.3076172-.3007812.5410156-.9013672.7011719s-1.4150391.2402344-2.4433594.2402344c-1.2548828,0-2.359375-.2402344-3.3144531-.7207031Z"/>
      <path class="cls-3" d="m681.3603516,8.4472656c-.4941406,1.3486328-1.0380859,2.8076172-1.6318359,4.3759766s-1.078125,2.8203125-1.4521484,3.7548828c-.0664062.1601562-.1767578.2939453-.3300781.4003906s-.3037109.1601562-.4501953.1601562c-.1738281,0-.3007812-.09375-.3808594-.2802734s-.1201172-.4208984-.1201172-.7011719c0-.1464844.0097656-.2470703.0302734-.3007812.0195312-.0527344.0625-.1328125.1298828-.2402344.1464844-.2666016.2734375-.5068359.3808594-.7207031.2402344-.5205078.5332031-1.0947266.8808594-1.7216797.4667969-.9082031.8574219-1.6992188,1.171875-2.3730469.3134766-.6748047.5830078-1.3583984.8105469-2.0527344-.3076172.0664062-.5605469.0996094-.7607422.0996094-.5605469,0-1.0146484-.1269531-1.3623047-.3798828-.3466797-.2539062-.6074219-.5410156-.7802734-.8613281-.09375-.1464844-.140625-.2802734-.140625-.4003906,0-.0800781.0332031-.1201172.1005859-.1201172.0527344,0,.1464844.0664062.2802734.2001953.2929688.2802734.7734375.4199219,1.4414062.4199219.4003906,0,.921875-.0996094,1.5625-.2998047.0527344-.2275391.0800781-.4873047.0800781-.78125,0-.4267578-.0869141-.7675781-.2607422-1.0214844-.1064453-.1601562-.2568359-.2900391-.4501953-.390625-.1943359-.0996094-.2910156-.1699219-.2910156-.2099609,0-.0537109.0439453-.1005859.1308594-.140625.0859375-.0400391.1904297-.0595703.3105469-.0595703.1865234,0,.3730469.0332031.5605469.0996094.4003906.1337891.6875.3007812.8613281.5009766.1728516.2001953.2597656.4541016.2597656.7607422,0,.2675781-.046875.5478516-.1396484.8417969l.3603516-.1806641c.1064453-.0664062.2001953-.1298828.2802734-.1904297.0800781-.0595703.1201172-.1162109.1201172-.1699219s-.0605469-.1269531-.1806641-.2207031c-.0537109-.0400391-.1298828-.0859375-.2304688-.1396484-.0996094-.0537109-.1494141-.1005859-.1494141-.140625,0-.0527344.0595703-.0800781.1796875-.0800781l.7207031.0205078c.09375,0,.2109375-.0205078.3505859-.0605469.140625-.0400391.2705078-.0595703.390625-.0595703.1865234,0,.3369141.0566406.4511719.1699219.1132812.1132812.1699219.2568359.1699219.4306641,0,.1337891-.0332031.2675781-.1005859.4003906-.0664062.1337891-.1601562.2402344-.2802734.3203125-.8144531.5605469-1.6552734,1.0087891-2.5234375,1.3417969Zm5.1572266,2.203125c-.3808594.4140625-.5712891,1.0341797-.5712891,1.8623047,0,.7607422.09375,1.8496094.28125,3.2636719.0800781.5615234.1328125.9814453.1601562,1.2617188.6533203.1738281,1.2646484.3847656,1.8320312.6308594.5673828.2470703.984375.4980469,1.2519531.7509766.2929688.2939453.4404297.5615234.4404297.8017578,0,.1464844-.0507812.2734375-.1503906.3798828-.1005859.1074219-.2236328.1601562-.3701172.1601562-.1201172,0-.2578125-.0400391-.4111328-.1201172s-.3632812-.2070312-.6308594-.3798828c-.6142578-.4013672-1.2412109-.7080078-1.8818359-.921875.0126953.1074219.0195312.2744141.0195312.5009766,0,.7080078-.2773438,1.2646484-.8310547,1.671875s-1.2050781.6113281-1.9521484.6113281c-.4541016,0-.9052734-.0908203-1.3525391-.2705078-.4472656-.1806641-.8144531-.4375-1.1005859-.7714844-.2880859-.3330078-.4306641-.7275391-.4306641-1.1816406,0-.6806641.3398438-1.2109375,1.0214844-1.5917969.6806641-.3798828,1.5146484-.5703125,2.5029297-.5703125.3203125,0,.640625.0263672.9609375.0800781-.09375-1.46875-.1396484-2.4501953-.1396484-2.9443359,0-.9208984.0693359-1.6484375.2099609-2.1826172.140625-.5332031.4306641-.9912109.8710938-1.3720703.4404297-.3798828,1.1142578-.7109375,2.0224609-.9912109.2539062-.0664062.3808594-.1933594.3808594-.3798828,0-.1601562-.0976562-.3535156-.2910156-.5810547-.1933594-.2265625-.3896484-.4140625-.5898438-.5605469-.0810547-.0664062-.1210938-.1132812-.1210938-.140625,0-.0263672.046875-.0400391.140625-.0400391.1064453,0,.2607422.0234375.4609375.0703125s.3730469.1035156.5205078.1699219c.453125.2001953.8945312.5048828,1.3212891.9111328.4277344.4082031.640625.7910156.640625,1.1523438,0,.2402344-.0927734.4472656-.2802734.6201172-.1865234.1738281-.4003906.2607422-.640625.2607422-.1464844,0-.2802734-.0302734-.4003906-.0898438-.1201172-.0605469-.2675781-.1572266-.4404297-.2910156-.1875-.1328125-.3505859-.2333984-.4902344-.2998047-.140625-.0673828-.3046875-.1005859-.4912109-.1005859-.6005859,0-1.0917969.2070312-1.4716797.6210938Zm-1.5722656,8.8808594c.2402344-.3662109.3671875-.8769531.3808594-1.53125-.5605469-.1201172-1.0947266-.1806641-1.6025391-.1806641-.6005859,0-1.1083984.09375-1.5214844.2802734-.4140625.1875-.6210938.4609375-.6210938.8212891,0,.3740234.1835938.6611328.5507812.8613281s.7978516.2998047,1.2919922.2998047c.7734375,0,1.28125-.1826172,1.5214844-.5507812Z"/>
      <path class="cls-3" d="m706.0732422,8.5273438c.4541016.4277344.8212891,1.0283203,1.1015625,1.8027344s.4199219,1.6689453.4199219,2.6835938c0,2.0292969-.4365234,3.7382812-1.3115234,5.1259766-.8740234,1.3886719-2.3125,2.4101562-4.3154297,3.0644531-.1464844.0527344-.2675781.0800781-.3603516.0800781-.1201172,0-.1806641-.046875-.1806641-.140625,0-.0537109.0332031-.0996094.1005859-.1396484,1.7353516-.734375,2.9541016-1.8291016,3.6542969-3.2841797.7011719-1.4550781,1.0517578-2.984375,1.0517578-4.5859375,0-1.2548828-.1669922-2.3261719-.5009766-3.2148438-.3339844-.8876953-.7802734-1.3310547-1.3417969-1.3310547-.4404297,0-.8603516.2695312-1.2617188.8105469-.4003906.5410156-.7275391,1.1748047-.9804688,1.9023438-.2539062.7285156-.3808594,1.3320312-.3808594,1.8125,0,.2275391.0371094.4443359.1103516.6513672s.1835938.4433594.3300781.7109375c.0800781.1601562.1533203.3271484.2207031.5.0664062.1738281.0996094.3203125.0996094.4404297,0,.1337891-.0429688.2441406-.1298828.3310547s-.2041016.1298828-.3505859.1298828c-.3339844,0-.6279297-.1572266-.8808594-.4707031-.2539062-.3134766-.4443359-.7011719-.5712891-1.1611328-.1269531-.4609375-.1894531-.8984375-.1894531-1.3115234,0-.5615234.0693359-1.2021484.2099609-1.9228516.1396484-.7207031.3300781-1.5957031.5703125-2.6230469.1201172-.5078125.2275391-.9951172.3203125-1.4619141.09375-.4677734.140625-.8017578.140625-1.0019531,0-.3066406-.1005859-.5673828-.3007812-.78125-.0664062-.0800781-.15625-.1699219-.2695312-.2695312-.1142578-.1005859-.1708984-.1835938-.1708984-.2509766,0-.0664062.046875-.1201172.140625-.1601562.0927734-.0400391.2070312-.0595703.3398438-.0595703.3339844,0,.6210938.1503906.8613281.4501953.2402344.3007812.3603516.6845703.3603516,1.1513672,0,.4404297-.0566406.8847656-.1699219,1.3320312s-.2841797,1.0244141-.5107422,1.7324219l-.2001953.6005859c-.1337891.4003906-.2207031.8212891-.2607422,1.2617188.4140625-.9345703.8710938-1.6757812,1.3720703-2.2226562.5009766-.5478516,1.1113281-.8212891,1.8320312-.8212891.4814453,0,.9482422.2138672,1.4023438.640625Z"/>
      <path class="cls-3" d="m727.4814453,18.7207031c.640625.4677734.9609375.9951172.9609375,1.5820312,0,.2001953-.046875.3369141-.1396484.4101562-.09375.0732422-.1943359.1103516-.3007812.1103516-.2402344,0-.5009766-.1269531-.78125-.3808594-.0664062-.0664062-.3173828-.296875-.7509766-.6904297s-.8974609-.7509766-1.3916016-1.0712891c-.1201172.7207031-.4609375,1.2919922-1.0214844,1.7119141-.5605469.4208984-1.2880859.6308594-2.1826172.6308594-.7744141,0-1.46875-.1699219-2.0830078-.5107422-.6142578-.3398438-.9208984-.8242188-.9208984-1.4511719,0-.4414062.1630859-.8183594.4912109-1.1318359.3261719-.3134766.7333984-.546875,1.2207031-.7011719.4873047-.1533203.9785156-.2304688,1.4726562-.2304688.4667969,0,1.1142578.09375,1.9423828.2802734l-.0400391-.5c-.09375-1.4023438-.1542969-2.4033203-.1806641-3.0039062-.8808594.1464844-1.5820312.2197266-2.1025391.2197266-.7207031,0-1.3388672-.1367188-1.8525391-.4101562s-.890625-.6572266-1.1308594-1.1513672c-.0400391-.1064453-.0605469-.1806641-.0605469-.2207031,0-.0664062.0263672-.0996094.0800781-.0996094.0400391,0,.0869141.0195312.140625.0595703.0527344.0400391.0927734.0673828.1201172.0800781.2529297.1738281.6005859.3505859,1.0410156.53125.4404297.1796875.9414062.2705078,1.5019531.2705078.1865234,0,.4873047-.0205078.9013672-.0605469.4130859-.0400391.8535156-.0996094,1.3212891-.1806641-.0136719-.1328125-.0195312-.3134766-.0195312-.5400391,0-1.1484375.0332031-2.1298828.0996094-2.9443359-.0664062.0136719-.1738281.0205078-.3203125.0205078-.3603516,0-.6943359-.0605469-1.0009766-.1806641-.2539062-.1064453-.5273438-.2734375-.8212891-.5-.2939453-.2275391-.5078125-.4335938-.640625-.6210938-.09375-.1464844-.140625-.2470703-.140625-.3007812,0-.0527344.0263672-.0800781.0800781-.0800781.0800781,0,.1875.0341797.3203125.1005859l.4208984.2197266c.2138672.1337891.4072266.2304688.5810547.2910156.1728516.0595703.3935547.0898438.6601562.0898438.2138672,0,.5410156-.046875.9814453-.140625.0136719-.0927734.046875-.3027344.1005859-.6298828.0527344-.3271484.0800781-.6376953.0800781-.9316406,0-.4140625-.0732422-.7744141-.2207031-1.0810547-.0800781-.1601562-.2070312-.3408203-.3798828-.5410156-.0673828-.0800781-.1269531-.1601562-.1806641-.2402344s-.0800781-.1464844-.0800781-.2001953c0-.0800781.0429688-.1464844.1298828-.2001953s.1972656-.0800781.3310547-.0800781c.1328125,0,.3271484.0498047.5800781.1503906.2539062.0996094.4814453.2529297.6816406.4599609s.2998047.4707031.2998047.7910156c0,.1875-.0400391.4511719-.1201172.7910156-.0800781.3408203-.1669922.6582031-.2597656.9511719l-.1201172.5605469,1.140625-.3398438c.1201172-.0400391.2333984-.0605469.3408203-.0605469.1464844,0,.2666016.0341797.3603516.1005859s.140625.1669922.140625.2998047c0,.1337891-.0507812.2675781-.1503906.4013672-.1005859.1328125-.2441406.2402344-.4306641.3203125-.4277344.1865234-.9550781.3466797-1.5820312.4804688-.0800781.8007812-.1201172,1.6152344-.1201172,2.4433594,0,.2666016.0126953.5869141.0400391.9609375.640625-.1464844,1.1542969-.3535156,1.5419922-.6210938.2001953-.1464844.3007812-.2998047.3007812-.4599609s-.1201172-.3876953-.3613281-.6816406c-.0263672-.0400391-.0634766-.0898438-.109375-.1494141-.046875-.0605469-.0908203-.1240234-.1308594-.1904297-.0927734-.1474609-.1396484-.2470703-.1396484-.3007812,0-.0400391.0195312-.0595703.0595703-.0595703.0537109,0,.1738281.0732422.3603516.2197266.3076172.2539062.6679688.4277344,1.0820312.5205078.1464844.0400391.2998047.0673828.4599609.0800781.2138672.0273438.3740234.09375.4814453.2001953.0927734.09375.1396484.234375.1396484.4208984,0,.2001953-.0664062.4003906-.2001953.6005859s-.3408203.3671875-.6210938.5009766c-.2666016.1201172-.6601562.2636719-1.1816406.4306641-.5205078.1669922-1.0605469.3173828-1.6220703.4501953.0400391.6005859.1533203,1.5419922.3408203,2.8242188l.1601562,1.1611328c.9609375.2939453,1.7626953.6748047,2.4033203,1.1416016Zm-4.1855469.8212891c.4541016-.3339844.6943359-.8144531.7207031-1.4423828-.7080078-.3066406-1.421875-.4599609-2.1425781-.4599609-.5742188,0-1.0986328.1230469-1.5722656.3701172s-.7109375.5771484-.7109375.9912109c0,.3203125.1972656.5742188.5908203.7607422.3935547.1875.8310547.2802734,1.3115234.2802734.7480469,0,1.3486328-.1660156,1.8027344-.5Z"/>
      <path class="cls-3" d="m751.5732422,8.1171875c.1601562.0996094.2402344.2568359.2402344.4707031,0,.3603516-.2207031.5400391-.6611328.5400391-.0136719,0-.2734375-.0263672-.78125-.0800781-1.4951172-.1728516-2.7167969-.2597656-3.6640625-.2597656-.5478516,0-1.0751953.0195312-1.5820312.0595703-.0273438,1.1484375-.0400391,2.0224609-.0400391,2.6240234,0,.640625.0058594,1.0810547.0195312,1.3212891.2666016.4804688.4775391,1.0117188.6308594,1.5917969.1533203.5810547.2304688,1.1054688.2304688,1.5722656,0,1.1083984-.2607422,2.0498047-.78125,2.8232422-.5205078.7744141-1.1279297,1.3720703-1.8222656,1.7929688-.6943359.4199219-1.3349609.7041016-1.9228516.8505859-.0927734.0273438-.1601562.0400391-.2001953.0400391-.0927734,0-.1396484-.0332031-.1396484-.0996094,0-.09375.0732422-.1669922.2197266-.2207031,1.3486328-.6005859,2.2402344-1.3583984,2.6738281-2.2724609.4335938-.9150391.6503906-1.7128906.6503906-2.3935547v-.0996094c-.0664062.1464844-.2431641.3066406-.5302734.4804688s-.5302734.2597656-.7304688.2597656c-.3876953,0-.7246094-.1367188-1.0117188-.4101562s-.5175781-.6035156-.6904297-.9912109c-.1611328-.3466797-.2880859-.7138672-.3808594-1.1015625-.09375-.3867188-.140625-.7412109-.140625-1.0615234,0-.6269531.1708984-1.1640625.5107422-1.6123047.3408203-.4462891.8173828-.6708984,1.4316406-.6708984.3476562,0,.6679688.1074219.9619141.3212891.1464844-.7080078.2197266-1.5957031.2197266-2.6640625-.7470703.09375-1.4785156.2509766-2.1923828.4707031-.7148438.2207031-1.4921875.5175781-2.3330078.8916016-.2939453.1328125-.5546875.2402344-.78125.3203125-.2275391.0800781-.4873047.1201172-.78125.1201172-.3867188,0-.7675781-.1064453-1.1416016-.3203125-.2929688-.1738281-.5605469-.3876953-.8007812-.640625-.2402344-.2539062-.3603516-.4472656-.3603516-.5810547,0-.0800781.046875-.1201172.140625-.1201172.1328125,0,.3134766.0332031.5400391.0996094.4404297.09375.7880859.140625,1.0419922.140625.4404297,0,.9208984-.0605469,1.4414062-.1806641.5078125-.1064453,1.2714844-.25,2.2929688-.4306641,1.0214844-.1796875,1.9990234-.3427734,2.9335938-.4902344-.0263672-.7871094-.0527344-1.3349609-.0800781-1.6425781-.0126953-.3330078-.0869141-.6435547-.2197266-.9306641-.1337891-.2871094-.2744141-.4912109-.4208984-.6113281-.09375-.0800781-.1904297-.1533203-.2900391-.2197266-.1005859-.0664062-.1503906-.1201172-.1503906-.1601562,0-.09375.0830078-.1669922.25-.2207031.1669922-.0527344.3310547-.0800781.4912109-.0800781.2402344,0,.4736328.0537109.7001953.1601562.5742188.2539062.8613281.5742188.8613281.9619141,0,.0527344-.0332031.2333984-.0996094.5400391,1.28125.7744141,2.2958984,1.2685547,3.0439453,1.4824219.3730469.1064453.7207031.1835938,1.0410156.2304688s.6005859.0761719.8408203.0898438c.3339844.0263672.5205078.046875.5605469.0595703.3476562.0673828.6015625.1503906.7617188.2509766Zm-7.7207031,7.1591797c.1806641-.2265625.2705078-.6005859.2705078-1.1220703,0-.4804688-.09375-.9804688-.2802734-1.5019531-.1865234-.5205078-.4804688-.7802734-.8808594-.7802734-.3603516,0-.6513672.1669922-.8710938.5-.2207031.3339844-.3300781.7744141-.3300781,1.3222656,0,.4667969.1464844.9042969.4404297,1.3115234.2929688.4072266.6132812.6103516.9609375.6103516.2802734,0,.5107422-.1132812.6904297-.3398438Zm2.9443359-7.359375c.1269531-.0068359.2197266-.0205078.2802734-.0400391.0605469-.0205078.0898438-.0507812.0898438-.0908203,0-.0527344-.0429688-.1064453-.1298828-.1601562-.0869141-.0527344-.1435547-.0927734-.1699219-.1201172l-1.6025391-1.1416016c-.0400391.3740234-.0732422.9482422-.0996094,1.7226562.6005859-.09375,1.0478516-.1464844,1.3417969-.1601562.0664062,0,.1630859-.0029297.2900391-.0097656Z"/>
      <path class="cls-3" d="m756.6103516,21.3144531c-.4082031-.234375-.7285156-.5507812-.9619141-.9521484-.2333984-.4003906-.3505859-.8408203-.3505859-1.3212891,0-.4667969.1171875-.9013672.3505859-1.3017578s.5537109-.7177734.9619141-.9511719c.40625-.2333984.84375-.3505859,1.3115234-.3505859.4667969,0,.9013672.1171875,1.3017578.3505859s.7167969.5507812.9511719.9511719c.2333984.4003906.3505859.8349609.3505859,1.3017578,0,.4804688-.1171875.9208984-.3505859,1.3212891-.234375.4013672-.5507812.7177734-.9511719.9521484-.4003906.2333984-.8349609.3496094-1.3017578.3496094-.4677734,0-.9052734-.1162109-1.3115234-.3496094Zm2.8134766-.7714844c.4130859-.4140625.6201172-.9140625.6201172-1.5019531,0-.5742188-.2070312-1.0683594-.6201172-1.4814453-.4140625-.4140625-.9150391-.6210938-1.5019531-.6210938-.5878906,0-1.0888672.2070312-1.5019531.6210938-.4140625.4130859-.6210938.9072266-.6210938,1.4814453,0,.5878906.2070312,1.0878906.6210938,1.5019531.4130859.4140625.9140625.6210938,1.5019531.6210938.5869141,0,1.0878906-.2070312,1.5019531-.6210938Z"/>
    </g>
    <polyline class="cls-1" points="0 51.5 375.6130792 51.5 385.5 113.01829 395.3869208 51.5 776 51.5"/>
    <rect class="cls-6" width="98" height="24"/>
  </g>
</svg>