<?xml version="1.0" encoding="UTF-8"?>
<svg id="_レイヤー_2" data-name="レイヤー 2" xmlns="http://www.w3.org/2000/svg" viewBox="0 0 166 42">
  <defs>
    <style>
      .cls-1 {
        fill: #231815;
        stroke-width: 0px;
      }

      .cls-2 {
        fill: none;
        stroke: #d4d4d5;
        stroke-miterlimit: 10;
      }
    </style>
  </defs>
  <g id="_レイヤー_1-2" data-name="レイヤー 1">
    <g>
      <path class="cls-1" d="m33.1625977,18.8779297c.2348633.0947266.4370117.2148438.6074219.359375.1699219.1455078.2548828.2929688.2548828.4423828,0,.1103516-.0375977.1826172-.1123047.2177734-.0751953.0351562-.1777344.0527344-.3076172.0527344-.2299805,0-.4350586-.015625-.6147461-.0449219-.5605469-.0800781-1.4902344-.1201172-2.7900391-.1201172-.3505859,0-.6152344.0048828-.7954102.0146484-.0498047,1.4902344-.2397461,2.75-.5698242,3.7802734s-.7973633,1.8847656-1.4023438,2.5644531c-.6054688.6806641-1.3676758,1.25-2.2875977,1.7109375-.1000977.0498047-.175293.0742188-.2250977.0742188-.0698242,0-.1049805-.0244141-.1049805-.0742188,0-.0703125.0849609-.1552734.2548828-.2558594,1.1499023-.7695312,1.9926758-1.7871094,2.527832-3.0517578.534668-1.265625.8222656-2.8378906.8623047-4.7177734-.3999023.0205078-.7001953.0400391-.8999023.0595703l-.3149414.0302734c-.1904297.0205078-.550293.0605469-1.0800781.1201172.0097656.9599609.0297852,1.7597656.0600586,2.4003906.0097656.0898438.0151367.1943359.0151367.3144531,0,.5205078-.1352539.7802734-.4052734.7802734-.0600586,0-.1347656-.0478516-.2250977-.1425781-.0898438-.0947266-.1699219-.2275391-.2397461-.3974609-.0703125-.1699219-.1049805-.3603516-.1049805-.5703125,0-.0498047.0146484-.2568359.0449219-.6220703.0297852-.3652344.0449219-.6875.0449219-.9677734,0-.2998047-.0053711-.5302734-.0151367-.6904297-1.25.1806641-2.0849609.3251953-2.5048828.4355469-.2099609.0595703-.3950195.0898438-.5551758.0898438-.159668,0-.3500977-.0595703-.5698242-.1796875-.2202148-.1201172-.4125977-.2773438-.5776367-.4726562s-.2475586-.3623047-.2475586-.5029297c0-.0595703.0302734-.0898438.090332-.0898438s.1899414.0556641.3901367.1650391c.0996094.0605469.2773438.1152344.5322266.1650391s.5424805.0751953.8623047.0751953c.2900391,0,1.1450195-.0849609,2.5654297-.2548828-.0302734-.6699219-.0654297-1.1201172-.1049805-1.3505859-.090332-.4394531-.3603516-.7148438-.8100586-.8242188-.0102539,0-.0625-.0126953-.1577148-.0380859-.0952148-.0244141-.1425781-.0625-.1425781-.1123047,0-.0595703.0825195-.1171875.2475586-.1728516.1650391-.0546875.3276367-.0820312.487793-.0820312.3896484,0,.7348633.0625,1.034668.1875.300293.125.4501953.2773438.4501953.4570312,0,.0605469-.027832.1552734-.0825195.2851562-.0551758.1298828-.0825195.2304688-.0825195.2998047v1.2607422c.4599609-.0498047.949707-.0957031,1.4697266-.1357422l.8251953-.0449219c0-1.0097656-.0249023-1.7197266-.0751953-2.1298828-.0498047-.3798828-.1499023-.6748047-.2998047-.8847656s-.3901367-.3798828-.7197266-.5097656c-.1000977-.0400391-.1503906-.0800781-.1503906-.1201172s.0351562-.0800781.1049805-.1201172c.1801758-.1201172.3852539-.1796875.6152344-.1796875.159668,0,.387207.046875.6826172.1425781.2944336.0947266.5522461.2148438.7724609.359375.2197266.1455078.3300781.2929688.3300781.4423828,0,.1103516-.0351562.2353516-.1049805.375-.0805664.140625-.1303711.2802734-.1503906.4199219-.0297852.2001953-.0449219.5654297-.0449219,1.0957031v1.0644531c.7998047-.0400391,1.4301758-.0800781,1.8901367-.1201172.1801758-.0195312.409668-.0947266.6899414-.2246094.2402344-.1201172.4248047-.1796875.5551758-.1796875.1699219,0,.3720703.046875.6074219.1425781Z"/>
      <path class="cls-1" d="m40.0698242,18.6445312c-.2299805-.3496094-.5297852-.6396484-.8999023-.8691406-.3701172-.2304688-.7651367-.4052734-1.1850586-.5253906-.0800781-.0195312-.1450195-.0400391-.1948242-.0595703-.050293-.0205078-.0751953-.0458984-.0751953-.0751953,0-.0898438.2299805-.1347656.6899414-.1347656.4204102,0,.8574219.0517578,1.3125.1572266.4550781.1044922.8325195.2724609,1.1328125.5019531.3798828.3007812.5698242.6298828.5698242.9902344,0,.1796875-.0473633.328125-.1425781.4423828-.0952148.1152344-.2275391.1728516-.3974609.1728516-.2797852,0-.5498047-.2001953-.8100586-.6005859Zm-2.1147461,5.8056641c0-.1298828.0170898-.2373047.0522461-.3222656s.0678711-.1279297.0976562-.1279297.0751953.0546875.1352539.1650391c.0595703.1103516.1396484.2148438.2397461.3154297.1000977.0996094.1923828.1767578.2773438.2324219.0849609.0546875.2075195.0820312.3676758.0820312.3598633,0,1.0146484-.2900391,1.9648438-.8701172s2.0576172-1.3974609,3.3227539-2.4521484c1.2646484-1.0546875,2.5322266-2.2626953,3.8022461-3.6230469.090332-.109375.1699219-.1650391.2402344-.1650391.0395508,0,.0600586.0205078.0600586.0605469,0,.0595703-.050293.1650391-.1499023.3144531-.6801758.9501953-1.4902344,1.9150391-2.4301758,2.8955078s-1.8476562,1.8525391-2.7226562,2.6171875c-.875.765625-1.5673828,1.328125-2.0776367,1.6875-.1196289.0898438-.2197266.1552734-.2998047.1953125-.0898438.0595703-.1801758.125-.2700195.1953125-.0898438.0693359-.1899414.1650391-.2998047.2841797-.2099609.2402344-.4501953.3603516-.7202148.3603516-.3300781,0-.6474609-.1376953-.9526367-.4121094-.3051758-.2753906-.4975586-.5976562-.5771484-.9677734-.0400391-.1601562-.0600586-.3154297-.0600586-.4648438Z"/>
      <path class="cls-1" d="m52.4448242,27.0595703c0-.0693359.1000977-.1542969.300293-.2548828,1.7197266-.8300781,3.1845703-1.859375,4.3950195-3.0898438,1.2094727-1.2294922,2.1274414-2.3945312,2.7524414-3.4951172.625-1.0996094.9472656-1.8447266.9672852-2.234375,0-.0908203-.0498047-.1357422-.1499023-.1357422-.1103516,0-.5322266.0449219-1.2675781.1357422-.7348633.0898438-1.5322266.2099609-2.3925781.359375-.8598633.1503906-1.6098633.3154297-2.25.4951172-.2299805.0605469-.4296875.0898438-.5996094.0898438-.340332,0-.6103516-.0849609-.8100586-.2548828-.1401367-.1201172-.2675781-.2919922-.3828125-.5175781-.1147461-.2246094-.1723633-.4023438-.1723633-.5322266,0-.0996094.0498047-.1503906.1499023-.1503906.0800781,0,.2001953.0351562.3603516.1054688.3295898.1298828.6547852.1953125.9746094.1953125.2299805,0,1.1201172-.0605469,2.6704102-.1806641,1.5498047-.1201172,2.4648438-.2197266,2.7446289-.2998047.1401367-.0400391.3198242-.1044922.5400391-.1953125.3398438-.1494141.5751953-.2246094.7050781-.2246094.1201172,0,.2949219.0751953.5249023.2246094.2299805.1503906.4375.3232422.6225586.5175781.1850586.1953125.2773438.3632812.2773438.5029297,0,.1103516-.0322266.2148438-.097168.3144531-.0654297.1005859-.1625977.2158203-.2924805.3457031-.0205078.0292969-.0927734.1171875-.2177734.2626953-.125.1445312-.2373047.3066406-.3374023.4873047-.6801758,1.2998047-1.4453125,2.4101562-2.2949219,3.3300781-.8500977.9199219-1.7802734,1.7001953-2.7900391,2.3398438-1.0102539.6396484-2.2001953,1.2597656-3.5698242,1.859375-.1201172.0507812-.2050781.0751953-.2553711.0751953-.0698242,0-.1049805-.0244141-.1049805-.0751953Zm9.8100586-10.1025391c-.2797852-.2744141-.4199219-.6123047-.4199219-1.0117188,0-.4003906.1401367-.7373047.4199219-1.0126953s.6201172-.4130859,1.0200195-.4130859.7373047.140625,1.0126953.4208984c.2749023.2792969.4125977.6142578.4125977,1.0048828,0,.3994141-.1401367.7373047-.4204102,1.0117188-.2797852.2753906-.6147461.4130859-1.0048828.4130859-.3999023,0-.7402344-.1376953-1.0200195-.4130859Zm1.7548828-.2841797c.2001953-.2050781.300293-.4482422.300293-.7275391,0-.2900391-.1025391-.5380859-.3076172-.7431641-.2050781-.2041016-.4477539-.3076172-.7275391-.3076172-.2900391,0-.5375977.1035156-.7421875.3076172-.2050781.2050781-.3076172.453125-.3076172.7431641s.1025391.5351562.3076172.734375c.2045898.2001953.4521484.3007812.7421875.3007812s.5351562-.1025391.7348633-.3076172Z"/>
      <path class="cls-1" d="m65.5097656,26.5351562c0-.0498047.0551758-.1298828.1650391-.2402344.9101562-.8398438,1.7075195-1.8525391,2.3925781-3.0371094.6850586-1.1855469,1.1474609-2.2929688,1.3876953-3.3232422.0498047-.1796875.074707-.3349609.074707-.4648438,0-.2695312-.1401367-.4892578-.4199219-.6601562-.1899414-.1191406-.284668-.2197266-.284668-.2998047s.0795898-.1201172.2397461-.1201172c.3100586,0,.6298828.0908203.9599609.2705078.1899414.0996094.3725586.25.5473633.4501953.175293.2001953.2626953.375.2626953.5244141,0,.0800781-.0551758.2207031-.1650391.4199219-.1000977.1601562-.1850586.3505859-.2548828.5703125-.2001953.6103516-.5625,1.3125-1.0874023,2.1074219s-1.1103516,1.5400391-1.7553711,2.2353516c-.6445312.6953125-1.2421875,1.2119141-1.7924805,1.5517578-.0800781.0507812-.1450195.0751953-.1948242.0751953-.050293,0-.0751953-.0195312-.0751953-.0595703Zm7.0053711-2.0097656c-.2602539-.2304688-.3901367-.4501953-.3901367-.6601562,0-.0703125.0200195-.140625.0600586-.2099609.0698242-.1201172.1049805-.390625.1049805-.8105469l-.0151367-1.125c0-.2792969.0048828-.4951172.0151367-.6445312l.0449219-.9599609c.0302734-.3505859.0449219-.6455078.0449219-.8847656,0-.3701172-.0498047-.6103516-.1499023-.7207031-.0898438-.0996094-.1801758-.1767578-.2700195-.2324219-.0898438-.0546875-.1875-.1074219-.2924805-.1572266s-.1577148-.0947266-.1577148-.1347656c0-.0703125.050293-.125.1503906-.1650391.0996094-.0400391.2397461-.0605469.4199219-.0605469.2299805,0,.4648438.0527344.7050781.1582031.2397461.1044922.4370117.2373047.5922852.3974609.1547852.1591797.2324219.3193359.2324219.4794922,0,.0703125-.0351562.1552734-.1049805.2548828-.0698242.1005859-.1147461.2001953-.1347656.2998047-.050293.2910156-.1025391.890625-.1577148,1.8007812s-.0874023,1.5546875-.097168,1.9345703c0,.140625.0644531.2099609.1948242.2099609.2299805,0,.6499023-.1669922,1.2597656-.5019531s1.3149414-.7880859,2.1152344-1.3583984c.7998047-.5693359,1.5800781-1.1845703,2.3398438-1.8447266.1401367-.1298828.2402344-.1953125.300293-.1953125.0498047,0,.074707.0253906.074707.0751953,0,.0800781-.0698242.1953125-.2099609.3457031-.3901367.4599609-.9477539,1.0195312-1.6723633,1.6796875-.7250977.6601562-1.4799805,1.2871094-2.2651367,1.8828125-.7851562.5947266-1.4677734,1.0371094-2.0473633,1.3271484-.0800781.0400391-.1601562.0595703-.2402344.0595703-.1401367,0-.2900391-.0791016-.449707-.2392578Z"/>
      <path class="cls-1" d="m92.2924805,18.7646484c.2548828.2099609.3823242.4902344.3823242.8408203,0,.4492188-.1948242.8320312-.5849609,1.1474609-.3896484.3144531-.9199219.6171875-1.5898438.9072266l-1.1098633.4501953c-.7402344.2900391-1.2353516.4892578-1.4853516.5996094-.0297852.2099609-.0449219.5400391-.0449219.9902344,0,.7099609-.0048828,1.109375-.0146484,1.2001953-.0102539.1494141-.0727539.2773438-.1875.3818359-.1152344.1054688-.237793.1582031-.3676758.1582031-.1201172,0-.2250977-.0556641-.3149414-.1650391-.090332-.1103516-.1352539-.2353516-.1352539-.375,0-.1103516.0151367-.3056641.0449219-.5849609l.090332-1.1552734c-.5800781.3203125-1.0327148.6552734-1.3574219,1.0048828-.3251953.3505859-.487793.7402344-.487793,1.1699219,0,.7597656.7597656,1.1396484,2.2802734,1.1396484.2299805,0,.4648438-.0195312.7050781-.0595703.2397461-.0400391.4648438-.0849609.6748047-.1347656.3999023-.0898438.7099609-.1357422.9301758-.1357422.3896484,0,.5849609.1357422.5849609.4052734,0,.2998047-.2802734.5097656-.840332.6298828s-1.1450195.1806641-1.7548828.1806641c-1.25,0-2.0849609-.1875-2.5048828-.5625s-.6298828-.8330078-.6298828-1.3730469c0-.5595703.2119141-1.0517578.637207-1.4775391.4248047-.4248047,1.0224609-.8369141,1.7924805-1.2373047.0097656-.1103516.0151367-.2646484.0151367-.4648438,0-1.0498047-.3100586-1.5751953-.9301758-1.5751953-.3598633,0-.7373047.2148438-1.1323242.6455078-.3950195.4296875-.777832.8994141-1.1474609,1.4091797-.0302734.0400391-.1000977.1425781-.2099609.3076172-.1103516.1650391-.215332.2978516-.3149414.3974609-.1000977.1005859-.1855469.1503906-.2553711.1503906-.1699219,0-.2998047-.0654297-.3896484-.1953125-.090332-.1298828-.1352539-.2851562-.1352539-.4648438,0-.2402344.0551758-.4199219.1650391-.5400391l.2700195-.2402344c.3198242-.2998047.5947266-.5693359.8251953-.8095703.2299805-.2402344.4350586-.5146484.6147461-.8251953.5102539-.8701172.9199219-1.7998047,1.2299805-2.7900391-.3896484.1103516-.7749023.1650391-1.1547852.1650391-.3300781,0-.6103516-.0546875-.8398438-.1650391-.2304688-.109375-.5053711-.2900391-.8251953-.5400391-.0400391-.0302734-.0600586-.0595703-.0600586-.0898438,0-.0400391.0249023-.0595703.0751953-.0595703.0395508,0,.1098633.0146484.2099609.0449219.3198242.1201172.659668.1796875,1.0200195.1796875.1796875,0,.4296875-.0224609.75-.0673828.3198242-.0449219.6699219-.1376953,1.0498047-.2773438.0698242-.2802734.1049805-.5253906.1049805-.7353516,0-.3994141-.1552734-.7246094-.4648438-.9746094-.050293-.0400391-.0751953-.0800781-.0751953-.1201172.0097656-.1503906.090332-.2255859.2402344-.2255859.0898438,0,.2597656.0302734.5097656.0908203.25.0595703.4052734.1298828.465332.2099609.0498047.0595703.074707.1699219.074707.3300781,0,.0595703-.0102539.1591797-.0297852.2998047.159668.1103516.375.1650391.6450195.1650391.1396484,0,.2446289-.015625.3149414-.0449219.0996094-.0205078.199707-.0302734.2998047-.0302734.2299805,0,.3452148.0849609.3452148.2548828,0,.1298828-.0776367.2753906-.2324219.4345703-.1552734.1601562-.3476562.3007812-.5776367.4208984-.3203125.1796875-.7348633.3642578-1.2451172.5546875-.3598633,1.1601562-.7148438,2.125-1.0649414,2.8945312.2900391-.1699219.574707-.2548828.8549805-.2548828.4897461,0,.8725586.1347656,1.1474609.4052734.2749023.2695312.4575195.6347656.5473633,1.0947266.1801758-.4199219.375-.7871094.5849609-1.1025391.2104492-.3144531.465332-.6318359.7651367-.9521484.300293-.3203125.6699219-.5947266,1.1098633-.8251953.4399414-.2294922.8603516-.3447266,1.2602539-.3447266.3300781,0,.6225586.1044922.8774414.3144531Zm-5.8125-2.1445312c.0698242-.0302734.1298828-.0625.1801758-.0976562.0498047-.0351562.0947266-.0625.1347656-.0820312.0698242-.0400391.1049805-.0800781.1049805-.1201172s-.0400391-.0898438-.1201172-.1503906l-.1645508-.1044922c0,.0292969-.0454102.2148438-.1352539.5546875Zm4.8525391,3.5478516c.3046875-.3457031.4575195-.6279297.4575195-.8476562,0-.2900391-.1899414-.4355469-.5698242-.4355469-.2700195,0-.5800781.0957031-.9301758.2851562-.3500977.1904297-.6748047.4355469-.9750977.7353516-.2700195.2695312-.5302734.6318359-.7797852,1.0869141-.25.4550781-.4301758.8574219-.5400391,1.2080078v.0146484l.1948242-.0898438.3149414-.1503906c.8100586-.3994141,1.3549805-.6845703,1.6352539-.8544922.4897461-.2900391.887207-.6074219,1.1923828-.9521484Z"/>
      <path class="cls-1" d="m105.8452148,14.9404297c.0195312-.0302734.0546875-.0800781.1049805-.1503906.0498047-.0703125.0947266-.1220703.1347656-.1572266s.0800781-.0527344.1201172-.0527344c.0600586,0,.1821289.0722656.3671875.2177734.1850586.1445312.3549805.2998047.5102539.4648438.1547852.1650391.2324219.2822266.2324219.3525391-.1201172.1298828-.3300781.234375-.6298828.3144531v4.0507812c.0200195,1.2392578.0600586,2.4140625.1201172,3.5244141-.0703125.0898438-.2001953.1796875-.3901367.2705078-.1899414.0898438-.3598633.1347656-.5102539.1347656-.1298828,0-.1948242-.0996094-.1948242-.2998047.0097656-.0302734.0175781-.0625.0224609-.0976562s.0126953-.0722656.0224609-.1123047v-.2705078h-1.4399414v3.5400391c0,.1201172.0351562.1953125.1049805.2246094.0698242.0302734.2348633.0458984.4951172.0458984h1.4550781c.7797852,0,1.2348633-.0048828,1.3647461-.015625.090332-.0097656.1523438-.0273438.1875-.0527344.0351562-.0244141.0678711-.0771484.0976562-.1572266.0498047-.1201172.1147461-.3798828.1948242-.7802734.0800781-.3994141.1601562-.8193359.2402344-1.2597656h.2099609l.0297852,2.1152344c.1503906.0498047.25.1044922.300293.1650391.0498047.0595703.074707.1445312.074707.2548828,0,.1601562-.0698242.2851562-.2099609.375s-.4023438.1552734-.7875977.1953125c-.3847656.0400391-.9575195.0595703-1.7172852.0595703h-1.5898438c-.3803711,0-.6674805-.0302734-.862793-.0898438-.1948242-.0595703-.3276367-.1572266-.3974609-.2929688-.0698242-.1347656-.1049805-.3320312-.1049805-.5917969v-3.7353516h-1.6347656c-.1499023,1.0107422-.4428711,1.8427734-.8774414,2.4980469-.4350586.6542969-1.0454102,1.1826172-1.8300781,1.5820312-.7851562.3994141-1.8027344.7099609-3.0527344.9296875l-.0600586-.2392578c1.0600586-.3007812,1.9150391-.6552734,2.5649414-1.0654297.6503906-.4101562,1.1479492-.9121094,1.4926758-1.5078125.3452148-.5947266.5776367-1.3271484.6977539-2.1972656h-1.3203125v.6005859c0,.0595703-.0825195.1298828-.2475586.2099609s-.3422852.1191406-.5322266.1191406c-.0800781,0-.152832-.0292969-.2177734-.0898438-.0649414-.0595703-.097168-.1298828-.097168-.2099609.0395508-.5800781.0722656-1.1542969.097168-1.7246094s.0424805-1.2851562.0527344-2.1455078v-2.0849609c0-1.2597656-.0654297-2.2841797-.1948242-3.0742188l1.2148438.5546875h6.1499023l.2402344-.3447266Zm-.090332,2.7744141v-1.9794922h-6.375v1.9794922h6.375Zm-6.375,2.4599609h6.375v-2.0244141h-6.375v2.0244141Zm6.375.4501953h-6.375v2.0546875h6.375v-2.0546875Z"/>
      <path class="cls-1" d="m119.6601562,21.1503906c.5.2099609.909668.5351562,1.2299805.9746094.3198242.4404297.4799805.9804688.4799805,1.6201172,0,.6201172-.1850586,1.1699219-.5551758,1.6494141-.3701172.4804688-.8476562.8535156-1.4326172,1.1181641s-1.1923828.3974609-1.8222656.3974609c-.5302734,0-1.0048828-.1171875-1.425293-.3525391-.4199219-.2353516-.6298828-.5576172-.6298828-.9677734,0-.3398438.1352539-.6123047.4052734-.8173828s.5795898-.3076172.9296875-.3076172c.3999023,0,.7700195.1298828,1.1103516.390625.3398438.2597656.5898438.6347656.75,1.125.4995117-.2402344.9150391-.5751953,1.2446289-1.0058594.3300781-.4296875.4951172-.9042969.4951172-1.4248047,0-.7802734-.2602539-1.3525391-.7797852-1.7177734-.5200195-.3642578-1.125-.546875-1.8149414-.546875-.6401367,0-1.2299805.1972656-1.7700195.5927734-.5400391.3945312-1.090332,1.0673828-1.6503906,2.0166016-.0498047.0810547-.125.2080078-.2246094.3828125-.1000977.1748047-.1953125.3027344-.2851562.3828125s-.1899414.1201172-.2998047.1201172c-.1801758,0-.3129883-.0546875-.3979492-.1650391s-.1274414-.2402344-.1274414-.390625c0-.2792969.1176758-.5869141.3525391-.921875s.5927734-.7773438,1.0727539-1.328125c.4897461-.5595703,1.074707-1.2646484,1.7548828-2.1142578.6796875-.8505859,1.0952148-1.3701172,1.2451172-1.5605469l.4648438-.5849609c.0498047-.0595703.1123047-.1347656.1875-.2246094s.1298828-.1679688.1650391-.2324219c.034668-.0654297.0522461-.1279297.0522461-.1875,0-.1005859-.0371094-.1953125-.1123047-.2851562s-.1523438-.1347656-.2324219-.1347656c-.1201172,0-.25.0849609-.3901367.2548828-.2900391.359375-.6147461.6572266-.9750977.8925781-.3598633.234375-.699707.3525391-1.0200195.3525391-.5395508,0-.8500977-.3701172-.9296875-1.1103516l-.0151367-.2851562c0-.0800781.0200195-.1201172.0600586-.1201172.0297852,0,.1147461.0800781.2548828.2402344.1298828.140625.2651367.2099609.4052734.2099609.1396484,0,.3999023-.0771484.7797852-.2324219s.7749023-.3525391,1.1850586-.5927734c.2299805-.1396484.4350586-.2099609.6147461-.2099609.1699219,0,.3828125.0556641.6376953.1650391.2548828.1103516.4775391.2548828.6674805.4355469.1899414.1796875.2851562.3701172.2851562.5693359,0,.25-.1201172.4648438-.3598633.6455078-1.3901367,1.1201172-2.6201172,2.3896484-3.6904297,3.8095703.840332-.5595703,1.6850586-.8398438,2.5351562-.8398438.5498047,0,1.074707.1054688,1.5751953.3154297Zm-1.8300781,5.0849609c-.0703125-.3105469-.1977539-.5751953-.3828125-.7949219-.1850586-.2207031-.4423828-.3300781-.7724609-.3300781-.1796875,0-.3149414.0419922-.4047852.1269531s-.1352539.1875-.1352539.3076172c0,.1904297.1425781.3574219.4277344.5029297.2851562.1445312.5922852.2167969.9223633.2167969.090332,0,.2050781-.0097656.3452148-.0292969Z"/>
    </g>
    <rect class="cls-2" x=".5" y=".5" width="165" height="41"/>
    <polyline class="cls-2" points="140.0305125 12.2117826 148.8187299 21 140.0305125 29.7882174"/>
  </g>
</svg>