<?xml version="1.0" encoding="UTF-8"?>
<svg id="_レイヤー_2" data-name="レイヤー 2" xmlns="http://www.w3.org/2000/svg" viewBox="0 0 152.6583755 41.9062207">
  <defs>
    <style>
      .cls-1 {
        fill: #231815;
        stroke-width: 0px;
      }

      .cls-2 {
        fill: none;
        stroke: #d2d2d3;
        stroke-miterlimit: 10;
        stroke-width: .9977672px;
      }
    </style>
  </defs>
  <g id="_レイヤー_1-2" data-name="レイヤー 1">
    <g>
      <g>
        <path class="cls-1" d="m33.0862572,18.8342669c.234375.0947266.4365234.2148438.6064453.359375s.2548828.2919922.2548828.4414062c0,.1103516-.0380859.1826172-.1123047.2167969-.0751953.0351562-.1777344.0527344-.3076172.0527344-.2294922,0-.4335938-.0146484-.6132812-.0449219-.5585938-.0800781-1.4863281-.1201172-2.7841797-.1201172-.3486328,0-.6132812.0058594-.7929688.015625-.0498047,1.4863281-.2392578,2.7441406-.5683594,3.7714844s-.7958984,1.8808594-1.3994141,2.5585938c-.6035156.6787109-1.3642578,1.2470703-2.2822266,1.7070312-.1005859.0498047-.1748047.0742188-.2246094.0742188-.0703125,0-.1044922-.0244141-.1044922-.0742188,0-.0703125.0839844-.1552734.2539062-.2548828,1.1474609-.7685547,1.9882812-1.7832031,2.5214844-3.0458984.5341797-1.2617188.8212891-2.8310547.8613281-4.7070312-.3994141.0205078-.6992188.0400391-.8984375.0605469l-.3144531.0292969c-.1894531.0205078-.5488281.0605469-1.0771484.1201172.0097656.9580078.0302734,1.7558594.0595703,2.3945312.0097656.0898438.0146484.1943359.0146484.3144531,0,.5185547-.1337891.7783203-.4033203.7783203-.0605469,0-.1347656-.0478516-.2246094-.1425781s-.1699219-.2265625-.2392578-.3964844c-.0703125-.1699219-.1054688-.359375-.1054688-.5683594,0-.0498047.015625-.2568359.0449219-.6210938.0302734-.3642578.0449219-.6865234.0449219-.9658203,0-.2988281-.0048828-.5283203-.0146484-.6884766-1.2470703.1796875-2.0800781.3242188-2.4990234.4345703-.2099609.0595703-.3945312.0898438-.5537109.0898438-.1601562,0-.3496094-.0605469-.5693359-.1796875-.2197266-.1201172-.4111328-.2773438-.5761719-.4716797-.1640625-.1943359-.2470703-.3613281-.2470703-.5019531,0-.0595703.0302734-.0888672.0898438-.0888672s.1894531.0546875.3896484.1640625c.0996094.0595703.2763672.1152344.53125.1650391.2539062.0498047.5410156.0742188.8603516.0742188.2890625,0,1.1425781-.0839844,2.5595703-.2539062-.0302734-.6689453-.0654297-1.1171875-.1054688-1.3476562-.0898438-.4384766-.3583984-.7128906-.8076172-.8222656-.0107422,0-.0625-.0126953-.1572266-.0380859-.0947266-.0244141-.1425781-.0615234-.1425781-.1123047,0-.0595703.0830078-.1171875.2470703-.171875.1650391-.0546875.3271484-.0820312.4863281-.0820312.3896484,0,.7333984.0625,1.0332031.1865234.2988281.125.4482422.2773438.4482422.4570312,0,.0595703-.0273438.1542969-.0820312.2841797s-.0820312.2294922-.0820312.2988281v1.2578125c.4589844-.0498047.9472656-.0947266,1.4667969-.1347656l.8232422-.0449219c0-1.0078125-.0253906-1.7158203-.0751953-2.125-.0498047-.3798828-.1494141-.6738281-.2988281-.8837891-.1503906-.2089844-.3896484-.3789062-.71875-.5087891-.0996094-.0390625-.1494141-.0791016-.1494141-.1191406s.0341797-.0800781.1044922-.1201172c.1796875-.1191406.3837891-.1796875.6132812-.1796875.1601562,0,.3867188.0478516.6816406.1425781.2939453.0947266.5507812.2148438.7705078.359375s.3291016.2919922.3291016.4414062c0,.109375-.0351562.234375-.1044922.3740234-.0800781.1396484-.1298828.2792969-.1494141.4189453-.0302734.2001953-.0449219.5634766-.0449219,1.0927734v1.0625c.7978516-.0400391,1.4267578-.0800781,1.8857422-.1201172.1787109-.0195312.4082031-.0947266.6884766-.2246094.2392578-.1191406.4238281-.1787109.5537109-.1787109.1689453,0,.3710938.046875.6054688.1416016Z"/>
        <path class="cls-1" d="m45.1048119,15.9612201c.1347656.1542969.2021484.296875.2021484.4257812,0,.0703125-.0126953.1181641-.0371094.1425781-.0253906.0253906-.0732422.0576172-.1425781.0976562-.0097656.0097656-.0498047.0371094-.1191406.0820312-.0703125.0449219-.1347656.1074219-.1953125.1865234-.5683594.8388672-1.1923828,1.6269531-1.8701172,2.3652344.2490234.109375.453125.2089844.6132812.2988281.1494141.0898438.2246094.2197266.2246094.3896484,0,.0898438-.0253906.2246094-.0751953.4042969-.0693359.3486328-.1044922.578125-.1044922.6884766l-.0146484,1.9755859c0,1.4765625.0244141,2.4296875.0742188,2.8583984.0302734.2392578.0449219.4541016.0449219.6435547,0,.4990234-.1494141.7480469-.4492188.7480469-.2294922,0-.4013672-.0800781-.515625-.2392578-.1152344-.1591797-.1728516-.3896484-.1728516-.6884766,0-.5185547.015625-1.0332031.0449219-1.5419922.0205078-.6376953.0302734-1.1123047.0302734-1.421875l-.0146484-2.4541016c0-.4990234-.0800781-.8525391-.2392578-1.0625-1.4667969,1.4970703-3.0742188,2.6738281-4.8193359,3.5322266-.1201172.0595703-.2148438.0898438-.2851562.0898438-.0791016,0-.1191406-.0205078-.1191406-.0605469,0-.0693359.0996094-.1689453.2988281-.2988281,1.2773438-.9277344,2.3945312-1.8730469,3.3525391-2.8359375s1.6884766-1.8212891,2.1933594-2.5742188c.5029297-.7539062.7548828-1.2744141.7548828-1.5644531,0-.1992188-.0498047-.3535156-.1494141-.4638672-.0400391-.0400391-.0849609-.0800781-.1347656-.1201172-.0498047-.0390625-.0742188-.0693359-.0742188-.0888672,0-.0800781.0742188-.1201172.2246094-.1201172.3583984,0,.703125.0849609,1.0322266.2539062.1591797.0800781.3066406.1972656.4414062.3525391Z"/>
        <path class="cls-1" d="m59.4055931,20.6828998c.828125.4287109,1.2421875.9326172,1.2421875,1.5117188,0,.1699219-.0419922.3095703-.1269531.4189453s-.1923828.1640625-.3222656.1640625c-.2685547,0-.6230469-.2685547-1.0625-.8076172-.6787109-.8583984-1.5117188-1.5166016-2.4990234-1.9755859v.2539062l-.0146484,2.4550781c0,1.6865234.0244141,2.6591797.0742188,2.9179688.0097656.0703125.0400391.2275391.0898438.4716797.0498047.2451172.0751953.4365234.0751953.5761719,0,.2001953-.0654297.3769531-.1943359.53125-.1298828.1542969-.25.2324219-.359375.2324219-.1396484,0-.2724609-.1123047-.3964844-.3369141-.125-.2246094-.2275391-.4794922-.3076172-.7636719-.0791016-.2841797-.1191406-.4814453-.1191406-.5908203,0-.0595703.0195312-.1816406.0595703-.3671875.0400391-.1835938.0693359-.4257812.0898438-.7255859l.0449219-1.2119141c.0195312-.2998047.0351562-.5917969.0449219-.8759766s.0195312-.5507812.0302734-.8007812c.0292969-.6679688.0449219-1.6855469.0449219-3.0527344,0-1.0976562-.0205078-1.8212891-.0605469-2.1699219-.0292969-.2099609-.0898438-.3720703-.1796875-.4863281-.0898438-.1152344-.1767578-.2050781-.2617188-.2695312-.0849609-.0654297-.1416016-.1074219-.171875-.1279297-.0800781-.0595703-.1201172-.109375-.1201172-.1494141,0-.1191406.0947266-.1992188.2851562-.2392578.1894531-.0400391.3681641-.0595703.5380859-.0595703.3398438,0,.6191406.109375.8388672.3291016.109375.109375.1640625.2392578.1640625.3886719,0,.0703125-.0048828.1298828-.0146484.1796875s-.0205078.0947266-.0302734.1347656c-.0097656.0498047-.0322266.1894531-.0673828.4189453s-.0517578.484375-.0517578.7636719v.3144531c-.0205078.5585938-.0302734,1.2216797-.0302734,1.9902344,1.0175781.2099609,1.9404297.5292969,2.7685547.9580078Z"/>
        <path class="cls-1" d="m77.1184838,18.7219623c.2548828.2099609.3818359.4892578.3818359.8378906,0,.4492188-.1943359.8310547-.5830078,1.1455078-.3896484.3144531-.9189453.6162109-1.5869141.9052734l-1.1074219.4492188c-.7382812.2890625-1.2324219.4892578-1.4814453.5986328-.0302734.2089844-.0449219.5390625-.0449219.9873047,0,.7089844-.0058594,1.1074219-.015625,1.1972656-.0097656.1503906-.0722656.2773438-.1865234.3818359-.1152344.1044922-.2373047.1572266-.3671875.1572266-.1191406,0-.2246094-.0546875-.3144531-.1640625-.0898438-.1103516-.1337891-.234375-.1337891-.375,0-.109375.0146484-.3037109.0439453-.5830078l.0898438-1.1523438c-.578125.3193359-1.0302734.6533203-1.3544922,1.0019531-.3242188.3496094-.4863281.7392578-.4863281,1.1679688,0,.7578125.7587891,1.1376953,2.2753906,1.1376953.2294922,0,.4638672-.0205078.703125-.0605469.2392578-.0390625.4638672-.0839844.6738281-.1347656.3984375-.0898438.7080078-.1347656.9277344-.1347656.3896484,0,.5839844.1347656.5839844.4042969,0,.2998047-.2792969.5087891-.8378906.6289062-.5595703.1201172-1.1435547.1796875-1.7519531.1796875-1.2470703,0-2.0800781-.1875-2.4990234-.5615234s-.6289062-.8300781-.6289062-1.3691406c0-.5585938.2119141-1.0498047.6367188-1.4746094.4238281-.4238281,1.0195312-.8349609,1.7880859-1.234375.0097656-.109375.0146484-.2646484.0146484-.4638672,0-1.0478516-.3085938-1.5712891-.9277344-1.5712891-.359375,0-.7353516.2138672-1.1298828.6435547-.3945312.4287109-.7753906.8974609-1.1445312,1.40625-.0302734.0400391-.1005859.1425781-.2099609.3066406-.109375.1650391-.2148438.296875-.3144531.3964844-.0996094.1005859-.1845703.1503906-.2539062.1503906-.1699219,0-.2998047-.0654297-.3896484-.1943359-.0898438-.1298828-.1347656-.2851562-.1347656-.4648438,0-.2392578.0546875-.4189453.1650391-.5380859l.2695312-.2402344c.3193359-.2988281.59375-.5683594.8232422-.8076172s.4335938-.5136719.6132812-.8232422c.5087891-.8681641.9179688-1.7958984,1.2275391-2.7841797-.3896484.1103516-.7734375.1650391-1.1523438.1650391-.3291016,0-.609375-.0546875-.8388672-.1650391-.2294922-.109375-.5039062-.2890625-.8222656-.5380859-.0400391-.0302734-.0605469-.0605469-.0605469-.0898438,0-.0400391.0253906-.0605469.0751953-.0605469.0400391,0,.109375.015625.2089844.0449219.3193359.1201172.6591797.1796875,1.0185547.1796875.1796875,0,.4287109-.0224609.7480469-.0673828s.6679688-.1367188,1.0478516-.2763672c.0693359-.2792969.1044922-.5244141.1044922-.7333984,0-.3994141-.1552734-.7236328-.4638672-.9726562-.0498047-.0400391-.0751953-.0800781-.0751953-.1201172.0097656-.1494141.0898438-.2246094.2392578-.2246094.0898438,0,.2597656.0302734.5097656.0898438.2490234.0595703.4033203.1298828.4638672.2099609.0498047.0595703.0742188.1699219.0742188.3291016,0,.0595703-.0097656.1591797-.0292969.2988281.1591797.1103516.3740234.1650391.6435547.1650391.1396484,0,.2441406-.0146484.3134766-.0449219.0996094-.0195312.2001953-.0302734.2998047-.0302734.2294922,0,.34375.0849609.34375.2548828,0,.1298828-.0771484.2744141-.2314453.4335938-.1552734.1601562-.3466797.2998047-.5761719.4189453-.3193359.1796875-.7333984.3652344-1.2421875.5537109-.359375,1.1582031-.7138672,2.1210938-1.0625,2.8886719.2890625-.1689453.5732422-.2539062.8525391-.2539062.4892578,0,.8710938.1347656,1.1455078.4042969.2744141.2685547.4560547.6337891.5458984,1.0917969.1796875-.4189453.3740234-.7851562.5839844-1.0996094.2089844-.3144531.4638672-.6308594.7626953-.9501953.2998047-.3193359.6689453-.59375,1.1083984-.8232422.4384766-.2294922.8574219-.3447266,1.2568359-.3447266.3291016,0,.6210938.1054688.875.3144531Zm-5.7988281-2.1396484c.0693359-.0302734.1289062-.0625.1796875-.0976562.0498047-.0351562.0947266-.0625.1347656-.0820312.0693359-.0400391.1044922-.0800781.1044922-.1201172s-.0400391-.0898438-.1201172-.1494141l-.1640625-.1044922c0,.0292969-.0449219.2138672-.1347656.5537109Zm4.8417969,3.5390625c.3037109-.34375.4560547-.6259766.4560547-.8457031,0-.2890625-.1894531-.4335938-.5683594-.4335938-.2695312,0-.5791016.0947266-.9287109.2841797-.3486328.1894531-.6728516.4335938-.9726562.7333984-.2695312.2695312-.5283203.6308594-.7783203,1.0849609-.2490234.4541016-.4287109.8554688-.5380859,1.2050781v.0146484l.1943359-.0898438.3144531-.1494141c.8076172-.3994141,1.3515625-.6835938,1.6308594-.8535156.4892578-.2890625.8857422-.6054688,1.1904297-.9501953Z"/>
        <path class="cls-1" d="m90.6409447,14.905556c.0205078-.0302734.0556641-.0800781.1054688-.1494141s.0947266-.1220703.1347656-.1572266c.0390625-.0351562.0791016-.0527344.1191406-.0527344.0605469,0,.1826172.0732422.3671875.2177734s.3535156.2988281.5087891.4638672c.1542969.1640625.2314453.28125.2314453.3515625-.1191406.1298828-.3291016.234375-.6279297.3144531v4.0410156c.0195312,1.2373047.0595703,2.4091797.1191406,3.5166016-.0693359.0898438-.1992188.1796875-.3886719.2695312s-.359375.1347656-.5087891.1347656c-.1298828,0-.1943359-.0996094-.1943359-.2998047.0097656-.0292969.0166016-.0615234.0224609-.0966797.0048828-.0351562.0117188-.0722656.0224609-.1123047v-.2695312h-1.4375v3.5322266c0,.1191406.0351562.1943359.1054688.2246094.0693359.0292969.2333984.0449219.4931641.0449219h1.4521484c.7783203,0,1.2324219-.0048828,1.3623047-.015625.0888672-.0097656.1513672-.0273438.1865234-.0517578.0351562-.0253906.0673828-.0771484.0976562-.1572266.0498047-.1201172.1142578-.3789062.1943359-.7783203s.1591797-.8183594.2392578-1.2568359h.2099609l.0292969,2.109375c.1503906.0507812.25.1054688.2998047.1650391s.0751953.1445312.0751953.2548828c0,.1591797-.0703125.2841797-.2099609.3740234s-.4013672.1542969-.7861328.1943359c-.3837891.0400391-.9550781.0595703-1.7128906.0595703h-1.5869141c-.3789062,0-.6660156-.0292969-.8603516-.0898438-.1943359-.0595703-.3271484-.1572266-.3964844-.2919922-.0703125-.1337891-.1054688-.3310547-.1054688-.5908203v-3.7265625h-1.6308594c-.1494141,1.0078125-.4414062,1.8388672-.8759766,2.4921875-.4335938.6533203-1.0419922,1.1796875-1.8251953,1.5791016-.7841797.3984375-1.7988281.7080078-3.0458984.9277344l-.0595703-.2392578c1.0566406-.2998047,1.9101562-.6542969,2.5585938-1.0634766.6484375-.4082031,1.1455078-.9101562,1.4892578-1.5039062.3447266-.59375.5761719-1.3242188.6962891-2.1923828h-1.3173828v.5986328c0,.0595703-.0820312.1298828-.2470703.2099609-.1640625.0791016-.3417969.1191406-.53125.1191406-.0800781,0-.1523438-.0292969-.2167969-.0898438-.0654297-.0595703-.0976562-.1289062-.0976562-.2089844.0400391-.5791016.0722656-1.1523438.0976562-1.7216797.0244141-.5683594.0419922-1.2822266.0527344-2.1396484v-2.0810547c0-1.2568359-.0654297-2.2792969-.1953125-3.0673828l1.2128906.5537109h6.1357422l.2392578-.3447266Zm-.0888672,2.7685547v-1.9755859h-6.3613281v1.9755859h6.3613281Zm-6.3613281,2.4550781h6.3613281v-2.0205078h-6.3613281v2.0205078Zm6.3613281.4492188h-6.3613281v2.0498047h6.3613281v-2.0498047Z"/>
        <path class="cls-1" d="m104.426101,21.1018451c.4990234.2099609.9072266.5341797,1.2265625.9726562.3193359.4394531.4794922.9785156.4794922,1.6162109,0,.6191406-.1845703,1.1679688-.5537109,1.6464844-.3691406.4794922-.8457031.8505859-1.4296875,1.1152344-.5830078.2646484-1.1894531.3964844-1.8183594.3964844-.5292969,0-1.0029297-.1171875-1.421875-.3515625s-.6279297-.5566406-.6279297-.9658203c0-.3388672.1337891-.6103516.4033203-.8154297.2695312-.2041016.5791016-.3066406.9287109-.3066406.3984375,0,.7675781.1298828,1.1074219.3886719.3388672.2597656.5878906.6337891.7480469,1.1230469.4990234-.2392578.9130859-.5742188,1.2421875-1.0029297s.4941406-.9033203.4941406-1.421875c0-.7783203-.2597656-1.3496094-.7783203-1.7138672-.5195312-.3642578-1.1230469-.5458984-1.8115234-.5458984-.6386719,0-1.2265625.1972656-1.765625.5908203-.5390625.3945312-1.0878906,1.0654297-1.6464844,2.0136719-.0498047.0791016-.125.2070312-.2246094.3808594-.0996094.1748047-.1943359.3027344-.2841797.3818359-.0898438.0800781-.1894531.1201172-.2998047.1201172-.1787109,0-.3115234-.0546875-.3964844-.1650391-.0849609-.109375-.1269531-.2392578-.1269531-.3886719,0-.2792969.1171875-.5859375.3515625-.9208984.234375-.3339844.5917969-.7753906,1.0703125-1.3242188.4892578-.5585938,1.0722656-1.2617188,1.7509766-2.1103516.6787109-.8476562,1.0927734-1.3671875,1.2421875-1.5566406l.4638672-.5839844c.0498047-.0595703.1123047-.1347656.1875-.2236328.0742188-.0898438.1298828-.1669922.1640625-.2324219.0351562-.0644531.0527344-.1269531.0527344-.1875,0-.0996094-.0371094-.1943359-.1123047-.2841797s-.1523438-.1347656-.2314453-.1347656c-.1201172,0-.25.0849609-.3896484.2548828-.2890625.359375-.6132812.65625-.9726562.890625s-.6982422.3515625-1.0175781.3515625c-.5390625,0-.8486328-.3691406-.9277344-1.1074219l-.015625-.2841797c0-.0800781.0205078-.1201172.0605469-.1201172.0292969,0,.1142578.0800781.2539062.2392578.1298828.1396484.2646484.2099609.4042969.2099609s.3984375-.0771484.7783203-.2324219c.3789062-.1542969.7734375-.3515625,1.1826172-.5908203.2285156-.1396484.4335938-.2099609.6132812-.2099609.1699219,0,.3818359.0556641.6357422.1650391.2548828.109375.4765625.2539062.6660156.4335938s.2841797.3691406.2841797.5693359c0,.2490234-.1191406.4638672-.3583984.6435547-1.3876953,1.1171875-2.6142578,2.3847656-3.6816406,3.8007812.8378906-.5585938,1.6806641-.8378906,2.5292969-.8378906.5478516,0,1.0722656.1044922,1.5712891.3144531Zm-1.8261719,5.0732422c-.0703125-.3085938-.1972656-.5732422-.3818359-.7929688-.1845703-.21875-.4414062-.3291016-.7705078-.3291016-.1796875,0-.3144531.0429688-.4042969.1269531-.0898438.0849609-.1347656.1875-.1347656.3066406,0,.1904297.1425781.3574219.4267578.5019531s.5908203.2167969.9208984.2167969c.0888672,0,.2041016-.0097656.34375-.0302734Z"/>
      </g>
      <rect class="cls-2" x=".4988836" y=".4988836" width="151.6606083" height="40.9084536"/>
      <polyline class="cls-2" points="126.7468737 12.1845157 135.5154684 20.9531104 126.7468737 29.721705"/>
    </g>
  </g>
</svg>